%TF.GenerationSoftware,KiCad,Pcbnew,(6.0.1)*%
%TF.CreationDate,2022-10-10T15:56:49-07:00*%
%TF.ProjectId,WSPR40,57535052-3430-42e6-9b69-6361645f7063,rev?*%
%TF.SameCoordinates,Original*%
%TF.FileFunction,Paste,Top*%
%TF.FilePolarity,Positive*%
%FSLAX46Y46*%
G04 Gerber Fmt 4.6, Leading zero omitted, Abs format (unit mm)*
G04 Created by KiCad (PCBNEW (6.0.1)) date 2022-10-10 15:56:49*
%MOMM*%
%LPD*%
G01*
G04 APERTURE LIST*
G04 Aperture macros list*
%AMRoundRect*
0 Rectangle with rounded corners*
0 $1 Rounding radius*
0 $2 $3 $4 $5 $6 $7 $8 $9 X,Y pos of 4 corners*
0 Add a 4 corners polygon primitive as box body*
4,1,4,$2,$3,$4,$5,$6,$7,$8,$9,$2,$3,0*
0 Add four circle primitives for the rounded corners*
1,1,$1+$1,$2,$3*
1,1,$1+$1,$4,$5*
1,1,$1+$1,$6,$7*
1,1,$1+$1,$8,$9*
0 Add four rect primitives between the rounded corners*
20,1,$1+$1,$2,$3,$4,$5,0*
20,1,$1+$1,$4,$5,$6,$7,0*
20,1,$1+$1,$6,$7,$8,$9,0*
20,1,$1+$1,$8,$9,$2,$3,0*%
G04 Aperture macros list end*
%ADD10RoundRect,0.250000X0.375000X1.075000X-0.375000X1.075000X-0.375000X-1.075000X0.375000X-1.075000X0*%
%ADD11RoundRect,0.250000X0.375000X0.850000X-0.375000X0.850000X-0.375000X-0.850000X0.375000X-0.850000X0*%
%ADD12RoundRect,0.225000X0.250000X-0.225000X0.250000X0.225000X-0.250000X0.225000X-0.250000X-0.225000X0*%
%ADD13RoundRect,0.225000X-0.250000X0.225000X-0.250000X-0.225000X0.250000X-0.225000X0.250000X0.225000X0*%
%ADD14RoundRect,0.225000X0.225000X0.250000X-0.225000X0.250000X-0.225000X-0.250000X0.225000X-0.250000X0*%
%ADD15RoundRect,0.200000X0.275000X-0.200000X0.275000X0.200000X-0.275000X0.200000X-0.275000X-0.200000X0*%
%ADD16RoundRect,0.200000X-0.200000X-0.275000X0.200000X-0.275000X0.200000X0.275000X-0.200000X0.275000X0*%
%ADD17RoundRect,0.200000X-0.275000X0.200000X-0.275000X-0.200000X0.275000X-0.200000X0.275000X0.200000X0*%
%ADD18RoundRect,0.150000X-0.150000X0.587500X-0.150000X-0.587500X0.150000X-0.587500X0.150000X0.587500X0*%
%ADD19R,1.100000X1.100000*%
%ADD20R,2.000000X1.300000*%
%ADD21R,2.000000X2.000000*%
%ADD22RoundRect,0.243750X0.243750X0.456250X-0.243750X0.456250X-0.243750X-0.456250X0.243750X-0.456250X0*%
%ADD23RoundRect,0.200000X0.200000X0.275000X-0.200000X0.275000X-0.200000X-0.275000X0.200000X-0.275000X0*%
%ADD24RoundRect,0.250000X-0.475000X0.250000X-0.475000X-0.250000X0.475000X-0.250000X0.475000X0.250000X0*%
%ADD25R,1.100000X1.800000*%
G04 APERTURE END LIST*
D10*
%TO.C,L4*%
X63650000Y-69000000D03*
X60850000Y-69000000D03*
%TD*%
%TO.C,L3*%
X68350000Y-69000000D03*
X71150000Y-69000000D03*
%TD*%
%TO.C,L2*%
X78650000Y-69000000D03*
X75850000Y-69000000D03*
%TD*%
D11*
%TO.C,L1*%
X90100000Y-69000000D03*
X92250000Y-69000000D03*
%TD*%
D12*
%TO.C,C9*%
X64750000Y-59275000D03*
X64750000Y-57725000D03*
%TD*%
D13*
%TO.C,C6*%
X66000000Y-70550000D03*
X66000000Y-69000000D03*
%TD*%
%TO.C,C5*%
X73500000Y-70550000D03*
X73500000Y-69000000D03*
%TD*%
%TO.C,C4*%
X81000000Y-70550000D03*
X81000000Y-69000000D03*
%TD*%
D14*
%TO.C,C3*%
X84475000Y-69000000D03*
X86025000Y-69000000D03*
%TD*%
D15*
%TO.C,R2*%
X95000000Y-60175000D03*
X95000000Y-61825000D03*
%TD*%
D13*
%TO.C,C1*%
X100750000Y-61775000D03*
X100750000Y-60225000D03*
%TD*%
%TO.C,C7*%
X58500000Y-69000000D03*
X58500000Y-70550000D03*
%TD*%
D16*
%TO.C,R6*%
X86075000Y-62500000D03*
X84425000Y-62500000D03*
%TD*%
D17*
%TO.C,R1*%
X96750000Y-61825000D03*
X96750000Y-60175000D03*
%TD*%
D18*
%TO.C,Q1*%
X85250000Y-67187500D03*
X84300000Y-65312500D03*
X86200000Y-65312500D03*
%TD*%
D19*
%TO.C,D1*%
X60750000Y-60650000D03*
X60750000Y-57850000D03*
%TD*%
D14*
%TO.C,C8*%
X84475000Y-59000000D03*
X86025000Y-59000000D03*
%TD*%
D17*
%TO.C,R7*%
X63000000Y-57675000D03*
X63000000Y-59325000D03*
%TD*%
D20*
%TO.C,R3*%
X92500000Y-59600000D03*
D21*
X88500000Y-60750000D03*
D20*
X92500000Y-61900000D03*
%TD*%
D22*
%TO.C,LED1*%
X78187500Y-57500000D03*
X76312500Y-57500000D03*
%TD*%
D23*
%TO.C,R5*%
X84425000Y-60750000D03*
X86075000Y-60750000D03*
%TD*%
%TO.C,R4*%
X74075000Y-57500000D03*
X72425000Y-57500000D03*
%TD*%
D24*
%TO.C,C2*%
X98750000Y-62200000D03*
X98750000Y-60300000D03*
%TD*%
D25*
%TO.C,SW1*%
X107600000Y-64350000D03*
X107600000Y-58150000D03*
X103900000Y-58150000D03*
X103900000Y-64350000D03*
%TD*%
M02*
