%TF.GenerationSoftware,KiCad,Pcbnew,(6.0.1)*%
%TF.CreationDate,2022-10-10T15:56:49-07:00*%
%TF.ProjectId,WSPR40,57535052-3430-42e6-9b69-6361645f7063,rev?*%
%TF.SameCoordinates,Original*%
%TF.FileFunction,Legend,Bot*%
%TF.FilePolarity,Positive*%
%FSLAX46Y46*%
G04 Gerber Fmt 4.6, Leading zero omitted, Abs format (unit mm)*
G04 Created by KiCad (PCBNEW (6.0.1)) date 2022-10-10 15:56:49*
%MOMM*%
%LPD*%
G01*
G04 APERTURE LIST*
%ADD10C,0.150000*%
%ADD11C,0.120000*%
G04 APERTURE END LIST*
D10*
X108066785Y-62282642D02*
X107552500Y-62282642D01*
X107809642Y-63182642D02*
X107809642Y-62282642D01*
X107295357Y-62925500D02*
X106866785Y-62925500D01*
X107381071Y-63182642D02*
X107081071Y-62282642D01*
X106781071Y-63182642D01*
X106481071Y-63182642D02*
X106481071Y-62282642D01*
X106138214Y-62282642D01*
X106052500Y-62325500D01*
X106009642Y-62368357D01*
X105966785Y-62454071D01*
X105966785Y-62582642D01*
X106009642Y-62668357D01*
X106052500Y-62711214D01*
X106138214Y-62754071D01*
X106481071Y-62754071D01*
X105066785Y-63182642D02*
X105366785Y-62754071D01*
X105581071Y-63182642D02*
X105581071Y-62282642D01*
X105238214Y-62282642D01*
X105152500Y-62325500D01*
X105109642Y-62368357D01*
X105066785Y-62454071D01*
X105066785Y-62582642D01*
X105109642Y-62668357D01*
X105152500Y-62711214D01*
X105238214Y-62754071D01*
X105581071Y-62754071D01*
X104681071Y-63096928D02*
X104638214Y-63139785D01*
X104681071Y-63182642D01*
X104723928Y-63139785D01*
X104681071Y-63096928D01*
X104681071Y-63182642D01*
X104123928Y-63182642D02*
X104209642Y-63139785D01*
X104252500Y-63096928D01*
X104295357Y-63011214D01*
X104295357Y-62754071D01*
X104252500Y-62668357D01*
X104209642Y-62625500D01*
X104123928Y-62582642D01*
X103995357Y-62582642D01*
X103909642Y-62625500D01*
X103866785Y-62668357D01*
X103823928Y-62754071D01*
X103823928Y-63011214D01*
X103866785Y-63096928D01*
X103909642Y-63139785D01*
X103995357Y-63182642D01*
X104123928Y-63182642D01*
X103438214Y-63182642D02*
X103438214Y-62582642D01*
X103438214Y-62754071D02*
X103395357Y-62668357D01*
X103352500Y-62625500D01*
X103266785Y-62582642D01*
X103181071Y-62582642D01*
X102495357Y-62582642D02*
X102495357Y-63311214D01*
X102538214Y-63396928D01*
X102581071Y-63439785D01*
X102666785Y-63482642D01*
X102795357Y-63482642D01*
X102881071Y-63439785D01*
X102495357Y-63139785D02*
X102581071Y-63182642D01*
X102752500Y-63182642D01*
X102838214Y-63139785D01*
X102881071Y-63096928D01*
X102923928Y-63011214D01*
X102923928Y-62754071D01*
X102881071Y-62668357D01*
X102838214Y-62625500D01*
X102752500Y-62582642D01*
X102581071Y-62582642D01*
X102495357Y-62625500D01*
X101466785Y-62282642D02*
X101252500Y-63182642D01*
X101081071Y-62539785D01*
X100909642Y-63182642D01*
X100695357Y-62282642D01*
X100395357Y-63139785D02*
X100266785Y-63182642D01*
X100052500Y-63182642D01*
X99966785Y-63139785D01*
X99923928Y-63096928D01*
X99881071Y-63011214D01*
X99881071Y-62925500D01*
X99923928Y-62839785D01*
X99966785Y-62796928D01*
X100052500Y-62754071D01*
X100223928Y-62711214D01*
X100309642Y-62668357D01*
X100352500Y-62625500D01*
X100395357Y-62539785D01*
X100395357Y-62454071D01*
X100352500Y-62368357D01*
X100309642Y-62325500D01*
X100223928Y-62282642D01*
X100009642Y-62282642D01*
X99881071Y-62325500D01*
X99495357Y-63182642D02*
X99495357Y-62282642D01*
X99152500Y-62282642D01*
X99066785Y-62325500D01*
X99023928Y-62368357D01*
X98981071Y-62454071D01*
X98981071Y-62582642D01*
X99023928Y-62668357D01*
X99066785Y-62711214D01*
X99152500Y-62754071D01*
X99495357Y-62754071D01*
X98081071Y-63182642D02*
X98381071Y-62754071D01*
X98595357Y-63182642D02*
X98595357Y-62282642D01*
X98252500Y-62282642D01*
X98166785Y-62325500D01*
X98123928Y-62368357D01*
X98081071Y-62454071D01*
X98081071Y-62582642D01*
X98123928Y-62668357D01*
X98166785Y-62711214D01*
X98252500Y-62754071D01*
X98595357Y-62754071D01*
X96623928Y-62582642D02*
X96623928Y-63182642D01*
X96838214Y-62239785D02*
X97052500Y-62882642D01*
X96495357Y-62882642D01*
X95981071Y-62282642D02*
X95895357Y-62282642D01*
X95809642Y-62325500D01*
X95766785Y-62368357D01*
X95723928Y-62454071D01*
X95681071Y-62625500D01*
X95681071Y-62839785D01*
X95723928Y-63011214D01*
X95766785Y-63096928D01*
X95809642Y-63139785D01*
X95895357Y-63182642D01*
X95981071Y-63182642D01*
X96066785Y-63139785D01*
X96109642Y-63096928D01*
X96152500Y-63011214D01*
X96195357Y-62839785D01*
X96195357Y-62625500D01*
X96152500Y-62454071D01*
X96109642Y-62368357D01*
X96066785Y-62325500D01*
X95981071Y-62282642D01*
X95295357Y-63182642D02*
X95295357Y-62282642D01*
X94995357Y-62925500D01*
X94695357Y-62282642D01*
X94695357Y-63182642D01*
X93281071Y-62711214D02*
X93152500Y-62754071D01*
X93109642Y-62796928D01*
X93066785Y-62882642D01*
X93066785Y-63011214D01*
X93109642Y-63096928D01*
X93152500Y-63139785D01*
X93238214Y-63182642D01*
X93581071Y-63182642D01*
X93581071Y-62282642D01*
X93281071Y-62282642D01*
X93195357Y-62325500D01*
X93152500Y-62368357D01*
X93109642Y-62454071D01*
X93109642Y-62539785D01*
X93152500Y-62625500D01*
X93195357Y-62668357D01*
X93281071Y-62711214D01*
X93581071Y-62711214D01*
X92338214Y-63139785D02*
X92423928Y-63182642D01*
X92595357Y-63182642D01*
X92681071Y-63139785D01*
X92723928Y-63054071D01*
X92723928Y-62711214D01*
X92681071Y-62625500D01*
X92595357Y-62582642D01*
X92423928Y-62582642D01*
X92338214Y-62625500D01*
X92295357Y-62711214D01*
X92295357Y-62796928D01*
X92723928Y-62882642D01*
X91523928Y-63182642D02*
X91523928Y-62711214D01*
X91566785Y-62625500D01*
X91652500Y-62582642D01*
X91823928Y-62582642D01*
X91909642Y-62625500D01*
X91523928Y-63139785D02*
X91609642Y-63182642D01*
X91823928Y-63182642D01*
X91909642Y-63139785D01*
X91952500Y-63054071D01*
X91952500Y-62968357D01*
X91909642Y-62882642D01*
X91823928Y-62839785D01*
X91609642Y-62839785D01*
X91523928Y-62796928D01*
X90709642Y-63139785D02*
X90795357Y-63182642D01*
X90966785Y-63182642D01*
X91052500Y-63139785D01*
X91095357Y-63096928D01*
X91138214Y-63011214D01*
X91138214Y-62754071D01*
X91095357Y-62668357D01*
X91052500Y-62625500D01*
X90966785Y-62582642D01*
X90795357Y-62582642D01*
X90709642Y-62625500D01*
X90195357Y-63182642D02*
X90281071Y-63139785D01*
X90323928Y-63096928D01*
X90366785Y-63011214D01*
X90366785Y-62754071D01*
X90323928Y-62668357D01*
X90281071Y-62625500D01*
X90195357Y-62582642D01*
X90066785Y-62582642D01*
X89981071Y-62625500D01*
X89938214Y-62668357D01*
X89895357Y-62754071D01*
X89895357Y-63011214D01*
X89938214Y-63096928D01*
X89981071Y-63139785D01*
X90066785Y-63182642D01*
X90195357Y-63182642D01*
X89509642Y-62582642D02*
X89509642Y-63182642D01*
X89509642Y-62668357D02*
X89466785Y-62625500D01*
X89381071Y-62582642D01*
X89252500Y-62582642D01*
X89166785Y-62625500D01*
X89123928Y-62711214D01*
X89123928Y-63182642D01*
X107938214Y-64631642D02*
X107938214Y-63731642D01*
X107723928Y-63731642D01*
X107595357Y-63774500D01*
X107509642Y-63860214D01*
X107466785Y-63945928D01*
X107423928Y-64117357D01*
X107423928Y-64245928D01*
X107466785Y-64417357D01*
X107509642Y-64503071D01*
X107595357Y-64588785D01*
X107723928Y-64631642D01*
X107938214Y-64631642D01*
X106695357Y-64588785D02*
X106781071Y-64631642D01*
X106952500Y-64631642D01*
X107038214Y-64588785D01*
X107081071Y-64503071D01*
X107081071Y-64160214D01*
X107038214Y-64074500D01*
X106952500Y-64031642D01*
X106781071Y-64031642D01*
X106695357Y-64074500D01*
X106652500Y-64160214D01*
X106652500Y-64245928D01*
X107081071Y-64331642D01*
X106309642Y-64588785D02*
X106223928Y-64631642D01*
X106052500Y-64631642D01*
X105966785Y-64588785D01*
X105923928Y-64503071D01*
X105923928Y-64460214D01*
X105966785Y-64374500D01*
X106052500Y-64331642D01*
X106181071Y-64331642D01*
X106266785Y-64288785D01*
X106309642Y-64203071D01*
X106309642Y-64160214D01*
X106266785Y-64074500D01*
X106181071Y-64031642D01*
X106052500Y-64031642D01*
X105966785Y-64074500D01*
X105538214Y-64631642D02*
X105538214Y-64031642D01*
X105538214Y-63731642D02*
X105581071Y-63774500D01*
X105538214Y-63817357D01*
X105495357Y-63774500D01*
X105538214Y-63731642D01*
X105538214Y-63817357D01*
X104723928Y-64031642D02*
X104723928Y-64760214D01*
X104766785Y-64845928D01*
X104809642Y-64888785D01*
X104895357Y-64931642D01*
X105023928Y-64931642D01*
X105109642Y-64888785D01*
X104723928Y-64588785D02*
X104809642Y-64631642D01*
X104981071Y-64631642D01*
X105066785Y-64588785D01*
X105109642Y-64545928D01*
X105152500Y-64460214D01*
X105152500Y-64203071D01*
X105109642Y-64117357D01*
X105066785Y-64074500D01*
X104981071Y-64031642D01*
X104809642Y-64031642D01*
X104723928Y-64074500D01*
X104295357Y-64031642D02*
X104295357Y-64631642D01*
X104295357Y-64117357D02*
X104252500Y-64074500D01*
X104166785Y-64031642D01*
X104038214Y-64031642D01*
X103952500Y-64074500D01*
X103909642Y-64160214D01*
X103909642Y-64631642D01*
X103138214Y-64588785D02*
X103223928Y-64631642D01*
X103395357Y-64631642D01*
X103481071Y-64588785D01*
X103523928Y-64503071D01*
X103523928Y-64160214D01*
X103481071Y-64074500D01*
X103395357Y-64031642D01*
X103223928Y-64031642D01*
X103138214Y-64074500D01*
X103095357Y-64160214D01*
X103095357Y-64245928D01*
X103523928Y-64331642D01*
X102323928Y-64631642D02*
X102323928Y-63731642D01*
X102323928Y-64588785D02*
X102409642Y-64631642D01*
X102581071Y-64631642D01*
X102666785Y-64588785D01*
X102709642Y-64545928D01*
X102752500Y-64460214D01*
X102752500Y-64203071D01*
X102709642Y-64117357D01*
X102666785Y-64074500D01*
X102581071Y-64031642D01*
X102409642Y-64031642D01*
X102323928Y-64074500D01*
X101338214Y-64031642D02*
X100995357Y-64031642D01*
X101209642Y-64631642D02*
X101209642Y-63860214D01*
X101166785Y-63774500D01*
X101081071Y-63731642D01*
X100995357Y-63731642D01*
X100566785Y-64631642D02*
X100652500Y-64588785D01*
X100695357Y-64545928D01*
X100738214Y-64460214D01*
X100738214Y-64203071D01*
X100695357Y-64117357D01*
X100652500Y-64074500D01*
X100566785Y-64031642D01*
X100438214Y-64031642D01*
X100352500Y-64074500D01*
X100309642Y-64117357D01*
X100266785Y-64203071D01*
X100266785Y-64460214D01*
X100309642Y-64545928D01*
X100352500Y-64588785D01*
X100438214Y-64631642D01*
X100566785Y-64631642D01*
X99881071Y-64631642D02*
X99881071Y-64031642D01*
X99881071Y-64203071D02*
X99838214Y-64117357D01*
X99795357Y-64074500D01*
X99709642Y-64031642D01*
X99623928Y-64031642D01*
X98766785Y-63731642D02*
X98252500Y-63731642D01*
X98509642Y-64631642D02*
X98509642Y-63731642D01*
X97995357Y-64374500D02*
X97566785Y-64374500D01*
X98081071Y-64631642D02*
X97781071Y-63731642D01*
X97481071Y-64631642D01*
X97181071Y-64631642D02*
X97181071Y-63731642D01*
X96838214Y-63731642D01*
X96752500Y-63774500D01*
X96709642Y-63817357D01*
X96666785Y-63903071D01*
X96666785Y-64031642D01*
X96709642Y-64117357D01*
X96752500Y-64160214D01*
X96838214Y-64203071D01*
X97181071Y-64203071D01*
X95766785Y-64631642D02*
X96066785Y-64203071D01*
X96281071Y-64631642D02*
X96281071Y-63731642D01*
X95938214Y-63731642D01*
X95852500Y-63774500D01*
X95809642Y-63817357D01*
X95766785Y-63903071D01*
X95766785Y-64031642D01*
X95809642Y-64117357D01*
X95852500Y-64160214D01*
X95938214Y-64203071D01*
X96281071Y-64203071D01*
X94695357Y-64631642D02*
X94695357Y-63731642D01*
X94695357Y-64074500D02*
X94609642Y-64031642D01*
X94438214Y-64031642D01*
X94352499Y-64074500D01*
X94309642Y-64117357D01*
X94266785Y-64203071D01*
X94266785Y-64460214D01*
X94309642Y-64545928D01*
X94352499Y-64588785D01*
X94438214Y-64631642D01*
X94609642Y-64631642D01*
X94695357Y-64588785D01*
X93966785Y-64031642D02*
X93752500Y-64631642D01*
X93538214Y-64031642D02*
X93752500Y-64631642D01*
X93838214Y-64845928D01*
X93881071Y-64888785D01*
X93966785Y-64931642D01*
X92209642Y-64160214D02*
X92081071Y-64203071D01*
X92038214Y-64245928D01*
X91995357Y-64331642D01*
X91995357Y-64460214D01*
X92038214Y-64545928D01*
X92081071Y-64588785D01*
X92166785Y-64631642D01*
X92509642Y-64631642D01*
X92509642Y-63731642D01*
X92209642Y-63731642D01*
X92123928Y-63774500D01*
X92081071Y-63817357D01*
X92038214Y-63903071D01*
X92038214Y-63988785D01*
X92081071Y-64074500D01*
X92123928Y-64117357D01*
X92209642Y-64160214D01*
X92509642Y-64160214D01*
X91609642Y-64631642D02*
X91609642Y-64031642D01*
X91609642Y-64203071D02*
X91566785Y-64117357D01*
X91523928Y-64074500D01*
X91438214Y-64031642D01*
X91352499Y-64031642D01*
X90666785Y-64031642D02*
X90666785Y-64631642D01*
X91052499Y-64031642D02*
X91052499Y-64503071D01*
X91009642Y-64588785D01*
X90923928Y-64631642D01*
X90795357Y-64631642D01*
X90709642Y-64588785D01*
X90666785Y-64545928D01*
X89852499Y-64588785D02*
X89938214Y-64631642D01*
X90109642Y-64631642D01*
X90195357Y-64588785D01*
X90238214Y-64545928D01*
X90281071Y-64460214D01*
X90281071Y-64203071D01*
X90238214Y-64117357D01*
X90195357Y-64074500D01*
X90109642Y-64031642D01*
X89938214Y-64031642D01*
X89852499Y-64074500D01*
X89123928Y-64588785D02*
X89209642Y-64631642D01*
X89381071Y-64631642D01*
X89466785Y-64588785D01*
X89509642Y-64503071D01*
X89509642Y-64160214D01*
X89466785Y-64074500D01*
X89381071Y-64031642D01*
X89209642Y-64031642D01*
X89123928Y-64074500D01*
X89081071Y-64160214D01*
X89081071Y-64245928D01*
X89509642Y-64331642D01*
X87495357Y-64631642D02*
X87795357Y-64203071D01*
X88009642Y-64631642D02*
X88009642Y-63731642D01*
X87666785Y-63731642D01*
X87581071Y-63774500D01*
X87538214Y-63817357D01*
X87495357Y-63903071D01*
X87495357Y-64031642D01*
X87538214Y-64117357D01*
X87581071Y-64160214D01*
X87666785Y-64203071D01*
X88009642Y-64203071D01*
X86723928Y-64631642D02*
X86723928Y-64160214D01*
X86766785Y-64074500D01*
X86852499Y-64031642D01*
X87023928Y-64031642D01*
X87109642Y-64074500D01*
X86723928Y-64588785D02*
X86809642Y-64631642D01*
X87023928Y-64631642D01*
X87109642Y-64588785D01*
X87152499Y-64503071D01*
X87152499Y-64417357D01*
X87109642Y-64331642D01*
X87023928Y-64288785D01*
X86809642Y-64288785D01*
X86723928Y-64245928D01*
X86381071Y-64031642D02*
X86166785Y-64631642D01*
X85952499Y-64031642D02*
X86166785Y-64631642D01*
X86252499Y-64845928D01*
X86295357Y-64888785D01*
X86381071Y-64931642D01*
X85609642Y-64631642D02*
X85609642Y-64031642D01*
X85609642Y-64117357D02*
X85566785Y-64074500D01*
X85481071Y-64031642D01*
X85352499Y-64031642D01*
X85266785Y-64074500D01*
X85223928Y-64160214D01*
X85223928Y-64631642D01*
X85223928Y-64160214D02*
X85181071Y-64074500D01*
X85095357Y-64031642D01*
X84966785Y-64031642D01*
X84881071Y-64074500D01*
X84838214Y-64160214D01*
X84838214Y-64631642D01*
X84281071Y-64631642D02*
X84366785Y-64588785D01*
X84409642Y-64545928D01*
X84452499Y-64460214D01*
X84452499Y-64203071D01*
X84409642Y-64117357D01*
X84366785Y-64074500D01*
X84281071Y-64031642D01*
X84152499Y-64031642D01*
X84066785Y-64074500D01*
X84023928Y-64117357D01*
X83981071Y-64203071D01*
X83981071Y-64460214D01*
X84023928Y-64545928D01*
X84066785Y-64588785D01*
X84152499Y-64631642D01*
X84281071Y-64631642D01*
X83595357Y-64031642D02*
X83595357Y-64631642D01*
X83595357Y-64117357D02*
X83552499Y-64074500D01*
X83466785Y-64031642D01*
X83338214Y-64031642D01*
X83252499Y-64074500D01*
X83209642Y-64160214D01*
X83209642Y-64631642D01*
X82395357Y-64631642D02*
X82395357Y-63731642D01*
X82395357Y-64588785D02*
X82481071Y-64631642D01*
X82652499Y-64631642D01*
X82738214Y-64588785D01*
X82781071Y-64545928D01*
X82823928Y-64460214D01*
X82823928Y-64203071D01*
X82781071Y-64117357D01*
X82738214Y-64074500D01*
X82652499Y-64031642D01*
X82481071Y-64031642D01*
X82395357Y-64074500D01*
X81923928Y-64588785D02*
X81923928Y-64631642D01*
X81966785Y-64717357D01*
X82009642Y-64760214D01*
X80681071Y-63731642D02*
X80509642Y-63731642D01*
X80423928Y-63774500D01*
X80338214Y-63860214D01*
X80295357Y-64031642D01*
X80295357Y-64331642D01*
X80338214Y-64503071D01*
X80423928Y-64588785D01*
X80509642Y-64631642D01*
X80681071Y-64631642D01*
X80766785Y-64588785D01*
X80852499Y-64503071D01*
X80895357Y-64331642D01*
X80895357Y-64031642D01*
X80852499Y-63860214D01*
X80766785Y-63774500D01*
X80681071Y-63731642D01*
X79523928Y-64031642D02*
X79523928Y-64631642D01*
X79909642Y-64031642D02*
X79909642Y-64503071D01*
X79866785Y-64588785D01*
X79781071Y-64631642D01*
X79652499Y-64631642D01*
X79566785Y-64588785D01*
X79523928Y-64545928D01*
X79223928Y-64031642D02*
X78881071Y-64031642D01*
X79095357Y-63731642D02*
X79095357Y-64503071D01*
X79052499Y-64588785D01*
X78966785Y-64631642D01*
X78881071Y-64631642D01*
X78623928Y-64588785D02*
X78538214Y-64631642D01*
X78366785Y-64631642D01*
X78281071Y-64588785D01*
X78238214Y-64503071D01*
X78238214Y-64460214D01*
X78281071Y-64374500D01*
X78366785Y-64331642D01*
X78495357Y-64331642D01*
X78581071Y-64288785D01*
X78623928Y-64203071D01*
X78623928Y-64160214D01*
X78581071Y-64074500D01*
X78495357Y-64031642D01*
X78366785Y-64031642D01*
X78281071Y-64074500D01*
X77852499Y-64631642D02*
X77852499Y-64031642D01*
X77852499Y-63731642D02*
X77895357Y-63774500D01*
X77852499Y-63817357D01*
X77809642Y-63774500D01*
X77852499Y-63731642D01*
X77852499Y-63817357D01*
X77038214Y-64631642D02*
X77038214Y-63731642D01*
X77038214Y-64588785D02*
X77123928Y-64631642D01*
X77295357Y-64631642D01*
X77381071Y-64588785D01*
X77423928Y-64545928D01*
X77466785Y-64460214D01*
X77466785Y-64203071D01*
X77423928Y-64117357D01*
X77381071Y-64074500D01*
X77295357Y-64031642D01*
X77123928Y-64031642D01*
X77038214Y-64074500D01*
X76266785Y-64588785D02*
X76352499Y-64631642D01*
X76523928Y-64631642D01*
X76609642Y-64588785D01*
X76652499Y-64503071D01*
X76652499Y-64160214D01*
X76609642Y-64074500D01*
X76523928Y-64031642D01*
X76352499Y-64031642D01*
X76266785Y-64074500D01*
X76223928Y-64160214D01*
X76223928Y-64245928D01*
X76652499Y-64331642D01*
X74981071Y-63731642D02*
X74809642Y-63731642D01*
X74723928Y-63774500D01*
X74638214Y-63860214D01*
X74595357Y-64031642D01*
X74595357Y-64331642D01*
X74638214Y-64503071D01*
X74723928Y-64588785D01*
X74809642Y-64631642D01*
X74981071Y-64631642D01*
X75066785Y-64588785D01*
X75152499Y-64503071D01*
X75195357Y-64331642D01*
X75195357Y-64031642D01*
X75152499Y-63860214D01*
X75066785Y-63774500D01*
X74981071Y-63731642D01*
X74209642Y-64031642D02*
X74209642Y-64931642D01*
X74209642Y-64074500D02*
X74123928Y-64031642D01*
X73952499Y-64031642D01*
X73866785Y-64074500D01*
X73823928Y-64117357D01*
X73781071Y-64203071D01*
X73781071Y-64460214D01*
X73823928Y-64545928D01*
X73866785Y-64588785D01*
X73952499Y-64631642D01*
X74123928Y-64631642D01*
X74209642Y-64588785D01*
X73052499Y-64588785D02*
X73138214Y-64631642D01*
X73309642Y-64631642D01*
X73395357Y-64588785D01*
X73438214Y-64503071D01*
X73438214Y-64160214D01*
X73395357Y-64074500D01*
X73309642Y-64031642D01*
X73138214Y-64031642D01*
X73052499Y-64074500D01*
X73009642Y-64160214D01*
X73009642Y-64245928D01*
X73438214Y-64331642D01*
X72623928Y-64031642D02*
X72623928Y-64631642D01*
X72623928Y-64117357D02*
X72581071Y-64074500D01*
X72495357Y-64031642D01*
X72366785Y-64031642D01*
X72281071Y-64074500D01*
X72238214Y-64160214D01*
X72238214Y-64631642D01*
X70781071Y-64588785D02*
X70866785Y-64631642D01*
X71038214Y-64631642D01*
X71123928Y-64588785D01*
X71166785Y-64503071D01*
X71166785Y-64160214D01*
X71123928Y-64074500D01*
X71038214Y-64031642D01*
X70866785Y-64031642D01*
X70781071Y-64074500D01*
X70738214Y-64160214D01*
X70738214Y-64245928D01*
X71166785Y-64331642D01*
X70481071Y-64031642D02*
X70138214Y-64031642D01*
X70352499Y-63731642D02*
X70352499Y-64503071D01*
X70309642Y-64588785D01*
X70223928Y-64631642D01*
X70138214Y-64631642D01*
X68766785Y-64631642D02*
X68766785Y-64160214D01*
X68809642Y-64074500D01*
X68895357Y-64031642D01*
X69066785Y-64031642D01*
X69152499Y-64074500D01*
X68766785Y-64588785D02*
X68852499Y-64631642D01*
X69066785Y-64631642D01*
X69152499Y-64588785D01*
X69195357Y-64503071D01*
X69195357Y-64417357D01*
X69152499Y-64331642D01*
X69066785Y-64288785D01*
X68852499Y-64288785D01*
X68766785Y-64245928D01*
X68209642Y-64631642D02*
X68295357Y-64588785D01*
X68338214Y-64503071D01*
X68338214Y-63731642D01*
%TO.C,G\u002A\u002A\u002A*%
G36*
X82837322Y-59921602D02*
G01*
X82838423Y-60939094D01*
X82625336Y-60939094D01*
X82623376Y-59415520D01*
X81864883Y-60187961D01*
X81823236Y-60230362D01*
X81677938Y-60378104D01*
X81542604Y-60515428D01*
X81420073Y-60639474D01*
X81313181Y-60747380D01*
X81224766Y-60836286D01*
X81157664Y-60903333D01*
X81114713Y-60945658D01*
X81098749Y-60960402D01*
X81098730Y-60960399D01*
X81097198Y-60939276D01*
X81095770Y-60879724D01*
X81094475Y-60785880D01*
X81093346Y-60661881D01*
X81092414Y-60511863D01*
X81091709Y-60339964D01*
X81091263Y-60150321D01*
X81091108Y-59947070D01*
X81091108Y-58933738D01*
X81192324Y-58940233D01*
X81293541Y-58946728D01*
X81299144Y-59701193D01*
X81304748Y-60455658D01*
X82836220Y-58904110D01*
X82837322Y-59921602D01*
G37*
G36*
X103312665Y-60241250D02*
G01*
X103236483Y-60426539D01*
X103125791Y-60592370D01*
X102984280Y-60734480D01*
X102815644Y-60848605D01*
X102623574Y-60930481D01*
X102565037Y-60943284D01*
X102463635Y-60953761D01*
X102344918Y-60957744D01*
X102222774Y-60955227D01*
X102111085Y-60946207D01*
X102023738Y-60930678D01*
X101982698Y-60918791D01*
X101803433Y-60841997D01*
X101647536Y-60734224D01*
X101516782Y-60600403D01*
X101412945Y-60445467D01*
X101337800Y-60274345D01*
X101293120Y-60091970D01*
X101285554Y-59977220D01*
X101499228Y-59977220D01*
X101509781Y-60107366D01*
X101535095Y-60214597D01*
X101552951Y-60259505D01*
X101641870Y-60416652D01*
X101760628Y-60551417D01*
X101902756Y-60657487D01*
X102061784Y-60728550D01*
X102109001Y-60741885D01*
X102294737Y-60768580D01*
X102475922Y-60754996D01*
X102647524Y-60702519D01*
X102804505Y-60612535D01*
X102941833Y-60486427D01*
X102955048Y-60471085D01*
X103038707Y-60355498D01*
X103093429Y-60235861D01*
X103123281Y-60100461D01*
X103132328Y-59937584D01*
X103131430Y-59880499D01*
X103116237Y-59727456D01*
X103078937Y-59598264D01*
X103015220Y-59481247D01*
X102920772Y-59364727D01*
X102850609Y-59296198D01*
X102713725Y-59200674D01*
X102559401Y-59140460D01*
X102380634Y-59112282D01*
X102229928Y-59114305D01*
X102050059Y-59151917D01*
X101887329Y-59226387D01*
X101745780Y-59335145D01*
X101629452Y-59475621D01*
X101542388Y-59645245D01*
X101521537Y-59716118D01*
X101503220Y-59841143D01*
X101499228Y-59977220D01*
X101285554Y-59977220D01*
X101280679Y-59903274D01*
X101302252Y-59713187D01*
X101359613Y-59526641D01*
X101454536Y-59348567D01*
X101559179Y-59220665D01*
X101708440Y-59095700D01*
X101887139Y-58992878D01*
X101935077Y-58971284D01*
X101998271Y-58948263D01*
X102063908Y-58933623D01*
X102145381Y-58924675D01*
X102256079Y-58918725D01*
X102291750Y-58917509D01*
X102469572Y-58921490D01*
X102620773Y-58945405D01*
X102755874Y-58991661D01*
X102885398Y-59062665D01*
X103022536Y-59168397D01*
X103157618Y-59319175D01*
X103259336Y-59492162D01*
X103325663Y-59682774D01*
X103354569Y-59886427D01*
X103352026Y-59937584D01*
X103344024Y-60098538D01*
X103312665Y-60241250D01*
G37*
G36*
X88903710Y-60203943D02*
G01*
X88897953Y-60224585D01*
X88822673Y-60412486D01*
X88713781Y-60581135D01*
X88576194Y-60725278D01*
X88414829Y-60839659D01*
X88234603Y-60919024D01*
X88216884Y-60924372D01*
X88079975Y-60950057D01*
X87906471Y-60959256D01*
X87787729Y-60955568D01*
X87597273Y-60926006D01*
X87428332Y-60864431D01*
X87273745Y-60767852D01*
X87126349Y-60633276D01*
X87112388Y-60618267D01*
X87000582Y-60472290D01*
X86923949Y-60314566D01*
X86879882Y-60138116D01*
X86865885Y-59937584D01*
X87089514Y-59937584D01*
X87089566Y-59974349D01*
X87091013Y-60072601D01*
X87095855Y-60142964D01*
X87105963Y-60196750D01*
X87123211Y-60245269D01*
X87149469Y-60299832D01*
X87196152Y-60378799D01*
X87300448Y-60507992D01*
X87424342Y-60617677D01*
X87556077Y-60696390D01*
X87563358Y-60699603D01*
X87694043Y-60740287D01*
X87843106Y-60761635D01*
X87992578Y-60762246D01*
X88124492Y-60740717D01*
X88129095Y-60739401D01*
X88289336Y-60671728D01*
X88434914Y-60568667D01*
X88558380Y-60436686D01*
X88652287Y-60282255D01*
X88672186Y-60237512D01*
X88691455Y-60181387D01*
X88702599Y-60121264D01*
X88707735Y-60044284D01*
X88708977Y-59937584D01*
X88708378Y-59856687D01*
X88704537Y-59772919D01*
X88695265Y-59709491D01*
X88678436Y-59653518D01*
X88651921Y-59592112D01*
X88556716Y-59428946D01*
X88436281Y-59296738D01*
X88291982Y-59199481D01*
X88122987Y-59136460D01*
X88073928Y-59125414D01*
X87886480Y-59108865D01*
X87705630Y-59131975D01*
X87536440Y-59192459D01*
X87383975Y-59288035D01*
X87253297Y-59416422D01*
X87149469Y-59575335D01*
X87140498Y-59593083D01*
X87117152Y-59644635D01*
X87102252Y-59693550D01*
X87093927Y-59751139D01*
X87090305Y-59828713D01*
X87089514Y-59937584D01*
X86865885Y-59937584D01*
X86865772Y-59935960D01*
X86865806Y-59926600D01*
X86886559Y-59712078D01*
X86944813Y-59516030D01*
X87039419Y-59340608D01*
X87169228Y-59187963D01*
X87333094Y-59060246D01*
X87401372Y-59021690D01*
X87570357Y-58956964D01*
X87755579Y-58920961D01*
X87947467Y-58913654D01*
X88136451Y-58935013D01*
X88312962Y-58985010D01*
X88467430Y-59063617D01*
X88508809Y-59093149D01*
X88622224Y-59192612D01*
X88728076Y-59309290D01*
X88810575Y-59426486D01*
X88863518Y-59540501D01*
X88908012Y-59700447D01*
X88930635Y-59873459D01*
X88930305Y-59937584D01*
X88929748Y-60045852D01*
X88903710Y-60203943D01*
G37*
G36*
X100584249Y-59717961D02*
G01*
X100583788Y-59774907D01*
X100582102Y-59968364D01*
X100580336Y-60125049D01*
X100578200Y-60249596D01*
X100575406Y-60346644D01*
X100571666Y-60420829D01*
X100566692Y-60476788D01*
X100560194Y-60519158D01*
X100551884Y-60552574D01*
X100541474Y-60581675D01*
X100528675Y-60611097D01*
X100449636Y-60739667D01*
X100341681Y-60845433D01*
X100214156Y-60918543D01*
X100193567Y-60926436D01*
X100136456Y-60943232D01*
X100072113Y-60952714D01*
X99988792Y-60956134D01*
X99874749Y-60954746D01*
X99865625Y-60954511D01*
X99761276Y-60950742D01*
X99686906Y-60944321D01*
X99630741Y-60932923D01*
X99581004Y-60914224D01*
X99525919Y-60885899D01*
X99469144Y-60851561D01*
X99383291Y-60778996D01*
X99317365Y-60686641D01*
X99262044Y-60563092D01*
X99252682Y-60537049D01*
X99242127Y-60502664D01*
X99233781Y-60464845D01*
X99227378Y-60418694D01*
X99222654Y-60359313D01*
X99219343Y-60281804D01*
X99217179Y-60181270D01*
X99215900Y-60052812D01*
X99215238Y-59891532D01*
X99214929Y-59692533D01*
X99214178Y-58946728D01*
X99313910Y-58940294D01*
X99413641Y-58933860D01*
X99420453Y-59675445D01*
X99421616Y-59798029D01*
X99423560Y-59973476D01*
X99425736Y-60113866D01*
X99428436Y-60223946D01*
X99431951Y-60308459D01*
X99436574Y-60372152D01*
X99442595Y-60419769D01*
X99450306Y-60456057D01*
X99460000Y-60485759D01*
X99471967Y-60513623D01*
X99537343Y-60618281D01*
X99634209Y-60701785D01*
X99757237Y-60751764D01*
X99906712Y-60768386D01*
X100008879Y-60760705D01*
X100141825Y-60721370D01*
X100249192Y-60649895D01*
X100328324Y-60547671D01*
X100337535Y-60527243D01*
X100345721Y-60498003D01*
X100352428Y-60456836D01*
X100357904Y-60399357D01*
X100362397Y-60321182D01*
X100366156Y-60217928D01*
X100369427Y-60085209D01*
X100372461Y-59918642D01*
X100375504Y-59713842D01*
X100386158Y-58946728D01*
X100590562Y-58933658D01*
X100584249Y-59717961D01*
G37*
G36*
X86013423Y-60939094D02*
G01*
X86013423Y-60050038D01*
X85826000Y-60039352D01*
X85769138Y-60034873D01*
X85595822Y-60002218D01*
X85455289Y-59943050D01*
X85347980Y-59857804D01*
X85274335Y-59746917D01*
X85234796Y-59610823D01*
X85231269Y-59497202D01*
X85438088Y-59497202D01*
X85438271Y-59511747D01*
X85457642Y-59632699D01*
X85508606Y-59725798D01*
X85590721Y-59790194D01*
X85630341Y-59806472D01*
X85726593Y-59830554D01*
X85843493Y-59845561D01*
X86013423Y-59858665D01*
X86013423Y-59143685D01*
X85846065Y-59153373D01*
X85835832Y-59154009D01*
X85688390Y-59175641D01*
X85576490Y-59219432D01*
X85498536Y-59286726D01*
X85452934Y-59378868D01*
X85438088Y-59497202D01*
X85231269Y-59497202D01*
X85229803Y-59449960D01*
X85250976Y-59313348D01*
X85295308Y-59200735D01*
X85365647Y-59111124D01*
X85464912Y-59042499D01*
X85596026Y-58992847D01*
X85761908Y-58960151D01*
X85965478Y-58942397D01*
X86226510Y-58929597D01*
X86226510Y-60939094D01*
X86013423Y-60939094D01*
G37*
G36*
X93700546Y-60932076D02*
G01*
X93665513Y-60930509D01*
X93461623Y-60916183D01*
X93291906Y-60893143D01*
X93149465Y-60859371D01*
X93027403Y-60812848D01*
X92918823Y-60751556D01*
X92816829Y-60673477D01*
X92813617Y-60670678D01*
X92723277Y-60567438D01*
X92647072Y-60433226D01*
X92589791Y-60278341D01*
X92556223Y-60113084D01*
X92549419Y-60045286D01*
X92548768Y-59893721D01*
X92761838Y-59893721D01*
X92770444Y-60092607D01*
X92776019Y-60132457D01*
X92819794Y-60302802D01*
X92893006Y-60442648D01*
X92996857Y-60553356D01*
X93132553Y-60636286D01*
X93301295Y-60692800D01*
X93312071Y-60695220D01*
X93406550Y-60710555D01*
X93518504Y-60721454D01*
X93625965Y-60725691D01*
X93812416Y-60726006D01*
X93812416Y-59143798D01*
X93572693Y-59154127D01*
X93465942Y-59161004D01*
X93315847Y-59182544D01*
X93192001Y-59219454D01*
X93084965Y-59274916D01*
X92985301Y-59352112D01*
X92924530Y-59415912D01*
X92840131Y-59551065D01*
X92785483Y-59711771D01*
X92761838Y-59893721D01*
X92548768Y-59893721D01*
X92548456Y-59821155D01*
X92582509Y-59619249D01*
X92650764Y-59440887D01*
X92752408Y-59287386D01*
X92886628Y-59160064D01*
X93052611Y-59060239D01*
X93249545Y-58989230D01*
X93261113Y-58986403D01*
X93338678Y-58972980D01*
X93445261Y-58960443D01*
X93569628Y-58949951D01*
X93700546Y-58942664D01*
X94025504Y-58929468D01*
X94025504Y-60945699D01*
X93700546Y-60932076D01*
G37*
G36*
X96387704Y-58924277D02*
G01*
X96530086Y-58963263D01*
X96643820Y-59031846D01*
X96727110Y-59128392D01*
X96778158Y-59251272D01*
X96795170Y-59398854D01*
X96787604Y-59497777D01*
X96758534Y-59598766D01*
X96703857Y-59689512D01*
X96619580Y-59774910D01*
X96501709Y-59859857D01*
X96346250Y-59949249D01*
X96205722Y-60030501D01*
X96082169Y-60118037D01*
X95993699Y-60201383D01*
X95943547Y-60277899D01*
X95939610Y-60288411D01*
X95925360Y-60370192D01*
X95927952Y-60465924D01*
X95945642Y-60557288D01*
X95976686Y-60625966D01*
X95999343Y-60653466D01*
X96089358Y-60720371D01*
X96204396Y-60757805D01*
X96337970Y-60763303D01*
X96347774Y-60762453D01*
X96484151Y-60733907D01*
X96592437Y-60675223D01*
X96676418Y-60584398D01*
X96726245Y-60511071D01*
X96792905Y-60567161D01*
X96806579Y-60579306D01*
X96844382Y-60621474D01*
X96859564Y-60653259D01*
X96859341Y-60656919D01*
X96839366Y-60700263D01*
X96793538Y-60756307D01*
X96731084Y-60816115D01*
X96661231Y-60870748D01*
X96593205Y-60911269D01*
X96567607Y-60923042D01*
X96513629Y-60943007D01*
X96457331Y-60953797D01*
X96385326Y-60957329D01*
X96284228Y-60955520D01*
X96242092Y-60953771D01*
X96114333Y-60940727D01*
X96014553Y-60914229D01*
X95932002Y-60870518D01*
X95855931Y-60805840D01*
X95821401Y-60768615D01*
X95764073Y-60682966D01*
X95729890Y-60583198D01*
X95713415Y-60455964D01*
X95711134Y-60414091D01*
X95711842Y-60334152D01*
X95723407Y-60272047D01*
X95748259Y-60210659D01*
X95756256Y-60194918D01*
X95825038Y-60094802D01*
X95927009Y-59992431D01*
X96064943Y-59885336D01*
X96241611Y-59771044D01*
X96318797Y-59723002D01*
X96418626Y-59655148D01*
X96492614Y-59597149D01*
X96534606Y-59553572D01*
X96564607Y-59494255D01*
X96583340Y-59398413D01*
X96573950Y-59303118D01*
X96536355Y-59224033D01*
X96503735Y-59189442D01*
X96414308Y-59135055D01*
X96308592Y-59110657D01*
X96196307Y-59116349D01*
X96087171Y-59152230D01*
X95990904Y-59218401D01*
X95942048Y-59264299D01*
X95806552Y-59128803D01*
X95869593Y-59061714D01*
X95907060Y-59025508D01*
X96003420Y-58962327D01*
X96119072Y-58926741D01*
X96262920Y-58915441D01*
X96387704Y-58924277D01*
G37*
G36*
X84585739Y-60939094D02*
G01*
X83584228Y-60939094D01*
X83584228Y-60726006D01*
X84372651Y-60726006D01*
X84372651Y-59958892D01*
X83584228Y-59958892D01*
X83584228Y-59768075D01*
X83973113Y-59762267D01*
X84361997Y-59756459D01*
X84373821Y-59149161D01*
X83584228Y-59149161D01*
X83584228Y-58936073D01*
X84585739Y-58936073D01*
X84585739Y-60939094D01*
G37*
G36*
X98585571Y-59126410D02*
G01*
X98127433Y-59138506D01*
X98121875Y-60038800D01*
X98116316Y-60939094D01*
X97904154Y-60939094D01*
X97898596Y-60038800D01*
X97893037Y-59138506D01*
X97663968Y-59132458D01*
X97434900Y-59126410D01*
X97434900Y-58936073D01*
X98585571Y-58936073D01*
X98585571Y-59126410D01*
G37*
G36*
X108478125Y-59191803D02*
G01*
X108461188Y-59352305D01*
X108434434Y-59486619D01*
X108410345Y-59568912D01*
X108304270Y-59838117D01*
X108164284Y-60084208D01*
X107993172Y-60304757D01*
X107793716Y-60497338D01*
X107568700Y-60659523D01*
X107320907Y-60788888D01*
X107053120Y-60883005D01*
X106768121Y-60939447D01*
X106647876Y-60949249D01*
X106421162Y-60944422D01*
X106187449Y-60913504D01*
X105961726Y-60858823D01*
X105758981Y-60782707D01*
X105690467Y-60749948D01*
X105516405Y-60653154D01*
X105359347Y-60541630D01*
X105201758Y-60403442D01*
X105117239Y-60318483D01*
X104938833Y-60098698D01*
X104798467Y-59859782D01*
X104696079Y-59601597D01*
X104631610Y-59324004D01*
X104605000Y-59026864D01*
X104603206Y-58955367D01*
X104807672Y-58955367D01*
X104809411Y-59011798D01*
X104815839Y-59103336D01*
X104824072Y-59187498D01*
X104876854Y-59456597D01*
X104967654Y-59709887D01*
X105094788Y-59944083D01*
X105256570Y-60155902D01*
X105451317Y-60342059D01*
X105480100Y-60364560D01*
X105597525Y-60443340D01*
X105736933Y-60522220D01*
X105884635Y-60594365D01*
X106026943Y-60652937D01*
X106150168Y-60691099D01*
X106374672Y-60729151D01*
X106639844Y-60736184D01*
X106899087Y-60702366D01*
X107149284Y-60628656D01*
X107387323Y-60516017D01*
X107610087Y-60365409D01*
X107814462Y-60177792D01*
X107859431Y-60128356D01*
X108020897Y-59913076D01*
X108143847Y-59680287D01*
X108227542Y-59432048D01*
X108271243Y-59170417D01*
X108274211Y-58897454D01*
X108265094Y-58797251D01*
X108213379Y-58533290D01*
X108124314Y-58286107D01*
X108000291Y-58058538D01*
X107843701Y-57853422D01*
X107656936Y-57673596D01*
X107442389Y-57521896D01*
X107202451Y-57401161D01*
X106939514Y-57314228D01*
X106857177Y-57295105D01*
X106781492Y-57282698D01*
X106702284Y-57276761D01*
X106606572Y-57276338D01*
X106481376Y-57280471D01*
X106465528Y-57281169D01*
X106317409Y-57290765D01*
X106227405Y-57300797D01*
X106194739Y-57304438D01*
X106101808Y-57321424D01*
X106042904Y-57340958D01*
X106022316Y-57362277D01*
X106024675Y-57371424D01*
X106044045Y-57410431D01*
X106076577Y-57463445D01*
X106090312Y-57484985D01*
X106168092Y-57647757D01*
X106216450Y-57829063D01*
X106232955Y-58016049D01*
X106215173Y-58195863D01*
X106211847Y-58211298D01*
X106148617Y-58404102D01*
X106052748Y-58573986D01*
X105928692Y-58718594D01*
X105780899Y-58835567D01*
X105613821Y-58922547D01*
X105431908Y-58977177D01*
X105239614Y-58997098D01*
X105041388Y-58979954D01*
X104841683Y-58923385D01*
X104841151Y-58923180D01*
X104822486Y-58918412D01*
X104811678Y-58926690D01*
X104807672Y-58955367D01*
X104603206Y-58955367D01*
X104598991Y-58787369D01*
X104500898Y-58678266D01*
X104473710Y-58646736D01*
X104363280Y-58483910D01*
X104285580Y-58305299D01*
X104243555Y-58119306D01*
X104241330Y-57998490D01*
X104457430Y-57998490D01*
X104459192Y-58087883D01*
X104467556Y-58166089D01*
X104485953Y-58234805D01*
X104517781Y-58311667D01*
X104551518Y-58379232D01*
X104588646Y-58442043D01*
X104617900Y-58479710D01*
X104639114Y-58497865D01*
X104658099Y-58502638D01*
X104670299Y-58475509D01*
X104750942Y-58258147D01*
X104880322Y-58004111D01*
X105038136Y-57775253D01*
X105221354Y-57575839D01*
X105426947Y-57410133D01*
X105461755Y-57385956D01*
X105524934Y-57336418D01*
X105550067Y-57300797D01*
X105536088Y-57274338D01*
X105481931Y-57252286D01*
X105386529Y-57229885D01*
X105360133Y-57224936D01*
X105190964Y-57217061D01*
X105024692Y-57247659D01*
X104867734Y-57313355D01*
X104726504Y-57410774D01*
X104607420Y-57536542D01*
X104516895Y-57687285D01*
X104489411Y-57752503D01*
X104469410Y-57821271D01*
X104459866Y-57897422D01*
X104457430Y-57998490D01*
X104241330Y-57998490D01*
X104240148Y-57934331D01*
X104246953Y-57876946D01*
X104294680Y-57679113D01*
X104375078Y-57501785D01*
X104483903Y-57347378D01*
X104616912Y-57218310D01*
X104769861Y-57116998D01*
X104938505Y-57045858D01*
X105118600Y-57007308D01*
X105305904Y-57003765D01*
X105496171Y-57037646D01*
X105685157Y-57111367D01*
X105827445Y-57183259D01*
X106004788Y-57130326D01*
X106008321Y-57129279D01*
X106172424Y-57092825D01*
X106361114Y-57070206D01*
X106558823Y-57062078D01*
X106749980Y-57069093D01*
X106919017Y-57091906D01*
X107161498Y-57155919D01*
X107421957Y-57263685D01*
X107661248Y-57408141D01*
X107880876Y-57590065D01*
X108045465Y-57766523D01*
X108214144Y-58003225D01*
X108346706Y-58262461D01*
X108442816Y-58543662D01*
X108445328Y-58553391D01*
X108468845Y-58685908D01*
X108482071Y-58845331D01*
X108482991Y-58897454D01*
X108485125Y-59018387D01*
X108478125Y-59191803D01*
G37*
G36*
X91345931Y-58941008D02*
G01*
X91841359Y-58946728D01*
X91846914Y-59916275D01*
X91847703Y-60079690D01*
X91848229Y-60269495D01*
X91848287Y-60442996D01*
X91847896Y-60595808D01*
X91847077Y-60723546D01*
X91845850Y-60821823D01*
X91844236Y-60886256D01*
X91842256Y-60912458D01*
X91829049Y-60921230D01*
X91792928Y-60928223D01*
X91730052Y-60933295D01*
X91636459Y-60936657D01*
X91508187Y-60938519D01*
X91341273Y-60939094D01*
X90850504Y-60939094D01*
X90850504Y-60726006D01*
X91638926Y-60726006D01*
X91638926Y-59958892D01*
X90850504Y-59958892D01*
X90850504Y-59768075D01*
X91628272Y-59756459D01*
X91634184Y-59452810D01*
X91640097Y-59149161D01*
X90850504Y-59149161D01*
X90850504Y-58935288D01*
X91345931Y-58941008D01*
G37*
G36*
X94984396Y-60939094D02*
G01*
X94771309Y-60939094D01*
X94771309Y-58936073D01*
X94984396Y-58936073D01*
X94984396Y-60939094D01*
G37*
D11*
%TO.C,J2*%
X57070000Y-54790000D02*
X57070000Y-56120000D01*
X59670000Y-56120000D02*
X107990000Y-56120000D01*
X57070000Y-56120000D02*
X58400000Y-56120000D01*
X57070000Y-50920000D02*
X57070000Y-53520000D01*
X59670000Y-53520000D02*
X59670000Y-56120000D01*
X57070000Y-50920000D02*
X107990000Y-50920000D01*
X57070000Y-53520000D02*
X59670000Y-53520000D01*
X107990000Y-50920000D02*
X107990000Y-56120000D01*
%TD*%
M02*
