%TF.GenerationSoftware,KiCad,Pcbnew,7.0.9*%
%TF.CreationDate,2024-04-30T18:34:20-07:00*%
%TF.ProjectId,WSPRzero,57535052-7a65-4726-9f2e-6b696361645f,rev?*%
%TF.SameCoordinates,Original*%
%TF.FileFunction,Soldermask,Top*%
%TF.FilePolarity,Negative*%
%FSLAX46Y46*%
G04 Gerber Fmt 4.6, Leading zero omitted, Abs format (unit mm)*
G04 Created by KiCad (PCBNEW 7.0.9) date 2024-04-30 18:34:20*
%MOMM*%
%LPD*%
G01*
G04 APERTURE LIST*
G04 Aperture macros list*
%AMRoundRect*
0 Rectangle with rounded corners*
0 $1 Rounding radius*
0 $2 $3 $4 $5 $6 $7 $8 $9 X,Y pos of 4 corners*
0 Add a 4 corners polygon primitive as box body*
4,1,4,$2,$3,$4,$5,$6,$7,$8,$9,$2,$3,0*
0 Add four circle primitives for the rounded corners*
1,1,$1+$1,$2,$3*
1,1,$1+$1,$4,$5*
1,1,$1+$1,$6,$7*
1,1,$1+$1,$8,$9*
0 Add four rect primitives between the rounded corners*
20,1,$1+$1,$2,$3,$4,$5,0*
20,1,$1+$1,$4,$5,$6,$7,0*
20,1,$1+$1,$6,$7,$8,$9,0*
20,1,$1+$1,$8,$9,$2,$3,0*%
G04 Aperture macros list end*
%ADD10C,5.600000*%
%ADD11RoundRect,0.218750X0.218750X0.381250X-0.218750X0.381250X-0.218750X-0.381250X0.218750X-0.381250X0*%
%ADD12RoundRect,0.200000X0.275000X-0.200000X0.275000X0.200000X-0.275000X0.200000X-0.275000X-0.200000X0*%
%ADD13R,1.350000X1.350000*%
%ADD14O,1.350000X1.350000*%
%ADD15RoundRect,0.225000X-0.250000X0.225000X-0.250000X-0.225000X0.250000X-0.225000X0.250000X0.225000X0*%
%ADD16C,0.787400*%
%ADD17RoundRect,0.225000X0.225000X0.250000X-0.225000X0.250000X-0.225000X-0.250000X0.225000X-0.250000X0*%
%ADD18RoundRect,0.200000X-0.200000X-0.275000X0.200000X-0.275000X0.200000X0.275000X-0.200000X0.275000X0*%
%ADD19C,1.500000*%
%ADD20C,2.050000*%
%ADD21C,2.250000*%
%ADD22RoundRect,0.200000X-0.275000X0.200000X-0.275000X-0.200000X0.275000X-0.200000X0.275000X0.200000X0*%
%ADD23RoundRect,0.225000X0.250000X-0.225000X0.250000X0.225000X-0.250000X0.225000X-0.250000X-0.225000X0*%
%ADD24RoundRect,0.150000X-0.587500X-0.150000X0.587500X-0.150000X0.587500X0.150000X-0.587500X0.150000X0*%
%ADD25R,1.100000X1.100000*%
%ADD26R,2.000000X1.300000*%
%ADD27R,2.000000X2.000000*%
%ADD28RoundRect,0.243750X0.243750X0.456250X-0.243750X0.456250X-0.243750X-0.456250X0.243750X-0.456250X0*%
%ADD29RoundRect,0.200000X0.200000X0.275000X-0.200000X0.275000X-0.200000X-0.275000X0.200000X-0.275000X0*%
%ADD30R,1.700000X1.700000*%
%ADD31O,1.700000X1.700000*%
%ADD32RoundRect,0.250000X-0.475000X0.250000X-0.475000X-0.250000X0.475000X-0.250000X0.475000X0.250000X0*%
%ADD33R,1.800000X1.100000*%
G04 APERTURE END LIST*
D10*
%TO.C,H3*%
X111500000Y-76500000D03*
%TD*%
D11*
%TO.C,L12*%
X73812500Y-72500000D03*
X71687500Y-72500000D03*
%TD*%
D12*
%TO.C,R2*%
X94750000Y-61825000D03*
X94750000Y-60175000D03*
%TD*%
D13*
%TO.C,J4*%
X93750000Y-69000000D03*
D14*
X91750000Y-69000000D03*
%TD*%
D15*
%TO.C,C1*%
X100500000Y-60225000D03*
X100500000Y-61775000D03*
%TD*%
D11*
%TO.C,L16*%
X66812500Y-69000000D03*
X64687500Y-69000000D03*
%TD*%
D16*
%TO.C,H6*%
X104460000Y-79746000D03*
X105730000Y-79746000D03*
X107000000Y-79746000D03*
X108270000Y-79746000D03*
X109540000Y-79746000D03*
%TD*%
D15*
%TO.C,C7*%
X89750000Y-64475000D03*
X89750000Y-66025000D03*
%TD*%
D13*
%TO.C,J9*%
X59000000Y-69000000D03*
D14*
X57000000Y-69000000D03*
%TD*%
D16*
%TO.C,H7*%
X60460000Y-79746000D03*
X61730000Y-79746000D03*
X63000000Y-79746000D03*
X64270000Y-79746000D03*
X65540000Y-79746000D03*
%TD*%
D17*
%TO.C,C14*%
X84025000Y-72500000D03*
X82475000Y-72500000D03*
%TD*%
D18*
%TO.C,R6*%
X84175000Y-62500000D03*
X85825000Y-62500000D03*
%TD*%
D13*
%TO.C,J1*%
X93750000Y-72500000D03*
D14*
X91750000Y-72500000D03*
%TD*%
D13*
%TO.C,J7*%
X88500000Y-69000000D03*
D14*
X86500000Y-69000000D03*
%TD*%
D11*
%TO.C,L14*%
X80812500Y-69000000D03*
X78687500Y-69000000D03*
%TD*%
D17*
%TO.C,C20*%
X70025000Y-69000000D03*
X68475000Y-69000000D03*
%TD*%
D19*
%TO.C,TP1*%
X97000000Y-65750000D03*
%TD*%
D20*
%TO.C,J3*%
X55000000Y-61250000D03*
D21*
X57540000Y-58710000D03*
X52460000Y-58710000D03*
X57540000Y-63790000D03*
X52460000Y-63790000D03*
%TD*%
D10*
%TO.C,H2*%
X111500000Y-53500000D03*
%TD*%
D22*
%TO.C,R1*%
X96500000Y-60175000D03*
X96500000Y-61825000D03*
%TD*%
D10*
%TO.C,H1*%
X53500000Y-53500000D03*
%TD*%
D23*
%TO.C,C13*%
X64750000Y-57725000D03*
X64750000Y-59275000D03*
%TD*%
D24*
%TO.C,Q1*%
X85812500Y-64300000D03*
X85812500Y-66200000D03*
X87687500Y-65250000D03*
%TD*%
D11*
%TO.C,L11*%
X80812500Y-72500000D03*
X78687500Y-72500000D03*
%TD*%
D10*
%TO.C,H5*%
X53500000Y-102500000D03*
%TD*%
D11*
%TO.C,L13*%
X66812500Y-72500000D03*
X64687500Y-72500000D03*
%TD*%
D10*
%TO.C,H4*%
X111500000Y-102500000D03*
%TD*%
D25*
%TO.C,D1*%
X60750000Y-57850000D03*
X60750000Y-60650000D03*
%TD*%
D17*
%TO.C,C8*%
X85775000Y-59000000D03*
X84225000Y-59000000D03*
%TD*%
D22*
%TO.C,R7*%
X63000000Y-57675000D03*
X63000000Y-59325000D03*
%TD*%
D26*
%TO.C,R3*%
X92250000Y-61900000D03*
D27*
X88250000Y-60750000D03*
D26*
X92250000Y-59600000D03*
%TD*%
D13*
%TO.C,J5*%
X88500000Y-72500000D03*
D14*
X86500000Y-72500000D03*
%TD*%
D19*
%TO.C,TP3*%
X64750000Y-63250000D03*
%TD*%
D17*
%TO.C,C21*%
X63025000Y-68999999D03*
X61475000Y-68999999D03*
%TD*%
D28*
%TO.C,LED1*%
X75687500Y-57750000D03*
X73812500Y-57750000D03*
%TD*%
D29*
%TO.C,R5*%
X85825000Y-60750000D03*
X84175000Y-60750000D03*
%TD*%
D11*
%TO.C,L2*%
X98250000Y-72500000D03*
X96125000Y-72500000D03*
%TD*%
D29*
%TO.C,R4*%
X71575000Y-57750000D03*
X69925000Y-57750000D03*
%TD*%
D17*
%TO.C,C17*%
X63025000Y-72500000D03*
X61475000Y-72500000D03*
%TD*%
D30*
%TO.C,J6*%
X112275000Y-71275000D03*
D31*
X109735000Y-71275000D03*
X112275000Y-68735000D03*
X109735000Y-68735000D03*
X112275000Y-66195000D03*
X109735000Y-66195000D03*
%TD*%
D32*
%TO.C,C2*%
X98500000Y-60300000D03*
X98500000Y-62200000D03*
%TD*%
D17*
%TO.C,C18*%
X84025000Y-69000000D03*
X82475000Y-69000000D03*
%TD*%
D33*
%TO.C,SW1*%
X68900000Y-62150000D03*
X75100000Y-62150000D03*
X68900000Y-65850000D03*
X75100000Y-65850000D03*
%TD*%
D11*
%TO.C,L3*%
X98250000Y-69000000D03*
X96125000Y-69000000D03*
%TD*%
%TO.C,L15*%
X73812500Y-69000000D03*
X71687500Y-69000000D03*
%TD*%
D13*
%TO.C,J8*%
X59000000Y-72500000D03*
D14*
X57000000Y-72500000D03*
%TD*%
D17*
%TO.C,C19*%
X77025000Y-68999999D03*
X75475000Y-68999999D03*
%TD*%
%TO.C,C15*%
X77025000Y-72500000D03*
X75475000Y-72500000D03*
%TD*%
%TO.C,C16*%
X70025000Y-72500000D03*
X68475000Y-72500000D03*
%TD*%
D30*
%TO.C,J2*%
X58400000Y-54790000D03*
D31*
X58400000Y-52250000D03*
X60940000Y-54790000D03*
X60940000Y-52250000D03*
X63480000Y-54790000D03*
X63480000Y-52250000D03*
X66020000Y-54790000D03*
X66020000Y-52250000D03*
X68560000Y-54790000D03*
X68560000Y-52250000D03*
X71100000Y-54790000D03*
X71100000Y-52250000D03*
X73640000Y-54790000D03*
X73640000Y-52250000D03*
X76180000Y-54790000D03*
X76180000Y-52250000D03*
X78720000Y-54790000D03*
X78720000Y-52250000D03*
X81260000Y-54790000D03*
X81260000Y-52250000D03*
X83800000Y-54790000D03*
X83800000Y-52250000D03*
X86340000Y-54790000D03*
X86340000Y-52250000D03*
X88880000Y-54790000D03*
X88880000Y-52250000D03*
X91420000Y-54790000D03*
X91420000Y-52250000D03*
X93960000Y-54790000D03*
X93960000Y-52250000D03*
X96500000Y-54790000D03*
X96500000Y-52250000D03*
X99040000Y-54790000D03*
X99040000Y-52250000D03*
X101580000Y-54790000D03*
X101580000Y-52250000D03*
X104120000Y-54790000D03*
X104120000Y-52250000D03*
X106660000Y-54790000D03*
X106660000Y-52250000D03*
%TD*%
M02*
