%TF.GenerationSoftware,KiCad,Pcbnew,(6.0.1)*%
%TF.CreationDate,2022-10-10T15:56:49-07:00*%
%TF.ProjectId,WSPR40,57535052-3430-42e6-9b69-6361645f7063,rev?*%
%TF.SameCoordinates,Original*%
%TF.FileFunction,Soldermask,Top*%
%TF.FilePolarity,Negative*%
%FSLAX46Y46*%
G04 Gerber Fmt 4.6, Leading zero omitted, Abs format (unit mm)*
G04 Created by KiCad (PCBNEW (6.0.1)) date 2022-10-10 15:56:49*
%MOMM*%
%LPD*%
G01*
G04 APERTURE LIST*
G04 Aperture macros list*
%AMRoundRect*
0 Rectangle with rounded corners*
0 $1 Rounding radius*
0 $2 $3 $4 $5 $6 $7 $8 $9 X,Y pos of 4 corners*
0 Add a 4 corners polygon primitive as box body*
4,1,4,$2,$3,$4,$5,$6,$7,$8,$9,$2,$3,0*
0 Add four circle primitives for the rounded corners*
1,1,$1+$1,$2,$3*
1,1,$1+$1,$4,$5*
1,1,$1+$1,$6,$7*
1,1,$1+$1,$8,$9*
0 Add four rect primitives between the rounded corners*
20,1,$1+$1,$2,$3,$4,$5,0*
20,1,$1+$1,$4,$5,$6,$7,0*
20,1,$1+$1,$6,$7,$8,$9,0*
20,1,$1+$1,$8,$9,$2,$3,0*%
G04 Aperture macros list end*
%ADD10RoundRect,0.250000X0.375000X1.075000X-0.375000X1.075000X-0.375000X-1.075000X0.375000X-1.075000X0*%
%ADD11RoundRect,0.250000X0.375000X0.850000X-0.375000X0.850000X-0.375000X-0.850000X0.375000X-0.850000X0*%
%ADD12R,1.350000X1.350000*%
%ADD13O,1.350000X1.350000*%
%ADD14RoundRect,0.225000X0.250000X-0.225000X0.250000X0.225000X-0.250000X0.225000X-0.250000X-0.225000X0*%
%ADD15RoundRect,0.225000X-0.250000X0.225000X-0.250000X-0.225000X0.250000X-0.225000X0.250000X0.225000X0*%
%ADD16RoundRect,0.225000X0.225000X0.250000X-0.225000X0.250000X-0.225000X-0.250000X0.225000X-0.250000X0*%
%ADD17C,5.600000*%
%ADD18RoundRect,0.200000X0.275000X-0.200000X0.275000X0.200000X-0.275000X0.200000X-0.275000X-0.200000X0*%
%ADD19C,0.787400*%
%ADD20RoundRect,0.200000X-0.200000X-0.275000X0.200000X-0.275000X0.200000X0.275000X-0.200000X0.275000X0*%
%ADD21C,1.500000*%
%ADD22C,2.250000*%
%ADD23C,2.050000*%
%ADD24RoundRect,0.200000X-0.275000X0.200000X-0.275000X-0.200000X0.275000X-0.200000X0.275000X0.200000X0*%
%ADD25RoundRect,0.150000X-0.150000X0.587500X-0.150000X-0.587500X0.150000X-0.587500X0.150000X0.587500X0*%
%ADD26R,1.100000X1.100000*%
%ADD27R,2.000000X1.300000*%
%ADD28R,2.000000X2.000000*%
%ADD29RoundRect,0.243750X0.243750X0.456250X-0.243750X0.456250X-0.243750X-0.456250X0.243750X-0.456250X0*%
%ADD30RoundRect,0.200000X0.200000X0.275000X-0.200000X0.275000X-0.200000X-0.275000X0.200000X-0.275000X0*%
%ADD31RoundRect,0.250000X-0.475000X0.250000X-0.475000X-0.250000X0.475000X-0.250000X0.475000X0.250000X0*%
%ADD32R,1.100000X1.800000*%
%ADD33O,1.700000X1.700000*%
%ADD34R,1.700000X1.700000*%
G04 APERTURE END LIST*
D10*
%TO.C,L4*%
X63650000Y-69000000D03*
X60850000Y-69000000D03*
%TD*%
%TO.C,L3*%
X68350000Y-69000000D03*
X71150000Y-69000000D03*
%TD*%
%TO.C,L2*%
X78650000Y-69000000D03*
X75850000Y-69000000D03*
%TD*%
D11*
%TO.C,L1*%
X90100000Y-69000000D03*
X92250000Y-69000000D03*
%TD*%
D12*
%TO.C,J1*%
X111500000Y-65250000D03*
D13*
X111500000Y-67250000D03*
X111500000Y-69250000D03*
X111500000Y-71250000D03*
%TD*%
D14*
%TO.C,C9*%
X64750000Y-59275000D03*
X64750000Y-57725000D03*
%TD*%
D15*
%TO.C,C6*%
X66000000Y-70550000D03*
X66000000Y-69000000D03*
%TD*%
%TO.C,C5*%
X73500000Y-70550000D03*
X73500000Y-69000000D03*
%TD*%
%TO.C,C4*%
X81000000Y-70550000D03*
X81000000Y-69000000D03*
%TD*%
D16*
%TO.C,C3*%
X84475000Y-69000000D03*
X86025000Y-69000000D03*
%TD*%
D17*
%TO.C,H3*%
X111500000Y-76500000D03*
%TD*%
D18*
%TO.C,R2*%
X95000000Y-60175000D03*
X95000000Y-61825000D03*
%TD*%
D15*
%TO.C,C1*%
X100750000Y-61775000D03*
X100750000Y-60225000D03*
%TD*%
D19*
%TO.C,H6*%
X105730000Y-79746000D03*
X104460000Y-79746000D03*
X108270000Y-79746000D03*
X109540000Y-79746000D03*
X107000000Y-79746000D03*
%TD*%
D15*
%TO.C,C7*%
X58500000Y-69000000D03*
X58500000Y-70550000D03*
%TD*%
D19*
%TO.C,H7*%
X63000000Y-79746000D03*
X64270000Y-79746000D03*
X65540000Y-79746000D03*
X61730000Y-79746000D03*
X60460000Y-79746000D03*
%TD*%
D20*
%TO.C,R6*%
X86075000Y-62500000D03*
X84425000Y-62500000D03*
%TD*%
D21*
%TO.C,TP2*%
X96750000Y-69000000D03*
%TD*%
D22*
%TO.C,J3*%
X57540000Y-58710000D03*
X52460000Y-63790000D03*
X57540000Y-63790000D03*
X52460000Y-58710000D03*
D23*
X55000000Y-61250000D03*
%TD*%
D17*
%TO.C,H2*%
X111500000Y-53500000D03*
%TD*%
D21*
%TO.C,TP1*%
X71250000Y-62750000D03*
%TD*%
D24*
%TO.C,R1*%
X96750000Y-61825000D03*
X96750000Y-60175000D03*
%TD*%
D17*
%TO.C,H1*%
X53500000Y-53500000D03*
%TD*%
D25*
%TO.C,Q1*%
X85250000Y-67187500D03*
X84300000Y-65312500D03*
X86200000Y-65312500D03*
%TD*%
D17*
%TO.C,H5*%
X53500000Y-102500000D03*
%TD*%
D21*
%TO.C,TP4*%
X78000000Y-62750000D03*
%TD*%
D17*
%TO.C,H4*%
X111500000Y-102500000D03*
%TD*%
D26*
%TO.C,D1*%
X60750000Y-60650000D03*
X60750000Y-57850000D03*
%TD*%
D16*
%TO.C,C8*%
X84475000Y-59000000D03*
X86025000Y-59000000D03*
%TD*%
D24*
%TO.C,R7*%
X63000000Y-57675000D03*
X63000000Y-59325000D03*
%TD*%
D27*
%TO.C,R3*%
X92500000Y-59600000D03*
D28*
X88500000Y-60750000D03*
D27*
X92500000Y-61900000D03*
%TD*%
D21*
%TO.C,TP3*%
X64750000Y-62750000D03*
%TD*%
D29*
%TO.C,LED1*%
X78187500Y-57500000D03*
X76312500Y-57500000D03*
%TD*%
D30*
%TO.C,R5*%
X84425000Y-60750000D03*
X86075000Y-60750000D03*
%TD*%
%TO.C,R4*%
X74075000Y-57500000D03*
X72425000Y-57500000D03*
%TD*%
D31*
%TO.C,C2*%
X98750000Y-62200000D03*
X98750000Y-60300000D03*
%TD*%
D32*
%TO.C,SW1*%
X107600000Y-64350000D03*
X107600000Y-58150000D03*
X103900000Y-58150000D03*
X103900000Y-64350000D03*
%TD*%
D33*
%TO.C,J2*%
X106660000Y-52250000D03*
X106660000Y-54790000D03*
X104120000Y-52250000D03*
X104120000Y-54790000D03*
X101580000Y-52250000D03*
X101580000Y-54790000D03*
X99040000Y-52250000D03*
X99040000Y-54790000D03*
X96500000Y-52250000D03*
X96500000Y-54790000D03*
X93960000Y-52250000D03*
X93960000Y-54790000D03*
X91420000Y-52250000D03*
X91420000Y-54790000D03*
X88880000Y-52250000D03*
X88880000Y-54790000D03*
X86340000Y-52250000D03*
X86340000Y-54790000D03*
X83800000Y-52250000D03*
X83800000Y-54790000D03*
X81260000Y-52250000D03*
X81260000Y-54790000D03*
X78720000Y-52250000D03*
X78720000Y-54790000D03*
X76180000Y-52250000D03*
X76180000Y-54790000D03*
X73640000Y-52250000D03*
X73640000Y-54790000D03*
X71100000Y-52250000D03*
X71100000Y-54790000D03*
X68560000Y-52250000D03*
X68560000Y-54790000D03*
X66020000Y-52250000D03*
X66020000Y-54790000D03*
X63480000Y-52250000D03*
X63480000Y-54790000D03*
X60940000Y-52250000D03*
X60940000Y-54790000D03*
X58400000Y-52250000D03*
D34*
X58400000Y-54790000D03*
%TD*%
M02*
