%TF.GenerationSoftware,KiCad,Pcbnew,(6.0.1)*%
%TF.CreationDate,2022-08-09T16:04:10-07:00*%
%TF.ProjectId,WSPR3,57535052-332e-46b6-9963-61645f706362,rev?*%
%TF.SameCoordinates,Original*%
%TF.FileFunction,Legend,Bot*%
%TF.FilePolarity,Positive*%
%FSLAX46Y46*%
G04 Gerber Fmt 4.6, Leading zero omitted, Abs format (unit mm)*
G04 Created by KiCad (PCBNEW (6.0.1)) date 2022-08-09 16:04:10*
%MOMM*%
%LPD*%
G01*
G04 APERTURE LIST*
%ADD10C,0.150000*%
%ADD11C,0.120000*%
G04 APERTURE END LIST*
D10*
%TO.C,C23*%
X79014285Y-69285715D02*
X79052380Y-69323810D01*
X79166666Y-69361905D01*
X79242857Y-69361905D01*
X79357142Y-69323810D01*
X79433333Y-69247620D01*
X79471428Y-69171429D01*
X79509523Y-69019048D01*
X79509523Y-68904762D01*
X79471428Y-68752381D01*
X79433333Y-68676191D01*
X79357142Y-68600001D01*
X79242857Y-68561905D01*
X79166666Y-68561905D01*
X79052380Y-68600001D01*
X79014285Y-68638096D01*
X78709523Y-68638096D02*
X78671428Y-68600001D01*
X78595238Y-68561905D01*
X78404761Y-68561905D01*
X78328571Y-68600001D01*
X78290476Y-68638096D01*
X78252380Y-68714286D01*
X78252380Y-68790477D01*
X78290476Y-68904762D01*
X78747619Y-69361905D01*
X78252380Y-69361905D01*
X77985714Y-68561905D02*
X77490476Y-68561905D01*
X77757142Y-68866667D01*
X77642857Y-68866667D01*
X77566666Y-68904762D01*
X77528571Y-68942858D01*
X77490476Y-69019048D01*
X77490476Y-69209524D01*
X77528571Y-69285715D01*
X77566666Y-69323810D01*
X77642857Y-69361905D01*
X77871428Y-69361905D01*
X77947619Y-69323810D01*
X77985714Y-69285715D01*
%TO.C,C3*%
X85633333Y-77285714D02*
X85671428Y-77323809D01*
X85785714Y-77361904D01*
X85861904Y-77361904D01*
X85976190Y-77323809D01*
X86052380Y-77247619D01*
X86090476Y-77171428D01*
X86128571Y-77019047D01*
X86128571Y-76904761D01*
X86090476Y-76752380D01*
X86052380Y-76676190D01*
X85976190Y-76600000D01*
X85861904Y-76561904D01*
X85785714Y-76561904D01*
X85671428Y-76600000D01*
X85633333Y-76638095D01*
X85366666Y-76561904D02*
X84871428Y-76561904D01*
X85138095Y-76866666D01*
X85023809Y-76866666D01*
X84947619Y-76904761D01*
X84909523Y-76942857D01*
X84871428Y-77019047D01*
X84871428Y-77209523D01*
X84909523Y-77285714D01*
X84947619Y-77323809D01*
X85023809Y-77361904D01*
X85252380Y-77361904D01*
X85328571Y-77323809D01*
X85366666Y-77285714D01*
%TO.C,L12*%
X75514285Y-73611904D02*
X75895238Y-73611904D01*
X75895238Y-72811904D01*
X74828571Y-73611904D02*
X75285714Y-73611904D01*
X75057142Y-73611904D02*
X75057142Y-72811904D01*
X75133333Y-72926190D01*
X75209523Y-73002380D01*
X75285714Y-73040476D01*
X74523809Y-72888095D02*
X74485714Y-72850000D01*
X74409523Y-72811904D01*
X74219047Y-72811904D01*
X74142857Y-72850000D01*
X74104761Y-72888095D01*
X74066666Y-72964285D01*
X74066666Y-73040476D01*
X74104761Y-73154761D01*
X74561904Y-73611904D01*
X74066666Y-73611904D01*
%TO.C,L6*%
X75133333Y-77611904D02*
X75514285Y-77611904D01*
X75514285Y-76811904D01*
X74523809Y-76811904D02*
X74676190Y-76811904D01*
X74752380Y-76850000D01*
X74790476Y-76888095D01*
X74866666Y-77002380D01*
X74904761Y-77154761D01*
X74904761Y-77459523D01*
X74866666Y-77535714D01*
X74828571Y-77573809D01*
X74752380Y-77611904D01*
X74600000Y-77611904D01*
X74523809Y-77573809D01*
X74485714Y-77535714D01*
X74447619Y-77459523D01*
X74447619Y-77269047D01*
X74485714Y-77192857D01*
X74523809Y-77154761D01*
X74600000Y-77116666D01*
X74752380Y-77116666D01*
X74828571Y-77154761D01*
X74866666Y-77192857D01*
X74904761Y-77269047D01*
%TO.C,L16*%
X68514285Y-71611904D02*
X68895238Y-71611904D01*
X68895238Y-70811904D01*
X67828571Y-71611904D02*
X68285714Y-71611904D01*
X68057142Y-71611904D02*
X68057142Y-70811904D01*
X68133333Y-70926190D01*
X68209523Y-71002380D01*
X68285714Y-71040476D01*
X67142857Y-70811904D02*
X67295238Y-70811904D01*
X67371428Y-70850000D01*
X67409523Y-70888095D01*
X67485714Y-71002380D01*
X67523809Y-71154761D01*
X67523809Y-71459523D01*
X67485714Y-71535714D01*
X67447619Y-71573809D01*
X67371428Y-71611904D01*
X67219047Y-71611904D01*
X67142857Y-71573809D01*
X67104761Y-71535714D01*
X67066666Y-71459523D01*
X67066666Y-71269047D01*
X67104761Y-71192857D01*
X67142857Y-71154761D01*
X67219047Y-71116666D01*
X67371428Y-71116666D01*
X67447619Y-71154761D01*
X67485714Y-71192857D01*
X67523809Y-71269047D01*
%TO.C,L10*%
X68514285Y-75611904D02*
X68895238Y-75611904D01*
X68895238Y-74811904D01*
X67828571Y-75611904D02*
X68285714Y-75611904D01*
X68057142Y-75611904D02*
X68057142Y-74811904D01*
X68133333Y-74926190D01*
X68209523Y-75002380D01*
X68285714Y-75040476D01*
X67333333Y-74811904D02*
X67257142Y-74811904D01*
X67180952Y-74850000D01*
X67142857Y-74888095D01*
X67104761Y-74964285D01*
X67066666Y-75116666D01*
X67066666Y-75307142D01*
X67104761Y-75459523D01*
X67142857Y-75535714D01*
X67180952Y-75573809D01*
X67257142Y-75611904D01*
X67333333Y-75611904D01*
X67409523Y-75573809D01*
X67447619Y-75535714D01*
X67485714Y-75459523D01*
X67523809Y-75307142D01*
X67523809Y-75116666D01*
X67485714Y-74964285D01*
X67447619Y-74888095D01*
X67409523Y-74850000D01*
X67333333Y-74811904D01*
%TO.C,C14*%
X86014285Y-73285714D02*
X86052380Y-73323809D01*
X86166666Y-73361904D01*
X86242857Y-73361904D01*
X86357142Y-73323809D01*
X86433333Y-73247619D01*
X86471428Y-73171428D01*
X86509523Y-73019047D01*
X86509523Y-72904761D01*
X86471428Y-72752380D01*
X86433333Y-72676190D01*
X86357142Y-72600000D01*
X86242857Y-72561904D01*
X86166666Y-72561904D01*
X86052380Y-72600000D01*
X86014285Y-72638095D01*
X85252380Y-73361904D02*
X85709523Y-73361904D01*
X85480952Y-73361904D02*
X85480952Y-72561904D01*
X85557142Y-72676190D01*
X85633333Y-72752380D01*
X85709523Y-72790476D01*
X84566666Y-72828571D02*
X84566666Y-73361904D01*
X84757142Y-72523809D02*
X84947619Y-73095238D01*
X84452380Y-73095238D01*
%TO.C,L14*%
X82514285Y-71611904D02*
X82895238Y-71611904D01*
X82895238Y-70811904D01*
X81828571Y-71611904D02*
X82285714Y-71611904D01*
X82057142Y-71611904D02*
X82057142Y-70811904D01*
X82133333Y-70926190D01*
X82209523Y-71002380D01*
X82285714Y-71040476D01*
X81142857Y-71078571D02*
X81142857Y-71611904D01*
X81333333Y-70773809D02*
X81523809Y-71345238D01*
X81028571Y-71345238D01*
%TO.C,C20*%
X72014285Y-71285715D02*
X72052380Y-71323810D01*
X72166666Y-71361905D01*
X72242857Y-71361905D01*
X72357142Y-71323810D01*
X72433333Y-71247620D01*
X72471428Y-71171429D01*
X72509523Y-71019048D01*
X72509523Y-70904762D01*
X72471428Y-70752381D01*
X72433333Y-70676191D01*
X72357142Y-70600001D01*
X72242857Y-70561905D01*
X72166666Y-70561905D01*
X72052380Y-70600001D01*
X72014285Y-70638096D01*
X71709523Y-70638096D02*
X71671428Y-70600001D01*
X71595238Y-70561905D01*
X71404761Y-70561905D01*
X71328571Y-70600001D01*
X71290476Y-70638096D01*
X71252380Y-70714286D01*
X71252380Y-70790477D01*
X71290476Y-70904762D01*
X71747619Y-71361905D01*
X71252380Y-71361905D01*
X70757142Y-70561905D02*
X70680952Y-70561905D01*
X70604761Y-70600001D01*
X70566666Y-70638096D01*
X70528571Y-70714286D01*
X70490476Y-70866667D01*
X70490476Y-71057143D01*
X70528571Y-71209524D01*
X70566666Y-71285715D01*
X70604761Y-71323810D01*
X70680952Y-71361905D01*
X70757142Y-71361905D01*
X70833333Y-71323810D01*
X70871428Y-71285715D01*
X70909523Y-71209524D01*
X70947619Y-71057143D01*
X70947619Y-70866667D01*
X70909523Y-70714286D01*
X70871428Y-70638096D01*
X70833333Y-70600001D01*
X70757142Y-70561905D01*
%TO.C,C27*%
X79014285Y-67285714D02*
X79052380Y-67323809D01*
X79166666Y-67361904D01*
X79242857Y-67361904D01*
X79357142Y-67323809D01*
X79433333Y-67247619D01*
X79471428Y-67171428D01*
X79509523Y-67019047D01*
X79509523Y-66904761D01*
X79471428Y-66752380D01*
X79433333Y-66676190D01*
X79357142Y-66600000D01*
X79242857Y-66561904D01*
X79166666Y-66561904D01*
X79052380Y-66600000D01*
X79014285Y-66638095D01*
X78709523Y-66638095D02*
X78671428Y-66600000D01*
X78595238Y-66561904D01*
X78404761Y-66561904D01*
X78328571Y-66600000D01*
X78290476Y-66638095D01*
X78252380Y-66714285D01*
X78252380Y-66790476D01*
X78290476Y-66904761D01*
X78747619Y-67361904D01*
X78252380Y-67361904D01*
X77985714Y-66561904D02*
X77452380Y-66561904D01*
X77795238Y-67361904D01*
%TO.C,C25*%
X65014286Y-69285714D02*
X65052381Y-69323809D01*
X65166667Y-69361904D01*
X65242858Y-69361904D01*
X65357143Y-69323809D01*
X65433334Y-69247619D01*
X65471429Y-69171428D01*
X65509524Y-69019047D01*
X65509524Y-68904761D01*
X65471429Y-68752380D01*
X65433334Y-68676190D01*
X65357143Y-68600000D01*
X65242858Y-68561904D01*
X65166667Y-68561904D01*
X65052381Y-68600000D01*
X65014286Y-68638095D01*
X64709524Y-68638095D02*
X64671429Y-68600000D01*
X64595239Y-68561904D01*
X64404762Y-68561904D01*
X64328572Y-68600000D01*
X64290477Y-68638095D01*
X64252381Y-68714285D01*
X64252381Y-68790476D01*
X64290477Y-68904761D01*
X64747620Y-69361904D01*
X64252381Y-69361904D01*
X63528572Y-68561904D02*
X63909524Y-68561904D01*
X63947620Y-68942857D01*
X63909524Y-68904761D01*
X63833334Y-68866666D01*
X63642858Y-68866666D01*
X63566667Y-68904761D01*
X63528572Y-68942857D01*
X63490477Y-69019047D01*
X63490477Y-69209523D01*
X63528572Y-69285714D01*
X63566667Y-69323809D01*
X63642858Y-69361904D01*
X63833334Y-69361904D01*
X63909524Y-69323809D01*
X63947620Y-69285714D01*
%TO.C,L21*%
X75514285Y-67611904D02*
X75895238Y-67611904D01*
X75895238Y-66811904D01*
X75285714Y-66888095D02*
X75247619Y-66850000D01*
X75171428Y-66811904D01*
X74980952Y-66811904D01*
X74904761Y-66850000D01*
X74866666Y-66888095D01*
X74828571Y-66964285D01*
X74828571Y-67040476D01*
X74866666Y-67154761D01*
X75323809Y-67611904D01*
X74828571Y-67611904D01*
X74066666Y-67611904D02*
X74523809Y-67611904D01*
X74295238Y-67611904D02*
X74295238Y-66811904D01*
X74371428Y-66926190D01*
X74447619Y-67002380D01*
X74523809Y-67040476D01*
%TO.C,C26*%
X86014285Y-67285713D02*
X86052380Y-67323808D01*
X86166666Y-67361903D01*
X86242857Y-67361903D01*
X86357142Y-67323808D01*
X86433333Y-67247618D01*
X86471428Y-67171427D01*
X86509523Y-67019046D01*
X86509523Y-66904760D01*
X86471428Y-66752379D01*
X86433333Y-66676189D01*
X86357142Y-66599999D01*
X86242857Y-66561903D01*
X86166666Y-66561903D01*
X86052380Y-66599999D01*
X86014285Y-66638094D01*
X85709523Y-66638094D02*
X85671428Y-66599999D01*
X85595238Y-66561903D01*
X85404761Y-66561903D01*
X85328571Y-66599999D01*
X85290476Y-66638094D01*
X85252380Y-66714284D01*
X85252380Y-66790475D01*
X85290476Y-66904760D01*
X85747619Y-67361903D01*
X85252380Y-67361903D01*
X84566666Y-66561903D02*
X84719047Y-66561903D01*
X84795238Y-66599999D01*
X84833333Y-66638094D01*
X84909523Y-66752379D01*
X84947619Y-66904760D01*
X84947619Y-67209522D01*
X84909523Y-67285713D01*
X84871428Y-67323808D01*
X84795238Y-67361903D01*
X84642857Y-67361903D01*
X84566666Y-67323808D01*
X84528571Y-67285713D01*
X84490476Y-67209522D01*
X84490476Y-67019046D01*
X84528571Y-66942856D01*
X84566666Y-66904760D01*
X84642857Y-66866665D01*
X84795238Y-66866665D01*
X84871428Y-66904760D01*
X84909523Y-66942856D01*
X84947619Y-67019046D01*
%TO.C,C9*%
X85633333Y-75285714D02*
X85671428Y-75323809D01*
X85785714Y-75361904D01*
X85861904Y-75361904D01*
X85976190Y-75323809D01*
X86052380Y-75247619D01*
X86090476Y-75171428D01*
X86128571Y-75019047D01*
X86128571Y-74904761D01*
X86090476Y-74752380D01*
X86052380Y-74676190D01*
X85976190Y-74600000D01*
X85861904Y-74561904D01*
X85785714Y-74561904D01*
X85671428Y-74600000D01*
X85633333Y-74638095D01*
X85252380Y-75361904D02*
X85100000Y-75361904D01*
X85023809Y-75323809D01*
X84985714Y-75285714D01*
X84909523Y-75171428D01*
X84871428Y-75019047D01*
X84871428Y-74714285D01*
X84909523Y-74638095D01*
X84947619Y-74600000D01*
X85023809Y-74561904D01*
X85176190Y-74561904D01*
X85252380Y-74600000D01*
X85290476Y-74638095D01*
X85328571Y-74714285D01*
X85328571Y-74904761D01*
X85290476Y-74980952D01*
X85252380Y-75019047D01*
X85176190Y-75057142D01*
X85023809Y-75057142D01*
X84947619Y-75019047D01*
X84909523Y-74980952D01*
X84871428Y-74904761D01*
%TO.C,L7*%
X68133333Y-77611904D02*
X68514285Y-77611904D01*
X68514285Y-76811904D01*
X67942857Y-76811904D02*
X67409523Y-76811904D01*
X67752380Y-77611904D01*
%TO.C,C28*%
X72014286Y-67285714D02*
X72052381Y-67323809D01*
X72166667Y-67361904D01*
X72242858Y-67361904D01*
X72357143Y-67323809D01*
X72433334Y-67247619D01*
X72471429Y-67171428D01*
X72509524Y-67019047D01*
X72509524Y-66904761D01*
X72471429Y-66752380D01*
X72433334Y-66676190D01*
X72357143Y-66600000D01*
X72242858Y-66561904D01*
X72166667Y-66561904D01*
X72052381Y-66600000D01*
X72014286Y-66638095D01*
X71709524Y-66638095D02*
X71671429Y-66600000D01*
X71595239Y-66561904D01*
X71404762Y-66561904D01*
X71328572Y-66600000D01*
X71290477Y-66638095D01*
X71252381Y-66714285D01*
X71252381Y-66790476D01*
X71290477Y-66904761D01*
X71747620Y-67361904D01*
X71252381Y-67361904D01*
X70795239Y-66904761D02*
X70871429Y-66866666D01*
X70909524Y-66828571D01*
X70947620Y-66752380D01*
X70947620Y-66714285D01*
X70909524Y-66638095D01*
X70871429Y-66600000D01*
X70795239Y-66561904D01*
X70642858Y-66561904D01*
X70566667Y-66600000D01*
X70528572Y-66638095D01*
X70490477Y-66714285D01*
X70490477Y-66752380D01*
X70528572Y-66828571D01*
X70566667Y-66866666D01*
X70642858Y-66904761D01*
X70795239Y-66904761D01*
X70871429Y-66942857D01*
X70909524Y-66980952D01*
X70947620Y-67057142D01*
X70947620Y-67209523D01*
X70909524Y-67285714D01*
X70871429Y-67323809D01*
X70795239Y-67361904D01*
X70642858Y-67361904D01*
X70566667Y-67323809D01*
X70528572Y-67285714D01*
X70490477Y-67209523D01*
X70490477Y-67057142D01*
X70528572Y-66980952D01*
X70566667Y-66942857D01*
X70642858Y-66904761D01*
%TO.C,L18*%
X75514285Y-69611904D02*
X75895238Y-69611904D01*
X75895238Y-68811904D01*
X74828571Y-69611904D02*
X75285714Y-69611904D01*
X75057142Y-69611904D02*
X75057142Y-68811904D01*
X75133333Y-68926190D01*
X75209523Y-69002380D01*
X75285714Y-69040476D01*
X74371428Y-69154761D02*
X74447619Y-69116666D01*
X74485714Y-69078571D01*
X74523809Y-69002380D01*
X74523809Y-68964285D01*
X74485714Y-68888095D01*
X74447619Y-68850000D01*
X74371428Y-68811904D01*
X74219047Y-68811904D01*
X74142857Y-68850000D01*
X74104761Y-68888095D01*
X74066666Y-68964285D01*
X74066666Y-69002380D01*
X74104761Y-69078571D01*
X74142857Y-69116666D01*
X74219047Y-69154761D01*
X74371428Y-69154761D01*
X74447619Y-69192857D01*
X74485714Y-69230952D01*
X74523809Y-69307142D01*
X74523809Y-69459523D01*
X74485714Y-69535714D01*
X74447619Y-69573809D01*
X74371428Y-69611904D01*
X74219047Y-69611904D01*
X74142857Y-69573809D01*
X74104761Y-69535714D01*
X74066666Y-69459523D01*
X74066666Y-69307142D01*
X74104761Y-69230952D01*
X74142857Y-69192857D01*
X74219047Y-69154761D01*
%TO.C,L20*%
X82514285Y-67611904D02*
X82895238Y-67611904D01*
X82895238Y-66811904D01*
X82285714Y-66888095D02*
X82247619Y-66850000D01*
X82171428Y-66811904D01*
X81980952Y-66811904D01*
X81904761Y-66850000D01*
X81866666Y-66888095D01*
X81828571Y-66964285D01*
X81828571Y-67040476D01*
X81866666Y-67154761D01*
X82323809Y-67611904D01*
X81828571Y-67611904D01*
X81333333Y-66811904D02*
X81257142Y-66811904D01*
X81180952Y-66850000D01*
X81142857Y-66888095D01*
X81104761Y-66964285D01*
X81066666Y-67116666D01*
X81066666Y-67307142D01*
X81104761Y-67459523D01*
X81142857Y-67535714D01*
X81180952Y-67573809D01*
X81257142Y-67611904D01*
X81333333Y-67611904D01*
X81409523Y-67573809D01*
X81447619Y-67535714D01*
X81485714Y-67459523D01*
X81523809Y-67307142D01*
X81523809Y-67116666D01*
X81485714Y-66964285D01*
X81447619Y-66888095D01*
X81409523Y-66850000D01*
X81333333Y-66811904D01*
%TO.C,C4*%
X78633333Y-77285714D02*
X78671428Y-77323809D01*
X78785714Y-77361904D01*
X78861904Y-77361904D01*
X78976190Y-77323809D01*
X79052380Y-77247619D01*
X79090476Y-77171428D01*
X79128571Y-77019047D01*
X79128571Y-76904761D01*
X79090476Y-76752380D01*
X79052380Y-76676190D01*
X78976190Y-76600000D01*
X78861904Y-76561904D01*
X78785714Y-76561904D01*
X78671428Y-76600000D01*
X78633333Y-76638095D01*
X77947619Y-76828571D02*
X77947619Y-77361904D01*
X78138095Y-76523809D02*
X78328571Y-77095238D01*
X77833333Y-77095238D01*
%TO.C,L8*%
X82133333Y-75611904D02*
X82514285Y-75611904D01*
X82514285Y-74811904D01*
X81752380Y-75154761D02*
X81828571Y-75116666D01*
X81866666Y-75078571D01*
X81904761Y-75002380D01*
X81904761Y-74964285D01*
X81866666Y-74888095D01*
X81828571Y-74850000D01*
X81752380Y-74811904D01*
X81600000Y-74811904D01*
X81523809Y-74850000D01*
X81485714Y-74888095D01*
X81447619Y-74964285D01*
X81447619Y-75002380D01*
X81485714Y-75078571D01*
X81523809Y-75116666D01*
X81600000Y-75154761D01*
X81752380Y-75154761D01*
X81828571Y-75192857D01*
X81866666Y-75230952D01*
X81904761Y-75307142D01*
X81904761Y-75459523D01*
X81866666Y-75535714D01*
X81828571Y-75573809D01*
X81752380Y-75611904D01*
X81600000Y-75611904D01*
X81523809Y-75573809D01*
X81485714Y-75535714D01*
X81447619Y-75459523D01*
X81447619Y-75307142D01*
X81485714Y-75230952D01*
X81523809Y-75192857D01*
X81600000Y-75154761D01*
%TO.C,L11*%
X82514285Y-73611904D02*
X82895238Y-73611904D01*
X82895238Y-72811904D01*
X81828571Y-73611904D02*
X82285714Y-73611904D01*
X82057142Y-73611904D02*
X82057142Y-72811904D01*
X82133333Y-72926190D01*
X82209523Y-73002380D01*
X82285714Y-73040476D01*
X81066666Y-73611904D02*
X81523809Y-73611904D01*
X81295238Y-73611904D02*
X81295238Y-72811904D01*
X81371428Y-72926190D01*
X81447619Y-73002380D01*
X81523809Y-73040476D01*
%TO.C,L13*%
X68514285Y-73611904D02*
X68895238Y-73611904D01*
X68895238Y-72811904D01*
X67828571Y-73611904D02*
X68285714Y-73611904D01*
X68057142Y-73611904D02*
X68057142Y-72811904D01*
X68133333Y-72926190D01*
X68209523Y-73002380D01*
X68285714Y-73040476D01*
X67561904Y-72811904D02*
X67066666Y-72811904D01*
X67333333Y-73116666D01*
X67219047Y-73116666D01*
X67142857Y-73154761D01*
X67104761Y-73192857D01*
X67066666Y-73269047D01*
X67066666Y-73459523D01*
X67104761Y-73535714D01*
X67142857Y-73573809D01*
X67219047Y-73611904D01*
X67447619Y-73611904D01*
X67523809Y-73573809D01*
X67561904Y-73535714D01*
%TO.C,L5*%
X82133333Y-77611904D02*
X82514285Y-77611904D01*
X82514285Y-76811904D01*
X81485714Y-76811904D02*
X81866666Y-76811904D01*
X81904761Y-77192857D01*
X81866666Y-77154761D01*
X81790476Y-77116666D01*
X81600000Y-77116666D01*
X81523809Y-77154761D01*
X81485714Y-77192857D01*
X81447619Y-77269047D01*
X81447619Y-77459523D01*
X81485714Y-77535714D01*
X81523809Y-77573809D01*
X81600000Y-77611904D01*
X81790476Y-77611904D01*
X81866666Y-77573809D01*
X81904761Y-77535714D01*
%TO.C,C6*%
X64633333Y-77285714D02*
X64671428Y-77323809D01*
X64785714Y-77361904D01*
X64861904Y-77361904D01*
X64976190Y-77323809D01*
X65052380Y-77247619D01*
X65090476Y-77171428D01*
X65128571Y-77019047D01*
X65128571Y-76904761D01*
X65090476Y-76752380D01*
X65052380Y-76676190D01*
X64976190Y-76600000D01*
X64861904Y-76561904D01*
X64785714Y-76561904D01*
X64671428Y-76600000D01*
X64633333Y-76638095D01*
X63947619Y-76561904D02*
X64100000Y-76561904D01*
X64176190Y-76600000D01*
X64214285Y-76638095D01*
X64290476Y-76752380D01*
X64328571Y-76904761D01*
X64328571Y-77209523D01*
X64290476Y-77285714D01*
X64252380Y-77323809D01*
X64176190Y-77361904D01*
X64023809Y-77361904D01*
X63947619Y-77323809D01*
X63909523Y-77285714D01*
X63871428Y-77209523D01*
X63871428Y-77019047D01*
X63909523Y-76942857D01*
X63947619Y-76904761D01*
X64023809Y-76866666D01*
X64176190Y-76866666D01*
X64252380Y-76904761D01*
X64290476Y-76942857D01*
X64328571Y-77019047D01*
%TO.C,C11*%
X72014285Y-75285714D02*
X72052380Y-75323809D01*
X72166666Y-75361904D01*
X72242857Y-75361904D01*
X72357142Y-75323809D01*
X72433333Y-75247619D01*
X72471428Y-75171428D01*
X72509523Y-75019047D01*
X72509523Y-74904761D01*
X72471428Y-74752380D01*
X72433333Y-74676190D01*
X72357142Y-74600000D01*
X72242857Y-74561904D01*
X72166666Y-74561904D01*
X72052380Y-74600000D01*
X72014285Y-74638095D01*
X71252380Y-75361904D02*
X71709523Y-75361904D01*
X71480952Y-75361904D02*
X71480952Y-74561904D01*
X71557142Y-74676190D01*
X71633333Y-74752380D01*
X71709523Y-74790476D01*
X70490476Y-75361904D02*
X70947619Y-75361904D01*
X70719047Y-75361904D02*
X70719047Y-74561904D01*
X70795238Y-74676190D01*
X70871428Y-74752380D01*
X70947619Y-74790476D01*
%TO.C,C5*%
X71633333Y-77285714D02*
X71671428Y-77323809D01*
X71785714Y-77361904D01*
X71861904Y-77361904D01*
X71976190Y-77323809D01*
X72052380Y-77247619D01*
X72090476Y-77171428D01*
X72128571Y-77019047D01*
X72128571Y-76904761D01*
X72090476Y-76752380D01*
X72052380Y-76676190D01*
X71976190Y-76600000D01*
X71861904Y-76561904D01*
X71785714Y-76561904D01*
X71671428Y-76600000D01*
X71633333Y-76638095D01*
X70909523Y-76561904D02*
X71290476Y-76561904D01*
X71328571Y-76942857D01*
X71290476Y-76904761D01*
X71214285Y-76866666D01*
X71023809Y-76866666D01*
X70947619Y-76904761D01*
X70909523Y-76942857D01*
X70871428Y-77019047D01*
X70871428Y-77209523D01*
X70909523Y-77285714D01*
X70947619Y-77323809D01*
X71023809Y-77361904D01*
X71214285Y-77361904D01*
X71290476Y-77323809D01*
X71328571Y-77285714D01*
%TO.C,C29*%
X65014285Y-67285714D02*
X65052380Y-67323809D01*
X65166666Y-67361904D01*
X65242857Y-67361904D01*
X65357142Y-67323809D01*
X65433333Y-67247619D01*
X65471428Y-67171428D01*
X65509523Y-67019047D01*
X65509523Y-66904761D01*
X65471428Y-66752380D01*
X65433333Y-66676190D01*
X65357142Y-66600000D01*
X65242857Y-66561904D01*
X65166666Y-66561904D01*
X65052380Y-66600000D01*
X65014285Y-66638095D01*
X64709523Y-66638095D02*
X64671428Y-66600000D01*
X64595238Y-66561904D01*
X64404761Y-66561904D01*
X64328571Y-66600000D01*
X64290476Y-66638095D01*
X64252380Y-66714285D01*
X64252380Y-66790476D01*
X64290476Y-66904761D01*
X64747619Y-67361904D01*
X64252380Y-67361904D01*
X63871428Y-67361904D02*
X63719047Y-67361904D01*
X63642857Y-67323809D01*
X63604761Y-67285714D01*
X63528571Y-67171428D01*
X63490476Y-67019047D01*
X63490476Y-66714285D01*
X63528571Y-66638095D01*
X63566666Y-66600000D01*
X63642857Y-66561904D01*
X63795238Y-66561904D01*
X63871428Y-66600000D01*
X63909523Y-66638095D01*
X63947619Y-66714285D01*
X63947619Y-66904761D01*
X63909523Y-66980952D01*
X63871428Y-67019047D01*
X63795238Y-67057142D01*
X63642857Y-67057142D01*
X63566666Y-67019047D01*
X63528571Y-66980952D01*
X63490476Y-66904761D01*
%TO.C,L22*%
X68514285Y-67611904D02*
X68895238Y-67611904D01*
X68895238Y-66811904D01*
X68285714Y-66888095D02*
X68247619Y-66850000D01*
X68171428Y-66811904D01*
X67980952Y-66811904D01*
X67904761Y-66850000D01*
X67866666Y-66888095D01*
X67828571Y-66964285D01*
X67828571Y-67040476D01*
X67866666Y-67154761D01*
X68323809Y-67611904D01*
X67828571Y-67611904D01*
X67523809Y-66888095D02*
X67485714Y-66850000D01*
X67409523Y-66811904D01*
X67219047Y-66811904D01*
X67142857Y-66850000D01*
X67104761Y-66888095D01*
X67066666Y-66964285D01*
X67066666Y-67040476D01*
X67104761Y-67154761D01*
X67561904Y-67611904D01*
X67066666Y-67611904D01*
%TO.C,L17*%
X82514285Y-69611904D02*
X82895238Y-69611904D01*
X82895238Y-68811904D01*
X81828571Y-69611904D02*
X82285714Y-69611904D01*
X82057142Y-69611904D02*
X82057142Y-68811904D01*
X82133333Y-68926190D01*
X82209523Y-69002380D01*
X82285714Y-69040476D01*
X81561904Y-68811904D02*
X81028571Y-68811904D01*
X81371428Y-69611904D01*
%TO.C,C12*%
X65014285Y-75285714D02*
X65052380Y-75323809D01*
X65166666Y-75361904D01*
X65242857Y-75361904D01*
X65357142Y-75323809D01*
X65433333Y-75247619D01*
X65471428Y-75171428D01*
X65509523Y-75019047D01*
X65509523Y-74904761D01*
X65471428Y-74752380D01*
X65433333Y-74676190D01*
X65357142Y-74600000D01*
X65242857Y-74561904D01*
X65166666Y-74561904D01*
X65052380Y-74600000D01*
X65014285Y-74638095D01*
X64252380Y-75361904D02*
X64709523Y-75361904D01*
X64480952Y-75361904D02*
X64480952Y-74561904D01*
X64557142Y-74676190D01*
X64633333Y-74752380D01*
X64709523Y-74790476D01*
X63947619Y-74638095D02*
X63909523Y-74600000D01*
X63833333Y-74561904D01*
X63642857Y-74561904D01*
X63566666Y-74600000D01*
X63528571Y-74638095D01*
X63490476Y-74714285D01*
X63490476Y-74790476D01*
X63528571Y-74904761D01*
X63985714Y-75361904D01*
X63490476Y-75361904D01*
%TO.C,C21*%
X65014285Y-71285714D02*
X65052380Y-71323809D01*
X65166666Y-71361904D01*
X65242857Y-71361904D01*
X65357142Y-71323809D01*
X65433333Y-71247619D01*
X65471428Y-71171428D01*
X65509523Y-71019047D01*
X65509523Y-70904761D01*
X65471428Y-70752380D01*
X65433333Y-70676190D01*
X65357142Y-70600000D01*
X65242857Y-70561904D01*
X65166666Y-70561904D01*
X65052380Y-70600000D01*
X65014285Y-70638095D01*
X64709523Y-70638095D02*
X64671428Y-70600000D01*
X64595238Y-70561904D01*
X64404761Y-70561904D01*
X64328571Y-70600000D01*
X64290476Y-70638095D01*
X64252380Y-70714285D01*
X64252380Y-70790476D01*
X64290476Y-70904761D01*
X64747619Y-71361904D01*
X64252380Y-71361904D01*
X63490476Y-71361904D02*
X63947619Y-71361904D01*
X63719047Y-71361904D02*
X63719047Y-70561904D01*
X63795238Y-70676190D01*
X63871428Y-70752380D01*
X63947619Y-70790476D01*
%TO.C,L9*%
X75133333Y-75611904D02*
X75514285Y-75611904D01*
X75514285Y-74811904D01*
X74828571Y-75611904D02*
X74676190Y-75611904D01*
X74600000Y-75573809D01*
X74561904Y-75535714D01*
X74485714Y-75421428D01*
X74447619Y-75269047D01*
X74447619Y-74964285D01*
X74485714Y-74888095D01*
X74523809Y-74850000D01*
X74600000Y-74811904D01*
X74752380Y-74811904D01*
X74828571Y-74850000D01*
X74866666Y-74888095D01*
X74904761Y-74964285D01*
X74904761Y-75154761D01*
X74866666Y-75230952D01*
X74828571Y-75269047D01*
X74752380Y-75307142D01*
X74600000Y-75307142D01*
X74523809Y-75269047D01*
X74485714Y-75230952D01*
X74447619Y-75154761D01*
%TO.C,C10*%
X79014285Y-75285714D02*
X79052380Y-75323809D01*
X79166666Y-75361904D01*
X79242857Y-75361904D01*
X79357142Y-75323809D01*
X79433333Y-75247619D01*
X79471428Y-75171428D01*
X79509523Y-75019047D01*
X79509523Y-74904761D01*
X79471428Y-74752380D01*
X79433333Y-74676190D01*
X79357142Y-74600000D01*
X79242857Y-74561904D01*
X79166666Y-74561904D01*
X79052380Y-74600000D01*
X79014285Y-74638095D01*
X78252380Y-75361904D02*
X78709523Y-75361904D01*
X78480952Y-75361904D02*
X78480952Y-74561904D01*
X78557142Y-74676190D01*
X78633333Y-74752380D01*
X78709523Y-74790476D01*
X77757142Y-74561904D02*
X77680952Y-74561904D01*
X77604761Y-74600000D01*
X77566666Y-74638095D01*
X77528571Y-74714285D01*
X77490476Y-74866666D01*
X77490476Y-75057142D01*
X77528571Y-75209523D01*
X77566666Y-75285714D01*
X77604761Y-75323809D01*
X77680952Y-75361904D01*
X77757142Y-75361904D01*
X77833333Y-75323809D01*
X77871428Y-75285714D01*
X77909523Y-75209523D01*
X77947619Y-75057142D01*
X77947619Y-74866666D01*
X77909523Y-74714285D01*
X77871428Y-74638095D01*
X77833333Y-74600000D01*
X77757142Y-74561904D01*
%TO.C,C22*%
X86154865Y-69285714D02*
X86192960Y-69323809D01*
X86307246Y-69361904D01*
X86383437Y-69361904D01*
X86497722Y-69323809D01*
X86573913Y-69247619D01*
X86612008Y-69171428D01*
X86650103Y-69019047D01*
X86650103Y-68904761D01*
X86612008Y-68752380D01*
X86573913Y-68676190D01*
X86497722Y-68600000D01*
X86383437Y-68561904D01*
X86307246Y-68561904D01*
X86192960Y-68600000D01*
X86154865Y-68638095D01*
X85850103Y-68638095D02*
X85812008Y-68600000D01*
X85735818Y-68561904D01*
X85545341Y-68561904D01*
X85469151Y-68600000D01*
X85431056Y-68638095D01*
X85392960Y-68714285D01*
X85392960Y-68790476D01*
X85431056Y-68904761D01*
X85888199Y-69361904D01*
X85392960Y-69361904D01*
X85088199Y-68638095D02*
X85050103Y-68600000D01*
X84973913Y-68561904D01*
X84783437Y-68561904D01*
X84707246Y-68600000D01*
X84669151Y-68638095D01*
X84631056Y-68714285D01*
X84631056Y-68790476D01*
X84669151Y-68904761D01*
X85126294Y-69361904D01*
X84631056Y-69361904D01*
%TO.C,C17*%
X65014285Y-73285714D02*
X65052380Y-73323809D01*
X65166666Y-73361904D01*
X65242857Y-73361904D01*
X65357142Y-73323809D01*
X65433333Y-73247619D01*
X65471428Y-73171428D01*
X65509523Y-73019047D01*
X65509523Y-72904761D01*
X65471428Y-72752380D01*
X65433333Y-72676190D01*
X65357142Y-72600000D01*
X65242857Y-72561904D01*
X65166666Y-72561904D01*
X65052380Y-72600000D01*
X65014285Y-72638095D01*
X64252380Y-73361904D02*
X64709523Y-73361904D01*
X64480952Y-73361904D02*
X64480952Y-72561904D01*
X64557142Y-72676190D01*
X64633333Y-72752380D01*
X64709523Y-72790476D01*
X63985714Y-72561904D02*
X63452380Y-72561904D01*
X63795238Y-73361904D01*
%TO.C,C18*%
X86014285Y-71285715D02*
X86052380Y-71323810D01*
X86166666Y-71361905D01*
X86242857Y-71361905D01*
X86357142Y-71323810D01*
X86433333Y-71247620D01*
X86471428Y-71171429D01*
X86509523Y-71019048D01*
X86509523Y-70904762D01*
X86471428Y-70752381D01*
X86433333Y-70676191D01*
X86357142Y-70600001D01*
X86242857Y-70561905D01*
X86166666Y-70561905D01*
X86052380Y-70600001D01*
X86014285Y-70638096D01*
X85252380Y-71361905D02*
X85709523Y-71361905D01*
X85480952Y-71361905D02*
X85480952Y-70561905D01*
X85557142Y-70676191D01*
X85633333Y-70752381D01*
X85709523Y-70790477D01*
X84795238Y-70904762D02*
X84871428Y-70866667D01*
X84909523Y-70828572D01*
X84947619Y-70752381D01*
X84947619Y-70714286D01*
X84909523Y-70638096D01*
X84871428Y-70600001D01*
X84795238Y-70561905D01*
X84642857Y-70561905D01*
X84566666Y-70600001D01*
X84528571Y-70638096D01*
X84490476Y-70714286D01*
X84490476Y-70752381D01*
X84528571Y-70828572D01*
X84566666Y-70866667D01*
X84642857Y-70904762D01*
X84795238Y-70904762D01*
X84871428Y-70942858D01*
X84909523Y-70980953D01*
X84947619Y-71057143D01*
X84947619Y-71209524D01*
X84909523Y-71285715D01*
X84871428Y-71323810D01*
X84795238Y-71361905D01*
X84642857Y-71361905D01*
X84566666Y-71323810D01*
X84528571Y-71285715D01*
X84490476Y-71209524D01*
X84490476Y-71057143D01*
X84528571Y-70980953D01*
X84566666Y-70942858D01*
X84642857Y-70904762D01*
%TO.C,L15*%
X75514285Y-71611904D02*
X75895238Y-71611904D01*
X75895238Y-70811904D01*
X74828571Y-71611904D02*
X75285714Y-71611904D01*
X75057142Y-71611904D02*
X75057142Y-70811904D01*
X75133333Y-70926190D01*
X75209523Y-71002380D01*
X75285714Y-71040476D01*
X74104761Y-70811904D02*
X74485714Y-70811904D01*
X74523809Y-71192857D01*
X74485714Y-71154761D01*
X74409523Y-71116666D01*
X74219047Y-71116666D01*
X74142857Y-71154761D01*
X74104761Y-71192857D01*
X74066666Y-71269047D01*
X74066666Y-71459523D01*
X74104761Y-71535714D01*
X74142857Y-71573809D01*
X74219047Y-71611904D01*
X74409523Y-71611904D01*
X74485714Y-71573809D01*
X74523809Y-71535714D01*
%TO.C,C24*%
X72014285Y-69285714D02*
X72052380Y-69323809D01*
X72166666Y-69361904D01*
X72242857Y-69361904D01*
X72357142Y-69323809D01*
X72433333Y-69247619D01*
X72471428Y-69171428D01*
X72509523Y-69019047D01*
X72509523Y-68904761D01*
X72471428Y-68752380D01*
X72433333Y-68676190D01*
X72357142Y-68600000D01*
X72242857Y-68561904D01*
X72166666Y-68561904D01*
X72052380Y-68600000D01*
X72014285Y-68638095D01*
X71709523Y-68638095D02*
X71671428Y-68600000D01*
X71595238Y-68561904D01*
X71404761Y-68561904D01*
X71328571Y-68600000D01*
X71290476Y-68638095D01*
X71252380Y-68714285D01*
X71252380Y-68790476D01*
X71290476Y-68904761D01*
X71747619Y-69361904D01*
X71252380Y-69361904D01*
X70566666Y-68828571D02*
X70566666Y-69361904D01*
X70757142Y-68523809D02*
X70947619Y-69095238D01*
X70452380Y-69095238D01*
%TO.C,C19*%
X79014285Y-71285714D02*
X79052380Y-71323809D01*
X79166666Y-71361904D01*
X79242857Y-71361904D01*
X79357142Y-71323809D01*
X79433333Y-71247619D01*
X79471428Y-71171428D01*
X79509523Y-71019047D01*
X79509523Y-70904761D01*
X79471428Y-70752380D01*
X79433333Y-70676190D01*
X79357142Y-70600000D01*
X79242857Y-70561904D01*
X79166666Y-70561904D01*
X79052380Y-70600000D01*
X79014285Y-70638095D01*
X78252380Y-71361904D02*
X78709523Y-71361904D01*
X78480952Y-71361904D02*
X78480952Y-70561904D01*
X78557142Y-70676190D01*
X78633333Y-70752380D01*
X78709523Y-70790476D01*
X77871428Y-71361904D02*
X77719047Y-71361904D01*
X77642857Y-71323809D01*
X77604761Y-71285714D01*
X77528571Y-71171428D01*
X77490476Y-71019047D01*
X77490476Y-70714285D01*
X77528571Y-70638095D01*
X77566666Y-70600000D01*
X77642857Y-70561904D01*
X77795238Y-70561904D01*
X77871428Y-70600000D01*
X77909523Y-70638095D01*
X77947619Y-70714285D01*
X77947619Y-70904761D01*
X77909523Y-70980952D01*
X77871428Y-71019047D01*
X77795238Y-71057142D01*
X77642857Y-71057142D01*
X77566666Y-71019047D01*
X77528571Y-70980952D01*
X77490476Y-70904761D01*
%TO.C,C15*%
X79014285Y-73285714D02*
X79052380Y-73323809D01*
X79166666Y-73361904D01*
X79242857Y-73361904D01*
X79357142Y-73323809D01*
X79433333Y-73247619D01*
X79471428Y-73171428D01*
X79509523Y-73019047D01*
X79509523Y-72904761D01*
X79471428Y-72752380D01*
X79433333Y-72676190D01*
X79357142Y-72600000D01*
X79242857Y-72561904D01*
X79166666Y-72561904D01*
X79052380Y-72600000D01*
X79014285Y-72638095D01*
X78252380Y-73361904D02*
X78709523Y-73361904D01*
X78480952Y-73361904D02*
X78480952Y-72561904D01*
X78557142Y-72676190D01*
X78633333Y-72752380D01*
X78709523Y-72790476D01*
X77528571Y-72561904D02*
X77909523Y-72561904D01*
X77947619Y-72942857D01*
X77909523Y-72904761D01*
X77833333Y-72866666D01*
X77642857Y-72866666D01*
X77566666Y-72904761D01*
X77528571Y-72942857D01*
X77490476Y-73019047D01*
X77490476Y-73209523D01*
X77528571Y-73285714D01*
X77566666Y-73323809D01*
X77642857Y-73361904D01*
X77833333Y-73361904D01*
X77909523Y-73323809D01*
X77947619Y-73285714D01*
%TO.C,L19*%
X68514285Y-69611904D02*
X68895238Y-69611904D01*
X68895238Y-68811904D01*
X67828571Y-69611904D02*
X68285714Y-69611904D01*
X68057142Y-69611904D02*
X68057142Y-68811904D01*
X68133333Y-68926190D01*
X68209523Y-69002380D01*
X68285714Y-69040476D01*
X67447619Y-69611904D02*
X67295238Y-69611904D01*
X67219047Y-69573809D01*
X67180952Y-69535714D01*
X67104761Y-69421428D01*
X67066666Y-69269047D01*
X67066666Y-68964285D01*
X67104761Y-68888095D01*
X67142857Y-68850000D01*
X67219047Y-68811904D01*
X67371428Y-68811904D01*
X67447619Y-68850000D01*
X67485714Y-68888095D01*
X67523809Y-68964285D01*
X67523809Y-69154761D01*
X67485714Y-69230952D01*
X67447619Y-69269047D01*
X67371428Y-69307142D01*
X67219047Y-69307142D01*
X67142857Y-69269047D01*
X67104761Y-69230952D01*
X67066666Y-69154761D01*
%TO.C,C16*%
X72014285Y-73285714D02*
X72052380Y-73323809D01*
X72166666Y-73361904D01*
X72242857Y-73361904D01*
X72357142Y-73323809D01*
X72433333Y-73247619D01*
X72471428Y-73171428D01*
X72509523Y-73019047D01*
X72509523Y-72904761D01*
X72471428Y-72752380D01*
X72433333Y-72676190D01*
X72357142Y-72600000D01*
X72242857Y-72561904D01*
X72166666Y-72561904D01*
X72052380Y-72600000D01*
X72014285Y-72638095D01*
X71252380Y-73361904D02*
X71709523Y-73361904D01*
X71480952Y-73361904D02*
X71480952Y-72561904D01*
X71557142Y-72676190D01*
X71633333Y-72752380D01*
X71709523Y-72790476D01*
X70566666Y-72561904D02*
X70719047Y-72561904D01*
X70795238Y-72600000D01*
X70833333Y-72638095D01*
X70909523Y-72752380D01*
X70947619Y-72904761D01*
X70947619Y-73209523D01*
X70909523Y-73285714D01*
X70871428Y-73323809D01*
X70795238Y-73361904D01*
X70642857Y-73361904D01*
X70566666Y-73323809D01*
X70528571Y-73285714D01*
X70490476Y-73209523D01*
X70490476Y-73019047D01*
X70528571Y-72942857D01*
X70566666Y-72904761D01*
X70642857Y-72866666D01*
X70795238Y-72866666D01*
X70871428Y-72904761D01*
X70909523Y-72942857D01*
X70947619Y-73019047D01*
%TO.C,J2*%
X58766666Y-56561904D02*
X58766666Y-57133333D01*
X58804761Y-57247619D01*
X58880952Y-57323809D01*
X58995238Y-57361904D01*
X59071428Y-57361904D01*
X58423809Y-56638095D02*
X58385714Y-56600000D01*
X58309523Y-56561904D01*
X58119047Y-56561904D01*
X58042857Y-56600000D01*
X58004761Y-56638095D01*
X57966666Y-56714285D01*
X57966666Y-56790476D01*
X58004761Y-56904761D01*
X58461904Y-57361904D01*
X57966666Y-57361904D01*
D11*
X107990000Y-50920000D02*
X107990000Y-56120000D01*
X57070000Y-53520000D02*
X59670000Y-53520000D01*
X57070000Y-50920000D02*
X107990000Y-50920000D01*
X59670000Y-53520000D02*
X59670000Y-56120000D01*
X57070000Y-50920000D02*
X57070000Y-53520000D01*
X57070000Y-56120000D02*
X58400000Y-56120000D01*
X59670000Y-56120000D02*
X107990000Y-56120000D01*
X57070000Y-54790000D02*
X57070000Y-56120000D01*
%TD*%
M02*
