M48
; DRILL file {KiCad (6.0.1)} date Tue Aug  9 16:04:10 2022
; FORMAT={-:-/ absolute / inch / decimal}
; #@! TF.CreationDate,2022-08-09T16:04:10-07:00
; #@! TF.GenerationSoftware,Kicad,Pcbnew,(6.0.1)
; #@! TF.FileFunction,Plated,1,2,PTH
FMAT,2
INCH
; #@! TA.AperFunction,Plated,PTH,ViaDrill
T1C0.0157
; #@! TA.AperFunction,Plated,PTH,ComponentDrill
T2C0.0315
; #@! TA.AperFunction,Plated,PTH,ComponentDrill
T3C0.0394
; #@! TA.AperFunction,Plated,PTH,ComponentDrill
T4C0.0591
; #@! TA.AperFunction,Plated,PTH,ComponentDrill
T5C0.0669
; #@! TA.AperFunction,Plated,PTH,ComponentDrill
T6C0.1260
%
G90
G05
T1
X2.7559Y-2.4213
X3.9665Y-2.3228
T2
X2.3327Y-2.6476
X2.3327Y-2.7264
X2.3327Y-2.8051
X2.3327Y-2.8839
X2.3327Y-2.9626
X2.3327Y-3.0413
X2.4114Y-2.6476
X2.4114Y-2.7264
X2.4114Y-2.8051
X2.4114Y-2.8839
X2.4114Y-2.9626
X2.4114Y-3.0413
X3.4941Y-2.6476
X3.4941Y-2.7264
X3.4941Y-2.8051
X3.4941Y-2.8839
X3.4941Y-2.9626
X3.4941Y-3.0413
X3.5728Y-2.6476
X3.5728Y-2.7264
X3.5728Y-2.8051
X3.5728Y-2.8839
X3.5728Y-2.9626
X3.5728Y-3.0413
X3.8484Y-2.6476
X3.8484Y-2.7264
X3.8484Y-2.8051
X3.8484Y-2.8839
X3.8484Y-2.9626
X3.8484Y-3.0413
X3.9272Y-2.6476
X3.9272Y-2.7264
X3.9272Y-2.8051
X3.9272Y-2.8839
X3.9272Y-2.9626
X3.9272Y-3.0413
X4.3898Y-2.5689
X4.3898Y-2.6476
X4.3898Y-2.7264
X4.3898Y-2.8051
T3
X2.2992Y-2.0571
X2.2992Y-2.1571
X2.3992Y-2.0571
X2.3992Y-2.1571
X2.4992Y-2.0571
X2.4992Y-2.1571
X2.5992Y-2.0571
X2.5992Y-2.1571
X2.6992Y-2.0571
X2.6992Y-2.1571
X2.7992Y-2.0571
X2.7992Y-2.1571
X2.8992Y-2.0571
X2.8992Y-2.1571
X2.9992Y-2.0571
X2.9992Y-2.1571
X3.0992Y-2.0571
X3.0992Y-2.1571
X3.1992Y-2.0571
X3.1992Y-2.1571
X3.2992Y-2.0571
X3.2992Y-2.1571
X3.3992Y-2.0571
X3.3992Y-2.1571
X3.4992Y-2.0571
X3.4992Y-2.1571
X3.5992Y-2.0571
X3.5992Y-2.1571
X3.6992Y-2.0571
X3.6992Y-2.1571
X3.7992Y-2.0571
X3.7992Y-2.1571
X3.8992Y-2.0571
X3.8992Y-2.1571
X3.9992Y-2.0571
X3.9992Y-2.1571
X4.0992Y-2.0571
X4.0992Y-2.1571
X4.1992Y-2.0571
X4.1992Y-2.1571
T4
X2.1654Y-2.4114
T5
X2.0654Y-2.3114
X2.0654Y-2.5114
X2.2654Y-2.3114
X2.2654Y-2.5114
T6
X2.1063Y-2.1063
X2.1063Y-4.0354
X4.3898Y-2.1063
X4.3898Y-3.0118
X4.3898Y-4.0354
T0
M30
