%TF.GenerationSoftware,KiCad,Pcbnew,(6.0.1)*%
%TF.CreationDate,2022-08-09T16:04:10-07:00*%
%TF.ProjectId,WSPR3,57535052-332e-46b6-9963-61645f706362,rev?*%
%TF.SameCoordinates,Original*%
%TF.FileFunction,Profile,NP*%
%FSLAX46Y46*%
G04 Gerber Fmt 4.6, Leading zero omitted, Abs format (unit mm)*
G04 Created by KiCad (PCBNEW (6.0.1)) date 2022-08-09 16:04:10*
%MOMM*%
%LPD*%
G01*
G04 APERTURE LIST*
%TA.AperFunction,Profile*%
%ADD10C,0.100000*%
%TD*%
G04 APERTURE END LIST*
D10*
X103499999Y-80000001D02*
X66500001Y-80000001D01*
X94000000Y-87000000D02*
X94000000Y-102000000D01*
X55000000Y-85500000D02*
X54999999Y-84999999D01*
X66500001Y-80000001D02*
G75*
G03*
X65500001Y-81000001I-1J-999999D01*
G01*
X66500001Y-82000001D02*
X103499999Y-82000001D01*
X112000000Y-80000000D02*
G75*
G03*
X115000000Y-77000000I-1J3000001D01*
G01*
X110500000Y-82000000D02*
X112000000Y-82000000D01*
X109750000Y-57500000D02*
X113250000Y-57500001D01*
X50000000Y-68500000D02*
G75*
G03*
X51000000Y-69500000I999999J-1D01*
G01*
X115000000Y-53000000D02*
G75*
G03*
X112000000Y-50000000I-3000001J-1D01*
G01*
X113250000Y-61999999D02*
G75*
G03*
X113749999Y-61500000I-2J500001D01*
G01*
X57999999Y-82000002D02*
X59499999Y-82000001D01*
X59499999Y-80000001D02*
X57999999Y-80000001D01*
X54000000Y-86500000D02*
G75*
G03*
X55000000Y-85500000I1J999999D01*
G01*
X65500001Y-81000001D02*
G75*
G03*
X66500001Y-82000001I999999J-1D01*
G01*
X112000000Y-50000000D02*
X53000000Y-50000000D01*
X109250001Y-61500000D02*
X109250000Y-58000000D01*
X112000000Y-105999998D02*
G75*
G03*
X115000000Y-102999999I1J2999999D01*
G01*
X109500000Y-81000000D02*
G75*
G03*
X110500000Y-82000000I999999J-1D01*
G01*
X50000000Y-87500000D02*
X50000000Y-103000000D01*
X115000000Y-102999999D02*
X115000000Y-85000000D01*
X113749999Y-58000000D02*
G75*
G03*
X113250000Y-57500001I-500001J-2D01*
G01*
X51000000Y-86500000D02*
X54000000Y-86500000D01*
X96000000Y-87000000D02*
G75*
G03*
X94000000Y-87000000I-1000000J0D01*
G01*
X54999999Y-77000001D02*
X55000000Y-70500000D01*
X52999999Y-105999999D02*
X112000000Y-105999998D01*
X94000000Y-102000000D02*
G75*
G03*
X96000000Y-102000000I1000000J0D01*
G01*
X109250001Y-61500000D02*
G75*
G03*
X109750000Y-61999999I500001J2D01*
G01*
X54999999Y-77000001D02*
G75*
G03*
X57999999Y-80000001I3000001J1D01*
G01*
X50000000Y-68500000D02*
X50000000Y-53000000D01*
X53000000Y-50000000D02*
G75*
G03*
X50000000Y-53000000I1J-3000001D01*
G01*
X112000000Y-80000000D02*
X110500000Y-80000000D01*
X96000000Y-87000000D02*
X96000000Y-102000000D01*
X51000000Y-69500000D02*
X54000000Y-69500000D01*
X115000000Y-85000000D02*
G75*
G03*
X112000000Y-82000000I-3000001J-1D01*
G01*
X110500000Y-80000000D02*
G75*
G03*
X109500000Y-81000000I-1J-999999D01*
G01*
X113749999Y-58000000D02*
X113749999Y-61500000D01*
X60499999Y-81000001D02*
G75*
G03*
X59499999Y-80000001I-999999J1D01*
G01*
X104499999Y-81000001D02*
G75*
G03*
X103499999Y-80000001I-999999J1D01*
G01*
X109750000Y-57500000D02*
G75*
G03*
X109250000Y-58000000I1J-500001D01*
G01*
X50000000Y-103000000D02*
G75*
G03*
X53000000Y-106000000I3000001J1D01*
G01*
X103499999Y-82000001D02*
G75*
G03*
X104499999Y-81000001I1J999999D01*
G01*
X51000000Y-86500000D02*
G75*
G03*
X50000000Y-87500000I-1J-999999D01*
G01*
X113250000Y-61999999D02*
X109750000Y-61999999D01*
X57999999Y-81999999D02*
G75*
G03*
X54999999Y-84999999I1J-3000001D01*
G01*
X59499999Y-82000001D02*
G75*
G03*
X60499999Y-81000001I1J999999D01*
G01*
X55000000Y-70500000D02*
G75*
G03*
X54000000Y-69500000I-999999J1D01*
G01*
X115000000Y-77000000D02*
X115000000Y-53000000D01*
M02*
