%TF.GenerationSoftware,KiCad,Pcbnew,(6.0.1)*%
%TF.CreationDate,2022-08-09T16:04:10-07:00*%
%TF.ProjectId,WSPR3,57535052-332e-46b6-9963-61645f706362,rev?*%
%TF.SameCoordinates,Original*%
%TF.FileFunction,Copper,L2,Bot*%
%TF.FilePolarity,Positive*%
%FSLAX46Y46*%
G04 Gerber Fmt 4.6, Leading zero omitted, Abs format (unit mm)*
G04 Created by KiCad (PCBNEW (6.0.1)) date 2022-08-09 16:04:10*
%MOMM*%
%LPD*%
G01*
G04 APERTURE LIST*
%TA.AperFunction,ComponentPad*%
%ADD10R,1.350000X1.350000*%
%TD*%
%TA.AperFunction,ComponentPad*%
%ADD11O,1.350000X1.350000*%
%TD*%
%TA.AperFunction,ComponentPad*%
%ADD12C,5.600000*%
%TD*%
%TA.AperFunction,ComponentPad*%
%ADD13C,2.050000*%
%TD*%
%TA.AperFunction,ComponentPad*%
%ADD14C,2.250000*%
%TD*%
%TA.AperFunction,ComponentPad*%
%ADD15R,1.700000X1.700000*%
%TD*%
%TA.AperFunction,ComponentPad*%
%ADD16O,1.700000X1.700000*%
%TD*%
%TA.AperFunction,ViaPad*%
%ADD17C,0.800000*%
%TD*%
%TA.AperFunction,Conductor*%
%ADD18C,0.250000*%
%TD*%
G04 APERTURE END LIST*
D10*
%TO.P,J1,1,Pin_1*%
%TO.N,Net-(J1-Pad1)*%
X99750001Y-77250000D03*
D11*
%TO.P,J1,2,Pin_2*%
%TO.N,Net-(C7-Pad1)*%
X97750001Y-77250000D03*
%TO.P,J1,3,Pin_3*%
%TO.N,Net-(J1-Pad3)*%
X99750001Y-75250000D03*
%TO.P,J1,4,Pin_4*%
%TO.N,Net-(C7-Pad1)*%
X97750001Y-75250000D03*
%TO.P,J1,5,Pin_5*%
%TO.N,Net-(J1-Pad3)*%
X99750001Y-73250000D03*
%TO.P,J1,6,Pin_6*%
%TO.N,Net-(C7-Pad1)*%
X97750001Y-73250000D03*
%TO.P,J1,7,Pin_7*%
%TO.N,Net-(J1-Pad7)*%
X99750001Y-71250000D03*
%TO.P,J1,8,Pin_8*%
%TO.N,Net-(C7-Pad1)*%
X97750001Y-71250000D03*
%TO.P,J1,9,Pin_9*%
%TO.N,Net-(J1-Pad7)*%
X99750001Y-69250000D03*
%TO.P,J1,10,Pin_10*%
%TO.N,Net-(C7-Pad1)*%
X97750001Y-69250000D03*
%TO.P,J1,11,Pin_11*%
%TO.N,Net-(J1-Pad11)*%
X99750001Y-67250000D03*
%TO.P,J1,12,Pin_12*%
%TO.N,Net-(C7-Pad1)*%
X97750001Y-67250000D03*
%TD*%
D12*
%TO.P,H3,1*%
%TO.N,N/C*%
X111500000Y-76500000D03*
%TD*%
D10*
%TO.P,J6,1,Pin_1*%
%TO.N,GND*%
X111500000Y-65250000D03*
D11*
%TO.P,J6,2,Pin_2*%
%TO.N,/TX*%
X111500000Y-67250000D03*
%TO.P,J6,3,Pin_3*%
%TO.N,/RX*%
X111500000Y-69250000D03*
%TO.P,J6,4,Pin_4*%
%TO.N,/3.3v*%
X111500000Y-71250000D03*
%TD*%
D13*
%TO.P,J3,1,Pin_1*%
%TO.N,Net-(D1-Pad2)*%
X55000000Y-61250000D03*
D14*
%TO.P,J3,2,Pin_2*%
%TO.N,GND*%
X52460000Y-58710000D03*
X57540000Y-63790000D03*
X52460000Y-63790000D03*
X57540000Y-58710000D03*
%TD*%
D12*
%TO.P,H2,1*%
%TO.N,N/C*%
X111500000Y-53500000D03*
%TD*%
%TO.P,H1,1*%
%TO.N,N/C*%
X53500000Y-53500000D03*
%TD*%
D10*
%TO.P,J4,1,Pin_1*%
%TO.N,Net-(C7-Pad2)*%
X90750001Y-77250000D03*
D11*
%TO.P,J4,2,Pin_2*%
%TO.N,Net-(C3-Pad1)*%
X88750001Y-77250000D03*
%TO.P,J4,3,Pin_3*%
%TO.N,Net-(C7-Pad2)*%
X90750001Y-75250000D03*
%TO.P,J4,4,Pin_4*%
%TO.N,Net-(C9-Pad1)*%
X88750001Y-75250000D03*
%TO.P,J4,5,Pin_5*%
%TO.N,Net-(C7-Pad2)*%
X90750001Y-73250000D03*
%TO.P,J4,6,Pin_6*%
%TO.N,Net-(C14-Pad1)*%
X88750001Y-73250000D03*
%TO.P,J4,7,Pin_7*%
%TO.N,Net-(C7-Pad2)*%
X90750001Y-71250000D03*
%TO.P,J4,8,Pin_8*%
%TO.N,Net-(C18-Pad1)*%
X88750001Y-71250000D03*
%TO.P,J4,9,Pin_9*%
%TO.N,Net-(C7-Pad2)*%
X90750001Y-69250000D03*
%TO.P,J4,10,Pin_10*%
%TO.N,Net-(C22-Pad1)*%
X88750001Y-69250000D03*
%TO.P,J4,11,Pin_11*%
%TO.N,Net-(C7-Pad2)*%
X90750001Y-67250000D03*
%TO.P,J4,12,Pin_12*%
%TO.N,Net-(C26-Pad1)*%
X88750001Y-67250000D03*
%TD*%
D12*
%TO.P,H5,1*%
%TO.N,N/C*%
X53500000Y-102500000D03*
%TD*%
%TO.P,H4,1*%
%TO.N,N/C*%
X111500000Y-102500000D03*
%TD*%
D10*
%TO.P,J5,1,Pin_1*%
%TO.N,Net-(C6-Pad1)*%
X61250001Y-77250000D03*
D11*
%TO.P,J5,2,Pin_2*%
%TO.N,Net-(D1-Pad2)*%
X59250001Y-77250000D03*
%TO.P,J5,3,Pin_3*%
%TO.N,Net-(C12-Pad1)*%
X61250001Y-75250000D03*
%TO.P,J5,4,Pin_4*%
%TO.N,Net-(D1-Pad2)*%
X59250001Y-75250000D03*
%TO.P,J5,5,Pin_5*%
%TO.N,Net-(C17-Pad1)*%
X61250001Y-73250000D03*
%TO.P,J5,6,Pin_6*%
%TO.N,Net-(D1-Pad2)*%
X59250001Y-73250000D03*
%TO.P,J5,7,Pin_7*%
%TO.N,Net-(C21-Pad1)*%
X61250001Y-71250000D03*
%TO.P,J5,8,Pin_8*%
%TO.N,Net-(D1-Pad2)*%
X59250001Y-71250000D03*
%TO.P,J5,9,Pin_9*%
%TO.N,Net-(C25-Pad1)*%
X61250001Y-69250000D03*
%TO.P,J5,10,Pin_10*%
%TO.N,Net-(D1-Pad2)*%
X59250001Y-69250000D03*
%TO.P,J5,11,Pin_11*%
%TO.N,Net-(C29-Pad1)*%
X61250001Y-67250000D03*
%TO.P,J5,12,Pin_12*%
%TO.N,Net-(D1-Pad2)*%
X59250001Y-67250000D03*
%TD*%
D15*
%TO.P,J2,1,Pin_1*%
%TO.N,unconnected-(J2-Pad1)*%
X58400000Y-54790000D03*
D16*
%TO.P,J2,2,Pin_2*%
%TO.N,VCC*%
X58400000Y-52250000D03*
%TO.P,J2,3,Pin_3*%
%TO.N,unconnected-(J2-Pad3)*%
X60940000Y-54790000D03*
%TO.P,J2,4,Pin_4*%
%TO.N,VCC*%
X60940000Y-52250000D03*
%TO.P,J2,5,Pin_5*%
%TO.N,unconnected-(J2-Pad5)*%
X63480000Y-54790000D03*
%TO.P,J2,6,Pin_6*%
%TO.N,GND*%
X63480000Y-52250000D03*
%TO.P,J2,7,Pin_7*%
%TO.N,Net-(C8-Pad1)*%
X66020000Y-54790000D03*
%TO.P,J2,8,Pin_8*%
%TO.N,/TX*%
X66020000Y-52250000D03*
%TO.P,J2,9,Pin_9*%
%TO.N,GND*%
X68560000Y-54790000D03*
%TO.P,J2,10,Pin_10*%
%TO.N,/RX*%
X68560000Y-52250000D03*
%TO.P,J2,11,Pin_11*%
%TO.N,unconnected-(J2-Pad11)*%
X71100000Y-54790000D03*
%TO.P,J2,12,Pin_12*%
%TO.N,Net-(J2-Pad12)*%
X71100000Y-52250000D03*
%TO.P,J2,13,Pin_13*%
%TO.N,unconnected-(J2-Pad13)*%
X73640000Y-54790000D03*
%TO.P,J2,14,Pin_14*%
%TO.N,GND*%
X73640000Y-52250000D03*
%TO.P,J2,15,Pin_15*%
%TO.N,unconnected-(J2-Pad15)*%
X76180000Y-54790000D03*
%TO.P,J2,16,Pin_16*%
%TO.N,unconnected-(J2-Pad16)*%
X76180000Y-52250000D03*
%TO.P,J2,17,Pin_17*%
%TO.N,/3.3v*%
X78720000Y-54790000D03*
%TO.P,J2,18,Pin_18*%
%TO.N,unconnected-(J2-Pad18)*%
X78720000Y-52250000D03*
%TO.P,J2,19,Pin_19*%
%TO.N,unconnected-(J2-Pad19)*%
X81260000Y-54790000D03*
%TO.P,J2,20,Pin_20*%
%TO.N,GND*%
X81260000Y-52250000D03*
%TO.P,J2,21,Pin_21*%
%TO.N,unconnected-(J2-Pad21)*%
X83800000Y-54790000D03*
%TO.P,J2,22,Pin_22*%
%TO.N,unconnected-(J2-Pad22)*%
X83800000Y-52250000D03*
%TO.P,J2,23,Pin_23*%
%TO.N,unconnected-(J2-Pad23)*%
X86340000Y-54790000D03*
%TO.P,J2,24,Pin_24*%
%TO.N,unconnected-(J2-Pad24)*%
X86340000Y-52250000D03*
%TO.P,J2,25,Pin_25*%
%TO.N,GND*%
X88880000Y-54790000D03*
%TO.P,J2,26,Pin_26*%
%TO.N,unconnected-(J2-Pad26)*%
X88880000Y-52250000D03*
%TO.P,J2,27,Pin_27*%
%TO.N,unconnected-(J2-Pad27)*%
X91420000Y-54790000D03*
%TO.P,J2,28,Pin_28*%
%TO.N,unconnected-(J2-Pad28)*%
X91420000Y-52250000D03*
%TO.P,J2,29,Pin_29*%
%TO.N,unconnected-(J2-Pad29)*%
X93960000Y-54790000D03*
%TO.P,J2,30,Pin_30*%
%TO.N,GND*%
X93960000Y-52250000D03*
%TO.P,J2,31,Pin_31*%
%TO.N,unconnected-(J2-Pad31)*%
X96500000Y-54790000D03*
%TO.P,J2,32,Pin_32*%
%TO.N,unconnected-(J2-Pad32)*%
X96500000Y-52250000D03*
%TO.P,J2,33,Pin_33*%
%TO.N,unconnected-(J2-Pad33)*%
X99040000Y-54790000D03*
%TO.P,J2,34,Pin_34*%
%TO.N,GND*%
X99040000Y-52250000D03*
%TO.P,J2,35,Pin_35*%
%TO.N,Net-(J2-Pad35)*%
X101580000Y-54790000D03*
%TO.P,J2,36,Pin_36*%
%TO.N,unconnected-(J2-Pad36)*%
X101580000Y-52250000D03*
%TO.P,J2,37,Pin_37*%
%TO.N,unconnected-(J2-Pad37)*%
X104120000Y-54790000D03*
%TO.P,J2,38,Pin_38*%
%TO.N,unconnected-(J2-Pad38)*%
X104120000Y-52250000D03*
%TO.P,J2,39,Pin_39*%
%TO.N,GND*%
X106660000Y-54790000D03*
%TO.P,J2,40,Pin_40*%
%TO.N,unconnected-(J2-Pad40)*%
X106660000Y-52250000D03*
%TD*%
D17*
%TO.N,VCC*%
X100750000Y-59000000D03*
X70000000Y-61500000D03*
%TD*%
D18*
%TO.N,/3.3v*%
X107384991Y-57884991D02*
X105500000Y-56000000D01*
X79930000Y-56000000D02*
X78720000Y-54790000D01*
X107384991Y-69634991D02*
X107384991Y-57884991D01*
X109000000Y-71250000D02*
X107384991Y-69634991D01*
X111500000Y-71250000D02*
X109000000Y-71250000D01*
X105500000Y-56000000D02*
X79930000Y-56000000D01*
%TO.N,/TX*%
X109000000Y-67250000D02*
X111500000Y-67250000D01*
X67270000Y-51000000D02*
X107500000Y-51000000D01*
X66020000Y-52250000D02*
X67270000Y-51000000D01*
X108284031Y-51784031D02*
X108284031Y-66534031D01*
X108284031Y-66534031D02*
X109000000Y-67250000D01*
X107500000Y-51000000D02*
X108284031Y-51784031D01*
%TO.N,/RX*%
X68560000Y-52250000D02*
X69810000Y-53500000D01*
X109000000Y-69250000D02*
X111500000Y-69250000D01*
X107834511Y-54084511D02*
X107834511Y-68084511D01*
X69810000Y-53500000D02*
X107250000Y-53500000D01*
X107834511Y-68084511D02*
X109000000Y-69250000D01*
X107250000Y-53500000D02*
X107834511Y-54084511D01*
%TD*%
%TA.AperFunction,Conductor*%
%TO.N,VCC*%
G36*
X111988227Y-50202518D02*
G01*
X111988778Y-50202645D01*
X111988779Y-50202645D01*
X111999642Y-50205143D01*
X112010515Y-50202683D01*
X112020797Y-50202701D01*
X112031781Y-50201785D01*
X112307954Y-50217295D01*
X112318976Y-50218536D01*
X112529395Y-50254288D01*
X112617572Y-50269270D01*
X112628396Y-50271740D01*
X112727938Y-50300417D01*
X112919445Y-50355590D01*
X112929918Y-50359255D01*
X113209739Y-50475160D01*
X113219736Y-50479974D01*
X113343449Y-50548348D01*
X113484821Y-50626482D01*
X113494221Y-50632388D01*
X113664561Y-50753250D01*
X113741236Y-50807654D01*
X113749916Y-50814576D01*
X113975753Y-51016396D01*
X113983604Y-51024247D01*
X114008267Y-51051845D01*
X114152386Y-51213114D01*
X114185424Y-51250084D01*
X114192344Y-51258761D01*
X114284081Y-51388053D01*
X114367612Y-51505779D01*
X114373518Y-51515179D01*
X114487793Y-51721942D01*
X114520023Y-51780258D01*
X114524840Y-51790261D01*
X114640745Y-52070082D01*
X114644410Y-52080555D01*
X114688981Y-52235262D01*
X114728260Y-52371604D01*
X114730730Y-52382428D01*
X114780839Y-52677344D01*
X114781463Y-52681019D01*
X114782705Y-52692046D01*
X114791799Y-52853973D01*
X114798186Y-52967701D01*
X114797341Y-52977630D01*
X114797375Y-52977630D01*
X114797355Y-52988777D01*
X114794857Y-52999642D01*
X114797317Y-53010514D01*
X114797317Y-53010516D01*
X114797559Y-53011583D01*
X114800000Y-53033432D01*
X114800000Y-76966040D01*
X114797482Y-76988227D01*
X114794857Y-76999642D01*
X114797317Y-77010515D01*
X114797299Y-77020797D01*
X114798215Y-77031781D01*
X114782706Y-77307949D01*
X114781464Y-77318976D01*
X114762085Y-77433029D01*
X114730730Y-77617572D01*
X114728260Y-77628396D01*
X114644410Y-77919445D01*
X114640745Y-77929918D01*
X114524840Y-78209739D01*
X114520026Y-78219736D01*
X114473817Y-78303344D01*
X114373518Y-78484821D01*
X114367612Y-78494221D01*
X114192346Y-78741236D01*
X114185424Y-78749916D01*
X113983604Y-78975753D01*
X113975753Y-78983604D01*
X113749916Y-79185424D01*
X113741239Y-79192344D01*
X113702753Y-79219651D01*
X113494221Y-79367612D01*
X113484821Y-79373518D01*
X113219736Y-79520026D01*
X113209739Y-79524840D01*
X112929918Y-79640745D01*
X112919445Y-79644410D01*
X112729568Y-79699113D01*
X112628396Y-79728260D01*
X112617572Y-79730730D01*
X112529395Y-79745712D01*
X112318976Y-79781464D01*
X112307954Y-79782705D01*
X112032297Y-79798186D01*
X112022370Y-79797341D01*
X112022370Y-79797375D01*
X112011223Y-79797355D01*
X112000358Y-79794857D01*
X111989486Y-79797317D01*
X111989484Y-79797317D01*
X111988417Y-79797559D01*
X111966568Y-79800000D01*
X110534222Y-79800000D01*
X110511870Y-79797443D01*
X110500716Y-79794858D01*
X110500000Y-79794857D01*
X110494557Y-79796098D01*
X110489160Y-79796702D01*
X110483213Y-79797610D01*
X110454500Y-79799870D01*
X110315568Y-79810804D01*
X110315563Y-79810805D01*
X110311698Y-79811109D01*
X110307920Y-79812016D01*
X110305907Y-79812499D01*
X110305213Y-79812444D01*
X110304073Y-79812625D01*
X110304030Y-79812351D01*
X110244911Y-79807698D01*
X110198385Y-79767961D01*
X110183992Y-79722450D01*
X110183684Y-79717543D01*
X110177819Y-79624330D01*
X110152156Y-79545349D01*
X110129446Y-79475453D01*
X110129445Y-79475450D01*
X110127522Y-79469533D01*
X110124189Y-79464280D01*
X110124187Y-79464277D01*
X110042655Y-79335803D01*
X110027439Y-79276539D01*
X110049963Y-79219651D01*
X110101624Y-79186866D01*
X110162689Y-79190708D01*
X110174380Y-79196247D01*
X110191876Y-79205985D01*
X110194516Y-79207079D01*
X110194517Y-79207079D01*
X110486074Y-79327845D01*
X110511563Y-79338403D01*
X110844352Y-79433201D01*
X110955640Y-79451425D01*
X111183021Y-79488660D01*
X111183024Y-79488660D01*
X111185831Y-79489120D01*
X111531474Y-79505420D01*
X111534319Y-79505226D01*
X111534323Y-79505226D01*
X111873854Y-79482079D01*
X111876700Y-79481885D01*
X112136901Y-79433660D01*
X112214123Y-79419348D01*
X112214126Y-79419347D01*
X112216933Y-79418827D01*
X112547663Y-79317081D01*
X112550266Y-79315938D01*
X112550275Y-79315935D01*
X112861902Y-79179140D01*
X112861909Y-79179137D01*
X112864507Y-79177996D01*
X112866960Y-79176563D01*
X112866969Y-79176558D01*
X113160806Y-79004853D01*
X113160807Y-79004852D01*
X113163265Y-79003416D01*
X113439978Y-78795654D01*
X113580741Y-78662075D01*
X113688909Y-78559428D01*
X113688914Y-78559423D01*
X113690977Y-78557465D01*
X113692805Y-78555279D01*
X113911108Y-78294192D01*
X113911113Y-78294185D01*
X113912936Y-78292005D01*
X114102913Y-78002792D01*
X114258390Y-77693662D01*
X114355655Y-77427871D01*
X114376323Y-77371394D01*
X114376324Y-77371391D01*
X114377305Y-77368710D01*
X114458084Y-77032243D01*
X114459470Y-77020797D01*
X114499389Y-76690913D01*
X114499389Y-76690910D01*
X114499654Y-76688722D01*
X114505585Y-76500000D01*
X114500142Y-76405592D01*
X114485830Y-76157393D01*
X114485666Y-76154547D01*
X114474107Y-76088314D01*
X114426663Y-75816471D01*
X114426661Y-75816463D01*
X114426174Y-75813672D01*
X114412480Y-75767440D01*
X114328709Y-75484636D01*
X114327897Y-75481894D01*
X114192138Y-75163611D01*
X114142893Y-75077274D01*
X114022106Y-74865513D01*
X114020696Y-74863041D01*
X113815843Y-74584168D01*
X113813912Y-74582090D01*
X113813907Y-74582084D01*
X113622009Y-74375578D01*
X113580295Y-74330688D01*
X113578131Y-74328840D01*
X113578126Y-74328835D01*
X113479435Y-74244545D01*
X113317174Y-74105962D01*
X113029967Y-73912967D01*
X112722482Y-73754261D01*
X112719810Y-73753251D01*
X112719807Y-73753250D01*
X112599186Y-73707672D01*
X112398793Y-73631950D01*
X112396028Y-73631255D01*
X112396020Y-73631253D01*
X112171944Y-73574969D01*
X112063190Y-73547652D01*
X111862043Y-73521171D01*
X111722952Y-73502859D01*
X111722947Y-73502859D01*
X111720124Y-73502487D01*
X111717278Y-73502442D01*
X111717274Y-73502442D01*
X111534159Y-73499565D01*
X111374139Y-73497051D01*
X111371294Y-73497335D01*
X111032657Y-73531136D01*
X111032655Y-73531136D01*
X111029823Y-73531419D01*
X111027049Y-73532024D01*
X111027048Y-73532024D01*
X110700935Y-73603128D01*
X110691739Y-73605133D01*
X110364367Y-73717217D01*
X110052048Y-73866186D01*
X110049635Y-73867700D01*
X110049629Y-73867703D01*
X109974933Y-73914560D01*
X109758921Y-74050064D01*
X109488871Y-74266415D01*
X109245477Y-74512371D01*
X109190815Y-74582084D01*
X109033721Y-74782433D01*
X109033716Y-74782440D01*
X109031966Y-74784672D01*
X108851168Y-75079709D01*
X108705478Y-75393570D01*
X108596828Y-75722097D01*
X108526658Y-76060935D01*
X108526405Y-76063773D01*
X108526404Y-76063778D01*
X108497635Y-76386133D01*
X108495898Y-76405592D01*
X108504956Y-76751501D01*
X108505360Y-76754337D01*
X108541050Y-77005106D01*
X108553712Y-77094076D01*
X108554432Y-77096819D01*
X108554433Y-77096826D01*
X108626465Y-77371394D01*
X108641519Y-77428777D01*
X108715127Y-77617572D01*
X108743752Y-77690989D01*
X108767214Y-77751167D01*
X108768546Y-77753682D01*
X108768547Y-77753685D01*
X108901702Y-78005172D01*
X108929130Y-78056974D01*
X109125122Y-78342144D01*
X109352592Y-78602898D01*
X109354702Y-78604818D01*
X109354704Y-78604820D01*
X109564428Y-78795654D01*
X109608524Y-78835778D01*
X109610837Y-78837440D01*
X109610848Y-78837449D01*
X109749879Y-78937352D01*
X109786102Y-78986662D01*
X109786423Y-79047847D01*
X109750719Y-79097535D01*
X109692628Y-79116747D01*
X109667489Y-79113638D01*
X109627418Y-79103350D01*
X109621381Y-79101800D01*
X109499472Y-79101800D01*
X109408596Y-79113281D01*
X109384702Y-79116299D01*
X109384701Y-79116299D01*
X109378521Y-79117080D01*
X109227188Y-79176997D01*
X109222149Y-79180658D01*
X109200686Y-79196252D01*
X109095510Y-79272666D01*
X108991761Y-79398077D01*
X108989107Y-79403717D01*
X108986021Y-79408580D01*
X108938877Y-79447582D01*
X108877813Y-79451425D01*
X108826152Y-79418642D01*
X108818843Y-79408582D01*
X108773650Y-79337369D01*
X108773644Y-79337362D01*
X108770310Y-79332108D01*
X108765773Y-79327848D01*
X108765771Y-79327845D01*
X108656203Y-79224954D01*
X108656202Y-79224953D01*
X108651661Y-79220689D01*
X108646199Y-79217686D01*
X108514489Y-79145278D01*
X108514485Y-79145277D01*
X108509031Y-79142278D01*
X108503005Y-79140731D01*
X108503003Y-79140730D01*
X108357416Y-79103349D01*
X108357412Y-79103348D01*
X108351381Y-79101800D01*
X108229472Y-79101800D01*
X108138596Y-79113281D01*
X108114702Y-79116299D01*
X108114701Y-79116299D01*
X108108521Y-79117080D01*
X107957188Y-79176997D01*
X107952149Y-79180658D01*
X107930686Y-79196252D01*
X107825510Y-79272666D01*
X107721761Y-79398077D01*
X107719107Y-79403717D01*
X107716021Y-79408580D01*
X107668877Y-79447582D01*
X107607813Y-79451425D01*
X107556152Y-79418642D01*
X107548843Y-79408582D01*
X107503650Y-79337369D01*
X107503644Y-79337362D01*
X107500310Y-79332108D01*
X107495773Y-79327848D01*
X107495771Y-79327845D01*
X107386203Y-79224954D01*
X107386202Y-79224953D01*
X107381661Y-79220689D01*
X107376199Y-79217686D01*
X107244489Y-79145278D01*
X107244485Y-79145277D01*
X107239031Y-79142278D01*
X107233005Y-79140731D01*
X107233003Y-79140730D01*
X107087416Y-79103349D01*
X107087412Y-79103348D01*
X107081381Y-79101800D01*
X106959472Y-79101800D01*
X106868596Y-79113281D01*
X106844702Y-79116299D01*
X106844701Y-79116299D01*
X106838521Y-79117080D01*
X106687188Y-79176997D01*
X106682149Y-79180658D01*
X106660686Y-79196252D01*
X106555510Y-79272666D01*
X106451761Y-79398077D01*
X106449107Y-79403717D01*
X106446021Y-79408580D01*
X106398877Y-79447582D01*
X106337813Y-79451425D01*
X106286152Y-79418642D01*
X106278843Y-79408582D01*
X106233650Y-79337369D01*
X106233644Y-79337362D01*
X106230310Y-79332108D01*
X106225773Y-79327848D01*
X106225771Y-79327845D01*
X106116203Y-79224954D01*
X106116202Y-79224953D01*
X106111661Y-79220689D01*
X106106199Y-79217686D01*
X105974489Y-79145278D01*
X105974485Y-79145277D01*
X105969031Y-79142278D01*
X105963005Y-79140731D01*
X105963003Y-79140730D01*
X105817416Y-79103349D01*
X105817412Y-79103348D01*
X105811381Y-79101800D01*
X105689472Y-79101800D01*
X105598596Y-79113281D01*
X105574702Y-79116299D01*
X105574701Y-79116299D01*
X105568521Y-79117080D01*
X105417188Y-79176997D01*
X105412149Y-79180658D01*
X105390686Y-79196252D01*
X105285510Y-79272666D01*
X105181761Y-79398077D01*
X105179107Y-79403717D01*
X105176021Y-79408580D01*
X105128877Y-79447582D01*
X105067813Y-79451425D01*
X105016152Y-79418642D01*
X105008843Y-79408582D01*
X104963650Y-79337369D01*
X104963644Y-79337362D01*
X104960310Y-79332108D01*
X104955773Y-79327848D01*
X104955771Y-79327845D01*
X104846203Y-79224954D01*
X104846202Y-79224953D01*
X104841661Y-79220689D01*
X104836199Y-79217686D01*
X104704489Y-79145278D01*
X104704485Y-79145277D01*
X104699031Y-79142278D01*
X104693005Y-79140731D01*
X104693003Y-79140730D01*
X104547416Y-79103349D01*
X104547412Y-79103348D01*
X104541381Y-79101800D01*
X104419472Y-79101800D01*
X104328596Y-79113281D01*
X104304702Y-79116299D01*
X104304701Y-79116299D01*
X104298521Y-79117080D01*
X104147188Y-79176997D01*
X104142149Y-79180658D01*
X104120686Y-79196252D01*
X104015510Y-79272666D01*
X103911761Y-79398077D01*
X103909110Y-79403710D01*
X103909109Y-79403712D01*
X103895600Y-79432421D01*
X103842460Y-79545349D01*
X103811961Y-79705229D01*
X103812352Y-79711441D01*
X103811960Y-79717664D01*
X103810038Y-79717543D01*
X103796990Y-79768367D01*
X103749846Y-79807369D01*
X103696156Y-79811175D01*
X103695926Y-79812626D01*
X103692074Y-79812016D01*
X103688301Y-79811110D01*
X103684436Y-79810806D01*
X103684431Y-79810805D01*
X103517805Y-79797691D01*
X103511750Y-79796757D01*
X103511749Y-79796767D01*
X103506181Y-79796126D01*
X103500715Y-79794859D01*
X103499999Y-79794858D01*
X103494550Y-79796101D01*
X103488320Y-79797522D01*
X103466303Y-79800001D01*
X66534223Y-79800001D01*
X66511871Y-79797444D01*
X66500717Y-79794859D01*
X66500001Y-79794858D01*
X66494558Y-79796099D01*
X66489161Y-79796703D01*
X66483214Y-79797611D01*
X66465640Y-79798994D01*
X66315569Y-79810805D01*
X66315564Y-79810806D01*
X66311699Y-79811110D01*
X66307923Y-79812017D01*
X66307920Y-79812017D01*
X66305903Y-79812501D01*
X66305209Y-79812446D01*
X66304074Y-79812626D01*
X66304031Y-79812354D01*
X66244907Y-79807697D01*
X66198383Y-79767958D01*
X66183992Y-79722451D01*
X66183684Y-79717543D01*
X66177819Y-79624330D01*
X66152156Y-79545349D01*
X66129446Y-79475453D01*
X66129445Y-79475450D01*
X66127522Y-79469533D01*
X66124189Y-79464280D01*
X66124187Y-79464277D01*
X66064882Y-79370828D01*
X66040310Y-79332108D01*
X66035773Y-79327848D01*
X66035771Y-79327845D01*
X65926203Y-79224954D01*
X65926202Y-79224953D01*
X65921661Y-79220689D01*
X65916199Y-79217686D01*
X65784489Y-79145278D01*
X65784485Y-79145277D01*
X65779031Y-79142278D01*
X65773005Y-79140731D01*
X65773003Y-79140730D01*
X65627416Y-79103349D01*
X65627412Y-79103348D01*
X65621381Y-79101800D01*
X65499472Y-79101800D01*
X65408596Y-79113281D01*
X65384702Y-79116299D01*
X65384701Y-79116299D01*
X65378521Y-79117080D01*
X65227188Y-79176997D01*
X65222149Y-79180658D01*
X65200686Y-79196252D01*
X65095510Y-79272666D01*
X64991761Y-79398077D01*
X64989107Y-79403717D01*
X64986021Y-79408580D01*
X64938877Y-79447582D01*
X64877813Y-79451425D01*
X64826152Y-79418642D01*
X64818843Y-79408582D01*
X64773650Y-79337369D01*
X64773644Y-79337362D01*
X64770310Y-79332108D01*
X64765773Y-79327848D01*
X64765771Y-79327845D01*
X64656203Y-79224954D01*
X64656202Y-79224953D01*
X64651661Y-79220689D01*
X64646199Y-79217686D01*
X64514489Y-79145278D01*
X64514485Y-79145277D01*
X64509031Y-79142278D01*
X64503005Y-79140731D01*
X64503003Y-79140730D01*
X64357416Y-79103349D01*
X64357412Y-79103348D01*
X64351381Y-79101800D01*
X64229472Y-79101800D01*
X64138596Y-79113281D01*
X64114702Y-79116299D01*
X64114701Y-79116299D01*
X64108521Y-79117080D01*
X63957188Y-79176997D01*
X63952149Y-79180658D01*
X63930686Y-79196252D01*
X63825510Y-79272666D01*
X63721761Y-79398077D01*
X63719107Y-79403717D01*
X63716021Y-79408580D01*
X63668877Y-79447582D01*
X63607813Y-79451425D01*
X63556152Y-79418642D01*
X63548843Y-79408582D01*
X63503650Y-79337369D01*
X63503644Y-79337362D01*
X63500310Y-79332108D01*
X63495773Y-79327848D01*
X63495771Y-79327845D01*
X63386203Y-79224954D01*
X63386202Y-79224953D01*
X63381661Y-79220689D01*
X63376199Y-79217686D01*
X63244489Y-79145278D01*
X63244485Y-79145277D01*
X63239031Y-79142278D01*
X63233005Y-79140731D01*
X63233003Y-79140730D01*
X63087416Y-79103349D01*
X63087412Y-79103348D01*
X63081381Y-79101800D01*
X62959472Y-79101800D01*
X62868596Y-79113281D01*
X62844702Y-79116299D01*
X62844701Y-79116299D01*
X62838521Y-79117080D01*
X62687188Y-79176997D01*
X62682149Y-79180658D01*
X62660686Y-79196252D01*
X62555510Y-79272666D01*
X62451761Y-79398077D01*
X62449107Y-79403717D01*
X62446021Y-79408580D01*
X62398877Y-79447582D01*
X62337813Y-79451425D01*
X62286152Y-79418642D01*
X62278843Y-79408582D01*
X62233650Y-79337369D01*
X62233644Y-79337362D01*
X62230310Y-79332108D01*
X62225773Y-79327848D01*
X62225771Y-79327845D01*
X62116203Y-79224954D01*
X62116202Y-79224953D01*
X62111661Y-79220689D01*
X62106199Y-79217686D01*
X61974489Y-79145278D01*
X61974485Y-79145277D01*
X61969031Y-79142278D01*
X61963005Y-79140731D01*
X61963003Y-79140730D01*
X61817416Y-79103349D01*
X61817412Y-79103348D01*
X61811381Y-79101800D01*
X61689472Y-79101800D01*
X61598596Y-79113281D01*
X61574702Y-79116299D01*
X61574701Y-79116299D01*
X61568521Y-79117080D01*
X61417188Y-79176997D01*
X61412149Y-79180658D01*
X61390686Y-79196252D01*
X61285510Y-79272666D01*
X61181761Y-79398077D01*
X61179107Y-79403717D01*
X61176021Y-79408580D01*
X61128877Y-79447582D01*
X61067813Y-79451425D01*
X61016152Y-79418642D01*
X61008843Y-79408582D01*
X60963650Y-79337369D01*
X60963644Y-79337362D01*
X60960310Y-79332108D01*
X60955773Y-79327848D01*
X60955771Y-79327845D01*
X60846203Y-79224954D01*
X60846202Y-79224953D01*
X60841661Y-79220689D01*
X60836199Y-79217686D01*
X60704489Y-79145278D01*
X60704485Y-79145277D01*
X60699031Y-79142278D01*
X60693005Y-79140731D01*
X60693003Y-79140730D01*
X60547416Y-79103349D01*
X60547412Y-79103348D01*
X60541381Y-79101800D01*
X60419472Y-79101800D01*
X60328596Y-79113281D01*
X60304702Y-79116299D01*
X60304701Y-79116299D01*
X60298521Y-79117080D01*
X60147188Y-79176997D01*
X60142149Y-79180658D01*
X60120686Y-79196252D01*
X60015510Y-79272666D01*
X59911761Y-79398077D01*
X59909110Y-79403710D01*
X59909109Y-79403712D01*
X59895600Y-79432421D01*
X59842460Y-79545349D01*
X59811961Y-79705229D01*
X59812352Y-79711441D01*
X59811960Y-79717664D01*
X59810038Y-79717543D01*
X59796990Y-79768367D01*
X59749846Y-79807369D01*
X59696156Y-79811175D01*
X59695926Y-79812626D01*
X59692074Y-79812016D01*
X59688301Y-79811110D01*
X59684436Y-79810806D01*
X59684431Y-79810805D01*
X59517805Y-79797691D01*
X59511750Y-79796757D01*
X59511749Y-79796767D01*
X59506181Y-79796126D01*
X59500715Y-79794859D01*
X59499999Y-79794858D01*
X59494550Y-79796101D01*
X59488320Y-79797522D01*
X59466303Y-79800001D01*
X58033959Y-79800001D01*
X58011772Y-79797483D01*
X58011221Y-79797356D01*
X58011220Y-79797356D01*
X58000357Y-79794858D01*
X57989484Y-79797318D01*
X57979202Y-79797300D01*
X57968218Y-79798216D01*
X57692045Y-79782706D01*
X57681023Y-79781465D01*
X57470604Y-79745713D01*
X57382427Y-79730731D01*
X57371603Y-79728261D01*
X57270428Y-79699113D01*
X57080554Y-79644411D01*
X57070081Y-79640746D01*
X56790260Y-79524841D01*
X56780263Y-79520027D01*
X56515176Y-79373518D01*
X56505778Y-79367613D01*
X56366801Y-79269004D01*
X56258760Y-79192345D01*
X56250083Y-79185425D01*
X56205159Y-79145278D01*
X56084777Y-79037699D01*
X56024246Y-78983605D01*
X56016395Y-78975754D01*
X55814575Y-78749917D01*
X55807653Y-78741237D01*
X55807653Y-78741236D01*
X55632386Y-78494221D01*
X55626481Y-78484822D01*
X55479976Y-78219743D01*
X55475159Y-78209740D01*
X55359254Y-77929919D01*
X55355587Y-77919441D01*
X55310502Y-77762945D01*
X55271739Y-77628396D01*
X55269269Y-77617573D01*
X55254287Y-77529396D01*
X55218535Y-77318977D01*
X55217293Y-77307950D01*
X55214329Y-77255157D01*
X55214039Y-77250000D01*
X58369679Y-77250000D01*
X58388916Y-77433029D01*
X58390517Y-77437956D01*
X58390518Y-77437961D01*
X58429804Y-77558868D01*
X58445787Y-77608059D01*
X58448379Y-77612548D01*
X58448381Y-77612553D01*
X58479373Y-77666232D01*
X58537806Y-77767440D01*
X58541274Y-77771292D01*
X58541278Y-77771297D01*
X58657481Y-77900354D01*
X58657485Y-77900358D01*
X58660951Y-77904207D01*
X58809840Y-78012381D01*
X58814572Y-78014488D01*
X58814574Y-78014489D01*
X58973227Y-78085126D01*
X58973230Y-78085127D01*
X58977967Y-78087236D01*
X58983040Y-78088314D01*
X58983039Y-78088314D01*
X59112207Y-78115770D01*
X59157982Y-78125500D01*
X59342020Y-78125500D01*
X59387796Y-78115770D01*
X59516963Y-78088314D01*
X59516962Y-78088314D01*
X59522035Y-78087236D01*
X59526772Y-78085127D01*
X59526775Y-78085126D01*
X59685428Y-78014489D01*
X59685430Y-78014488D01*
X59690162Y-78012381D01*
X59783251Y-77944748D01*
X60374501Y-77944748D01*
X60375449Y-77949512D01*
X60383545Y-77990213D01*
X60386134Y-78003231D01*
X60430449Y-78069552D01*
X60496770Y-78113867D01*
X60506333Y-78115769D01*
X60506335Y-78115770D01*
X60529006Y-78120279D01*
X60555253Y-78125500D01*
X61944749Y-78125500D01*
X61970996Y-78120279D01*
X61993667Y-78115770D01*
X61993669Y-78115769D01*
X62003232Y-78113867D01*
X62069553Y-78069552D01*
X62113868Y-78003231D01*
X62116458Y-77990213D01*
X62124553Y-77949512D01*
X62125501Y-77944748D01*
X62125501Y-77250000D01*
X87869679Y-77250000D01*
X87888916Y-77433029D01*
X87890517Y-77437956D01*
X87890518Y-77437961D01*
X87929804Y-77558868D01*
X87945787Y-77608059D01*
X87948379Y-77612548D01*
X87948381Y-77612553D01*
X87979373Y-77666232D01*
X88037806Y-77767440D01*
X88041274Y-77771292D01*
X88041278Y-77771297D01*
X88157481Y-77900354D01*
X88157485Y-77900358D01*
X88160951Y-77904207D01*
X88309840Y-78012381D01*
X88314572Y-78014488D01*
X88314574Y-78014489D01*
X88473227Y-78085126D01*
X88473230Y-78085127D01*
X88477967Y-78087236D01*
X88483040Y-78088314D01*
X88483039Y-78088314D01*
X88612207Y-78115770D01*
X88657982Y-78125500D01*
X88842020Y-78125500D01*
X88887796Y-78115770D01*
X89016963Y-78088314D01*
X89016962Y-78088314D01*
X89022035Y-78087236D01*
X89026772Y-78085127D01*
X89026775Y-78085126D01*
X89185428Y-78014489D01*
X89185430Y-78014488D01*
X89190162Y-78012381D01*
X89283251Y-77944748D01*
X89874501Y-77944748D01*
X89875449Y-77949512D01*
X89883545Y-77990213D01*
X89886134Y-78003231D01*
X89930449Y-78069552D01*
X89996770Y-78113867D01*
X90006333Y-78115769D01*
X90006335Y-78115770D01*
X90029006Y-78120279D01*
X90055253Y-78125500D01*
X91444749Y-78125500D01*
X91470996Y-78120279D01*
X91493667Y-78115770D01*
X91493669Y-78115769D01*
X91503232Y-78113867D01*
X91569553Y-78069552D01*
X91613868Y-78003231D01*
X91616458Y-77990213D01*
X91624553Y-77949512D01*
X91625501Y-77944748D01*
X91625501Y-77250000D01*
X96869679Y-77250000D01*
X96888916Y-77433029D01*
X96890517Y-77437956D01*
X96890518Y-77437961D01*
X96929804Y-77558868D01*
X96945787Y-77608059D01*
X96948379Y-77612548D01*
X96948381Y-77612553D01*
X96979373Y-77666232D01*
X97037806Y-77767440D01*
X97041274Y-77771292D01*
X97041278Y-77771297D01*
X97157481Y-77900354D01*
X97157485Y-77900358D01*
X97160951Y-77904207D01*
X97309840Y-78012381D01*
X97314572Y-78014488D01*
X97314574Y-78014489D01*
X97473227Y-78085126D01*
X97473230Y-78085127D01*
X97477967Y-78087236D01*
X97483040Y-78088314D01*
X97483039Y-78088314D01*
X97612207Y-78115770D01*
X97657982Y-78125500D01*
X97842020Y-78125500D01*
X97887796Y-78115770D01*
X98016963Y-78088314D01*
X98016962Y-78088314D01*
X98022035Y-78087236D01*
X98026772Y-78085127D01*
X98026775Y-78085126D01*
X98185428Y-78014489D01*
X98185430Y-78014488D01*
X98190162Y-78012381D01*
X98283251Y-77944748D01*
X98874501Y-77944748D01*
X98875449Y-77949512D01*
X98883545Y-77990213D01*
X98886134Y-78003231D01*
X98930449Y-78069552D01*
X98996770Y-78113867D01*
X99006333Y-78115769D01*
X99006335Y-78115770D01*
X99029006Y-78120279D01*
X99055253Y-78125500D01*
X100444749Y-78125500D01*
X100470996Y-78120279D01*
X100493667Y-78115770D01*
X100493669Y-78115769D01*
X100503232Y-78113867D01*
X100569553Y-78069552D01*
X100613868Y-78003231D01*
X100616458Y-77990213D01*
X100624553Y-77949512D01*
X100625501Y-77944748D01*
X100625501Y-76555252D01*
X100613868Y-76496769D01*
X100569553Y-76430448D01*
X100503232Y-76386133D01*
X100493669Y-76384231D01*
X100493667Y-76384230D01*
X100470996Y-76379721D01*
X100444749Y-76374500D01*
X99055253Y-76374500D01*
X99029006Y-76379721D01*
X99006335Y-76384230D01*
X99006333Y-76384231D01*
X98996770Y-76386133D01*
X98930449Y-76430448D01*
X98886134Y-76496769D01*
X98874501Y-76555252D01*
X98874501Y-77944748D01*
X98283251Y-77944748D01*
X98339051Y-77904207D01*
X98342517Y-77900358D01*
X98342521Y-77900354D01*
X98458724Y-77771297D01*
X98458728Y-77771292D01*
X98462196Y-77767440D01*
X98520629Y-77666232D01*
X98551621Y-77612553D01*
X98551623Y-77612548D01*
X98554215Y-77608059D01*
X98570198Y-77558868D01*
X98609484Y-77437961D01*
X98609485Y-77437956D01*
X98611086Y-77433029D01*
X98630323Y-77250000D01*
X98611086Y-77066971D01*
X98609485Y-77062044D01*
X98609484Y-77062039D01*
X98555817Y-76896872D01*
X98554215Y-76891941D01*
X98551623Y-76887452D01*
X98551621Y-76887447D01*
X98464791Y-76737055D01*
X98462196Y-76732560D01*
X98458728Y-76728708D01*
X98458724Y-76728703D01*
X98342521Y-76599646D01*
X98342517Y-76599642D01*
X98339051Y-76595793D01*
X98190162Y-76487619D01*
X98185430Y-76485512D01*
X98185428Y-76485511D01*
X98026775Y-76414874D01*
X98026772Y-76414873D01*
X98022035Y-76412764D01*
X97896748Y-76386133D01*
X97847092Y-76375578D01*
X97847091Y-76375578D01*
X97842020Y-76374500D01*
X97657982Y-76374500D01*
X97652911Y-76375578D01*
X97652910Y-76375578D01*
X97603254Y-76386133D01*
X97477967Y-76412764D01*
X97473230Y-76414873D01*
X97473227Y-76414874D01*
X97314574Y-76485511D01*
X97314572Y-76485512D01*
X97309840Y-76487619D01*
X97160951Y-76595793D01*
X97157485Y-76599642D01*
X97157481Y-76599646D01*
X97041278Y-76728703D01*
X97041274Y-76728708D01*
X97037806Y-76732560D01*
X97035211Y-76737055D01*
X96948381Y-76887447D01*
X96948379Y-76887452D01*
X96945787Y-76891941D01*
X96944185Y-76896872D01*
X96890518Y-77062039D01*
X96890517Y-77062044D01*
X96888916Y-77066971D01*
X96869679Y-77250000D01*
X91625501Y-77250000D01*
X91625501Y-76555252D01*
X91613868Y-76496769D01*
X91569553Y-76430448D01*
X91503232Y-76386133D01*
X91493669Y-76384231D01*
X91493667Y-76384230D01*
X91470996Y-76379721D01*
X91444749Y-76374500D01*
X90055253Y-76374500D01*
X90029006Y-76379721D01*
X90006335Y-76384230D01*
X90006333Y-76384231D01*
X89996770Y-76386133D01*
X89930449Y-76430448D01*
X89886134Y-76496769D01*
X89874501Y-76555252D01*
X89874501Y-77944748D01*
X89283251Y-77944748D01*
X89339051Y-77904207D01*
X89342517Y-77900358D01*
X89342521Y-77900354D01*
X89458724Y-77771297D01*
X89458728Y-77771292D01*
X89462196Y-77767440D01*
X89520629Y-77666232D01*
X89551621Y-77612553D01*
X89551623Y-77612548D01*
X89554215Y-77608059D01*
X89570198Y-77558868D01*
X89609484Y-77437961D01*
X89609485Y-77437956D01*
X89611086Y-77433029D01*
X89630323Y-77250000D01*
X89611086Y-77066971D01*
X89609485Y-77062044D01*
X89609484Y-77062039D01*
X89555817Y-76896872D01*
X89554215Y-76891941D01*
X89551623Y-76887452D01*
X89551621Y-76887447D01*
X89464791Y-76737055D01*
X89462196Y-76732560D01*
X89458728Y-76728708D01*
X89458724Y-76728703D01*
X89342521Y-76599646D01*
X89342517Y-76599642D01*
X89339051Y-76595793D01*
X89190162Y-76487619D01*
X89185430Y-76485512D01*
X89185428Y-76485511D01*
X89026775Y-76414874D01*
X89026772Y-76414873D01*
X89022035Y-76412764D01*
X88896748Y-76386133D01*
X88847092Y-76375578D01*
X88847091Y-76375578D01*
X88842020Y-76374500D01*
X88657982Y-76374500D01*
X88652911Y-76375578D01*
X88652910Y-76375578D01*
X88603254Y-76386133D01*
X88477967Y-76412764D01*
X88473230Y-76414873D01*
X88473227Y-76414874D01*
X88314574Y-76485511D01*
X88314572Y-76485512D01*
X88309840Y-76487619D01*
X88160951Y-76595793D01*
X88157485Y-76599642D01*
X88157481Y-76599646D01*
X88041278Y-76728703D01*
X88041274Y-76728708D01*
X88037806Y-76732560D01*
X88035211Y-76737055D01*
X87948381Y-76887447D01*
X87948379Y-76887452D01*
X87945787Y-76891941D01*
X87944185Y-76896872D01*
X87890518Y-77062039D01*
X87890517Y-77062044D01*
X87888916Y-77066971D01*
X87869679Y-77250000D01*
X62125501Y-77250000D01*
X62125501Y-76555252D01*
X62113868Y-76496769D01*
X62069553Y-76430448D01*
X62003232Y-76386133D01*
X61993669Y-76384231D01*
X61993667Y-76384230D01*
X61970996Y-76379721D01*
X61944749Y-76374500D01*
X60555253Y-76374500D01*
X60529006Y-76379721D01*
X60506335Y-76384230D01*
X60506333Y-76384231D01*
X60496770Y-76386133D01*
X60430449Y-76430448D01*
X60386134Y-76496769D01*
X60374501Y-76555252D01*
X60374501Y-77944748D01*
X59783251Y-77944748D01*
X59839051Y-77904207D01*
X59842517Y-77900358D01*
X59842521Y-77900354D01*
X59958724Y-77771297D01*
X59958728Y-77771292D01*
X59962196Y-77767440D01*
X60020629Y-77666232D01*
X60051621Y-77612553D01*
X60051623Y-77612548D01*
X60054215Y-77608059D01*
X60070198Y-77558868D01*
X60109484Y-77437961D01*
X60109485Y-77437956D01*
X60111086Y-77433029D01*
X60130323Y-77250000D01*
X60111086Y-77066971D01*
X60109485Y-77062044D01*
X60109484Y-77062039D01*
X60055817Y-76896872D01*
X60054215Y-76891941D01*
X60051623Y-76887452D01*
X60051621Y-76887447D01*
X59964791Y-76737055D01*
X59962196Y-76732560D01*
X59958728Y-76728708D01*
X59958724Y-76728703D01*
X59842521Y-76599646D01*
X59842517Y-76599642D01*
X59839051Y-76595793D01*
X59690162Y-76487619D01*
X59685430Y-76485512D01*
X59685428Y-76485511D01*
X59526775Y-76414874D01*
X59526772Y-76414873D01*
X59522035Y-76412764D01*
X59396748Y-76386133D01*
X59347092Y-76375578D01*
X59347091Y-76375578D01*
X59342020Y-76374500D01*
X59157982Y-76374500D01*
X59152911Y-76375578D01*
X59152910Y-76375578D01*
X59103254Y-76386133D01*
X58977967Y-76412764D01*
X58973230Y-76414873D01*
X58973227Y-76414874D01*
X58814574Y-76485511D01*
X58814572Y-76485512D01*
X58809840Y-76487619D01*
X58660951Y-76595793D01*
X58657485Y-76599642D01*
X58657481Y-76599646D01*
X58541278Y-76728703D01*
X58541274Y-76728708D01*
X58537806Y-76732560D01*
X58535211Y-76737055D01*
X58448381Y-76887447D01*
X58448379Y-76887452D01*
X58445787Y-76891941D01*
X58444185Y-76896872D01*
X58390518Y-77062039D01*
X58390517Y-77062044D01*
X58388916Y-77066971D01*
X58369679Y-77250000D01*
X55214039Y-77250000D01*
X55201813Y-77032298D01*
X55202658Y-77022371D01*
X55202624Y-77022371D01*
X55202644Y-77011224D01*
X55205142Y-77000359D01*
X55202682Y-76989487D01*
X55202682Y-76989485D01*
X55202440Y-76988418D01*
X55199999Y-76966569D01*
X55199999Y-75250000D01*
X58369679Y-75250000D01*
X58388916Y-75433029D01*
X58390517Y-75437956D01*
X58390518Y-75437961D01*
X58403938Y-75479262D01*
X58445787Y-75608059D01*
X58448379Y-75612548D01*
X58448381Y-75612553D01*
X58511627Y-75722097D01*
X58537806Y-75767440D01*
X58541274Y-75771292D01*
X58541278Y-75771297D01*
X58657481Y-75900354D01*
X58657485Y-75900358D01*
X58660951Y-75904207D01*
X58809840Y-76012381D01*
X58814572Y-76014488D01*
X58814574Y-76014489D01*
X58973227Y-76085126D01*
X58973230Y-76085127D01*
X58977967Y-76087236D01*
X59157982Y-76125500D01*
X59342020Y-76125500D01*
X59522035Y-76087236D01*
X59526772Y-76085127D01*
X59526775Y-76085126D01*
X59685428Y-76014489D01*
X59685430Y-76014488D01*
X59690162Y-76012381D01*
X59839051Y-75904207D01*
X59842517Y-75900358D01*
X59842521Y-75900354D01*
X59958724Y-75771297D01*
X59958728Y-75771292D01*
X59962196Y-75767440D01*
X59988375Y-75722097D01*
X60051621Y-75612553D01*
X60051623Y-75612548D01*
X60054215Y-75608059D01*
X60096064Y-75479262D01*
X60109484Y-75437961D01*
X60109485Y-75437956D01*
X60111086Y-75433029D01*
X60130323Y-75250000D01*
X60369679Y-75250000D01*
X60388916Y-75433029D01*
X60390517Y-75437956D01*
X60390518Y-75437961D01*
X60403938Y-75479262D01*
X60445787Y-75608059D01*
X60448379Y-75612548D01*
X60448381Y-75612553D01*
X60511627Y-75722097D01*
X60537806Y-75767440D01*
X60541274Y-75771292D01*
X60541278Y-75771297D01*
X60657481Y-75900354D01*
X60657485Y-75900358D01*
X60660951Y-75904207D01*
X60809840Y-76012381D01*
X60814572Y-76014488D01*
X60814574Y-76014489D01*
X60973227Y-76085126D01*
X60973230Y-76085127D01*
X60977967Y-76087236D01*
X61157982Y-76125500D01*
X61342020Y-76125500D01*
X61522035Y-76087236D01*
X61526772Y-76085127D01*
X61526775Y-76085126D01*
X61685428Y-76014489D01*
X61685430Y-76014488D01*
X61690162Y-76012381D01*
X61839051Y-75904207D01*
X61842517Y-75900358D01*
X61842521Y-75900354D01*
X61958724Y-75771297D01*
X61958728Y-75771292D01*
X61962196Y-75767440D01*
X61988375Y-75722097D01*
X62051621Y-75612553D01*
X62051623Y-75612548D01*
X62054215Y-75608059D01*
X62096064Y-75479262D01*
X62109484Y-75437961D01*
X62109485Y-75437956D01*
X62111086Y-75433029D01*
X62130323Y-75250000D01*
X87869679Y-75250000D01*
X87888916Y-75433029D01*
X87890517Y-75437956D01*
X87890518Y-75437961D01*
X87903938Y-75479262D01*
X87945787Y-75608059D01*
X87948379Y-75612548D01*
X87948381Y-75612553D01*
X88011627Y-75722097D01*
X88037806Y-75767440D01*
X88041274Y-75771292D01*
X88041278Y-75771297D01*
X88157481Y-75900354D01*
X88157485Y-75900358D01*
X88160951Y-75904207D01*
X88309840Y-76012381D01*
X88314572Y-76014488D01*
X88314574Y-76014489D01*
X88473227Y-76085126D01*
X88473230Y-76085127D01*
X88477967Y-76087236D01*
X88657982Y-76125500D01*
X88842020Y-76125500D01*
X89022035Y-76087236D01*
X89026772Y-76085127D01*
X89026775Y-76085126D01*
X89185428Y-76014489D01*
X89185430Y-76014488D01*
X89190162Y-76012381D01*
X89339051Y-75904207D01*
X89342517Y-75900358D01*
X89342521Y-75900354D01*
X89458724Y-75771297D01*
X89458728Y-75771292D01*
X89462196Y-75767440D01*
X89488375Y-75722097D01*
X89551621Y-75612553D01*
X89551623Y-75612548D01*
X89554215Y-75608059D01*
X89596064Y-75479262D01*
X89609484Y-75437961D01*
X89609485Y-75437956D01*
X89611086Y-75433029D01*
X89630323Y-75250000D01*
X89869679Y-75250000D01*
X89888916Y-75433029D01*
X89890517Y-75437956D01*
X89890518Y-75437961D01*
X89903938Y-75479262D01*
X89945787Y-75608059D01*
X89948379Y-75612548D01*
X89948381Y-75612553D01*
X90011627Y-75722097D01*
X90037806Y-75767440D01*
X90041274Y-75771292D01*
X90041278Y-75771297D01*
X90157481Y-75900354D01*
X90157485Y-75900358D01*
X90160951Y-75904207D01*
X90309840Y-76012381D01*
X90314572Y-76014488D01*
X90314574Y-76014489D01*
X90473227Y-76085126D01*
X90473230Y-76085127D01*
X90477967Y-76087236D01*
X90657982Y-76125500D01*
X90842020Y-76125500D01*
X91022035Y-76087236D01*
X91026772Y-76085127D01*
X91026775Y-76085126D01*
X91185428Y-76014489D01*
X91185430Y-76014488D01*
X91190162Y-76012381D01*
X91339051Y-75904207D01*
X91342517Y-75900358D01*
X91342521Y-75900354D01*
X91458724Y-75771297D01*
X91458728Y-75771292D01*
X91462196Y-75767440D01*
X91488375Y-75722097D01*
X91551621Y-75612553D01*
X91551623Y-75612548D01*
X91554215Y-75608059D01*
X91596064Y-75479262D01*
X91609484Y-75437961D01*
X91609485Y-75437956D01*
X91611086Y-75433029D01*
X91630323Y-75250000D01*
X96869679Y-75250000D01*
X96888916Y-75433029D01*
X96890517Y-75437956D01*
X96890518Y-75437961D01*
X96903938Y-75479262D01*
X96945787Y-75608059D01*
X96948379Y-75612548D01*
X96948381Y-75612553D01*
X97011627Y-75722097D01*
X97037806Y-75767440D01*
X97041274Y-75771292D01*
X97041278Y-75771297D01*
X97157481Y-75900354D01*
X97157485Y-75900358D01*
X97160951Y-75904207D01*
X97309840Y-76012381D01*
X97314572Y-76014488D01*
X97314574Y-76014489D01*
X97473227Y-76085126D01*
X97473230Y-76085127D01*
X97477967Y-76087236D01*
X97657982Y-76125500D01*
X97842020Y-76125500D01*
X98022035Y-76087236D01*
X98026772Y-76085127D01*
X98026775Y-76085126D01*
X98185428Y-76014489D01*
X98185430Y-76014488D01*
X98190162Y-76012381D01*
X98339051Y-75904207D01*
X98342517Y-75900358D01*
X98342521Y-75900354D01*
X98458724Y-75771297D01*
X98458728Y-75771292D01*
X98462196Y-75767440D01*
X98488375Y-75722097D01*
X98551621Y-75612553D01*
X98551623Y-75612548D01*
X98554215Y-75608059D01*
X98596064Y-75479262D01*
X98609484Y-75437961D01*
X98609485Y-75437956D01*
X98611086Y-75433029D01*
X98630323Y-75250000D01*
X98869679Y-75250000D01*
X98888916Y-75433029D01*
X98890517Y-75437956D01*
X98890518Y-75437961D01*
X98903938Y-75479262D01*
X98945787Y-75608059D01*
X98948379Y-75612548D01*
X98948381Y-75612553D01*
X99011627Y-75722097D01*
X99037806Y-75767440D01*
X99041274Y-75771292D01*
X99041278Y-75771297D01*
X99157481Y-75900354D01*
X99157485Y-75900358D01*
X99160951Y-75904207D01*
X99309840Y-76012381D01*
X99314572Y-76014488D01*
X99314574Y-76014489D01*
X99473227Y-76085126D01*
X99473230Y-76085127D01*
X99477967Y-76087236D01*
X99657982Y-76125500D01*
X99842020Y-76125500D01*
X100022035Y-76087236D01*
X100026772Y-76085127D01*
X100026775Y-76085126D01*
X100185428Y-76014489D01*
X100185430Y-76014488D01*
X100190162Y-76012381D01*
X100339051Y-75904207D01*
X100342517Y-75900358D01*
X100342521Y-75900354D01*
X100458724Y-75771297D01*
X100458728Y-75771292D01*
X100462196Y-75767440D01*
X100488375Y-75722097D01*
X100551621Y-75612553D01*
X100551623Y-75612548D01*
X100554215Y-75608059D01*
X100596064Y-75479262D01*
X100609484Y-75437961D01*
X100609485Y-75437956D01*
X100611086Y-75433029D01*
X100630323Y-75250000D01*
X100611086Y-75066971D01*
X100609485Y-75062044D01*
X100609484Y-75062039D01*
X100555817Y-74896872D01*
X100554215Y-74891941D01*
X100551623Y-74887452D01*
X100551621Y-74887447D01*
X100464791Y-74737055D01*
X100462196Y-74732560D01*
X100458728Y-74728708D01*
X100458724Y-74728703D01*
X100342521Y-74599646D01*
X100342517Y-74599642D01*
X100339051Y-74595793D01*
X100190162Y-74487619D01*
X100185430Y-74485512D01*
X100185428Y-74485511D01*
X100026775Y-74414874D01*
X100026772Y-74414873D01*
X100022035Y-74412764D01*
X99842020Y-74374500D01*
X99657982Y-74374500D01*
X99477967Y-74412764D01*
X99473230Y-74414873D01*
X99473227Y-74414874D01*
X99314574Y-74485511D01*
X99314572Y-74485512D01*
X99309840Y-74487619D01*
X99160951Y-74595793D01*
X99157485Y-74599642D01*
X99157481Y-74599646D01*
X99041278Y-74728703D01*
X99041274Y-74728708D01*
X99037806Y-74732560D01*
X99035211Y-74737055D01*
X98948381Y-74887447D01*
X98948379Y-74887452D01*
X98945787Y-74891941D01*
X98944185Y-74896872D01*
X98890518Y-75062039D01*
X98890517Y-75062044D01*
X98888916Y-75066971D01*
X98869679Y-75250000D01*
X98630323Y-75250000D01*
X98611086Y-75066971D01*
X98609485Y-75062044D01*
X98609484Y-75062039D01*
X98555817Y-74896872D01*
X98554215Y-74891941D01*
X98551623Y-74887452D01*
X98551621Y-74887447D01*
X98464791Y-74737055D01*
X98462196Y-74732560D01*
X98458728Y-74728708D01*
X98458724Y-74728703D01*
X98342521Y-74599646D01*
X98342517Y-74599642D01*
X98339051Y-74595793D01*
X98190162Y-74487619D01*
X98185430Y-74485512D01*
X98185428Y-74485511D01*
X98026775Y-74414874D01*
X98026772Y-74414873D01*
X98022035Y-74412764D01*
X97842020Y-74374500D01*
X97657982Y-74374500D01*
X97477967Y-74412764D01*
X97473230Y-74414873D01*
X97473227Y-74414874D01*
X97314574Y-74485511D01*
X97314572Y-74485512D01*
X97309840Y-74487619D01*
X97160951Y-74595793D01*
X97157485Y-74599642D01*
X97157481Y-74599646D01*
X97041278Y-74728703D01*
X97041274Y-74728708D01*
X97037806Y-74732560D01*
X97035211Y-74737055D01*
X96948381Y-74887447D01*
X96948379Y-74887452D01*
X96945787Y-74891941D01*
X96944185Y-74896872D01*
X96890518Y-75062039D01*
X96890517Y-75062044D01*
X96888916Y-75066971D01*
X96869679Y-75250000D01*
X91630323Y-75250000D01*
X91611086Y-75066971D01*
X91609485Y-75062044D01*
X91609484Y-75062039D01*
X91555817Y-74896872D01*
X91554215Y-74891941D01*
X91551623Y-74887452D01*
X91551621Y-74887447D01*
X91464791Y-74737055D01*
X91462196Y-74732560D01*
X91458728Y-74728708D01*
X91458724Y-74728703D01*
X91342521Y-74599646D01*
X91342517Y-74599642D01*
X91339051Y-74595793D01*
X91190162Y-74487619D01*
X91185430Y-74485512D01*
X91185428Y-74485511D01*
X91026775Y-74414874D01*
X91026772Y-74414873D01*
X91022035Y-74412764D01*
X90842020Y-74374500D01*
X90657982Y-74374500D01*
X90477967Y-74412764D01*
X90473230Y-74414873D01*
X90473227Y-74414874D01*
X90314574Y-74485511D01*
X90314572Y-74485512D01*
X90309840Y-74487619D01*
X90160951Y-74595793D01*
X90157485Y-74599642D01*
X90157481Y-74599646D01*
X90041278Y-74728703D01*
X90041274Y-74728708D01*
X90037806Y-74732560D01*
X90035211Y-74737055D01*
X89948381Y-74887447D01*
X89948379Y-74887452D01*
X89945787Y-74891941D01*
X89944185Y-74896872D01*
X89890518Y-75062039D01*
X89890517Y-75062044D01*
X89888916Y-75066971D01*
X89869679Y-75250000D01*
X89630323Y-75250000D01*
X89611086Y-75066971D01*
X89609485Y-75062044D01*
X89609484Y-75062039D01*
X89555817Y-74896872D01*
X89554215Y-74891941D01*
X89551623Y-74887452D01*
X89551621Y-74887447D01*
X89464791Y-74737055D01*
X89462196Y-74732560D01*
X89458728Y-74728708D01*
X89458724Y-74728703D01*
X89342521Y-74599646D01*
X89342517Y-74599642D01*
X89339051Y-74595793D01*
X89190162Y-74487619D01*
X89185430Y-74485512D01*
X89185428Y-74485511D01*
X89026775Y-74414874D01*
X89026772Y-74414873D01*
X89022035Y-74412764D01*
X88842020Y-74374500D01*
X88657982Y-74374500D01*
X88477967Y-74412764D01*
X88473230Y-74414873D01*
X88473227Y-74414874D01*
X88314574Y-74485511D01*
X88314572Y-74485512D01*
X88309840Y-74487619D01*
X88160951Y-74595793D01*
X88157485Y-74599642D01*
X88157481Y-74599646D01*
X88041278Y-74728703D01*
X88041274Y-74728708D01*
X88037806Y-74732560D01*
X88035211Y-74737055D01*
X87948381Y-74887447D01*
X87948379Y-74887452D01*
X87945787Y-74891941D01*
X87944185Y-74896872D01*
X87890518Y-75062039D01*
X87890517Y-75062044D01*
X87888916Y-75066971D01*
X87869679Y-75250000D01*
X62130323Y-75250000D01*
X62111086Y-75066971D01*
X62109485Y-75062044D01*
X62109484Y-75062039D01*
X62055817Y-74896872D01*
X62054215Y-74891941D01*
X62051623Y-74887452D01*
X62051621Y-74887447D01*
X61964791Y-74737055D01*
X61962196Y-74732560D01*
X61958728Y-74728708D01*
X61958724Y-74728703D01*
X61842521Y-74599646D01*
X61842517Y-74599642D01*
X61839051Y-74595793D01*
X61690162Y-74487619D01*
X61685430Y-74485512D01*
X61685428Y-74485511D01*
X61526775Y-74414874D01*
X61526772Y-74414873D01*
X61522035Y-74412764D01*
X61342020Y-74374500D01*
X61157982Y-74374500D01*
X60977967Y-74412764D01*
X60973230Y-74414873D01*
X60973227Y-74414874D01*
X60814574Y-74485511D01*
X60814572Y-74485512D01*
X60809840Y-74487619D01*
X60660951Y-74595793D01*
X60657485Y-74599642D01*
X60657481Y-74599646D01*
X60541278Y-74728703D01*
X60541274Y-74728708D01*
X60537806Y-74732560D01*
X60535211Y-74737055D01*
X60448381Y-74887447D01*
X60448379Y-74887452D01*
X60445787Y-74891941D01*
X60444185Y-74896872D01*
X60390518Y-75062039D01*
X60390517Y-75062044D01*
X60388916Y-75066971D01*
X60369679Y-75250000D01*
X60130323Y-75250000D01*
X60111086Y-75066971D01*
X60109485Y-75062044D01*
X60109484Y-75062039D01*
X60055817Y-74896872D01*
X60054215Y-74891941D01*
X60051623Y-74887452D01*
X60051621Y-74887447D01*
X59964791Y-74737055D01*
X59962196Y-74732560D01*
X59958728Y-74728708D01*
X59958724Y-74728703D01*
X59842521Y-74599646D01*
X59842517Y-74599642D01*
X59839051Y-74595793D01*
X59690162Y-74487619D01*
X59685430Y-74485512D01*
X59685428Y-74485511D01*
X59526775Y-74414874D01*
X59526772Y-74414873D01*
X59522035Y-74412764D01*
X59342020Y-74374500D01*
X59157982Y-74374500D01*
X58977967Y-74412764D01*
X58973230Y-74414873D01*
X58973227Y-74414874D01*
X58814574Y-74485511D01*
X58814572Y-74485512D01*
X58809840Y-74487619D01*
X58660951Y-74595793D01*
X58657485Y-74599642D01*
X58657481Y-74599646D01*
X58541278Y-74728703D01*
X58541274Y-74728708D01*
X58537806Y-74732560D01*
X58535211Y-74737055D01*
X58448381Y-74887447D01*
X58448379Y-74887452D01*
X58445787Y-74891941D01*
X58444185Y-74896872D01*
X58390518Y-75062039D01*
X58390517Y-75062044D01*
X58388916Y-75066971D01*
X58369679Y-75250000D01*
X55199999Y-75250000D01*
X55200000Y-73250000D01*
X58369679Y-73250000D01*
X58388916Y-73433029D01*
X58390517Y-73437956D01*
X58390518Y-73437961D01*
X58426039Y-73547280D01*
X58445787Y-73608059D01*
X58448379Y-73612548D01*
X58448381Y-73612553D01*
X58508276Y-73716292D01*
X58537806Y-73767440D01*
X58541274Y-73771292D01*
X58541278Y-73771297D01*
X58657481Y-73900354D01*
X58657485Y-73900358D01*
X58660951Y-73904207D01*
X58809840Y-74012381D01*
X58814572Y-74014488D01*
X58814574Y-74014489D01*
X58973227Y-74085126D01*
X58973230Y-74085127D01*
X58977967Y-74087236D01*
X59157982Y-74125500D01*
X59342020Y-74125500D01*
X59522035Y-74087236D01*
X59526772Y-74085127D01*
X59526775Y-74085126D01*
X59685428Y-74014489D01*
X59685430Y-74014488D01*
X59690162Y-74012381D01*
X59839051Y-73904207D01*
X59842517Y-73900358D01*
X59842521Y-73900354D01*
X59958724Y-73771297D01*
X59958728Y-73771292D01*
X59962196Y-73767440D01*
X59991726Y-73716292D01*
X60051621Y-73612553D01*
X60051623Y-73612548D01*
X60054215Y-73608059D01*
X60073963Y-73547280D01*
X60109484Y-73437961D01*
X60109485Y-73437956D01*
X60111086Y-73433029D01*
X60130323Y-73250000D01*
X60369679Y-73250000D01*
X60388916Y-73433029D01*
X60390517Y-73437956D01*
X60390518Y-73437961D01*
X60426039Y-73547280D01*
X60445787Y-73608059D01*
X60448379Y-73612548D01*
X60448381Y-73612553D01*
X60508276Y-73716292D01*
X60537806Y-73767440D01*
X60541274Y-73771292D01*
X60541278Y-73771297D01*
X60657481Y-73900354D01*
X60657485Y-73900358D01*
X60660951Y-73904207D01*
X60809840Y-74012381D01*
X60814572Y-74014488D01*
X60814574Y-74014489D01*
X60973227Y-74085126D01*
X60973230Y-74085127D01*
X60977967Y-74087236D01*
X61157982Y-74125500D01*
X61342020Y-74125500D01*
X61522035Y-74087236D01*
X61526772Y-74085127D01*
X61526775Y-74085126D01*
X61685428Y-74014489D01*
X61685430Y-74014488D01*
X61690162Y-74012381D01*
X61839051Y-73904207D01*
X61842517Y-73900358D01*
X61842521Y-73900354D01*
X61958724Y-73771297D01*
X61958728Y-73771292D01*
X61962196Y-73767440D01*
X61991726Y-73716292D01*
X62051621Y-73612553D01*
X62051623Y-73612548D01*
X62054215Y-73608059D01*
X62073963Y-73547280D01*
X62109484Y-73437961D01*
X62109485Y-73437956D01*
X62111086Y-73433029D01*
X62130323Y-73250000D01*
X87869679Y-73250000D01*
X87888916Y-73433029D01*
X87890517Y-73437956D01*
X87890518Y-73437961D01*
X87926039Y-73547280D01*
X87945787Y-73608059D01*
X87948379Y-73612548D01*
X87948381Y-73612553D01*
X88008276Y-73716292D01*
X88037806Y-73767440D01*
X88041274Y-73771292D01*
X88041278Y-73771297D01*
X88157481Y-73900354D01*
X88157485Y-73900358D01*
X88160951Y-73904207D01*
X88309840Y-74012381D01*
X88314572Y-74014488D01*
X88314574Y-74014489D01*
X88473227Y-74085126D01*
X88473230Y-74085127D01*
X88477967Y-74087236D01*
X88657982Y-74125500D01*
X88842020Y-74125500D01*
X89022035Y-74087236D01*
X89026772Y-74085127D01*
X89026775Y-74085126D01*
X89185428Y-74014489D01*
X89185430Y-74014488D01*
X89190162Y-74012381D01*
X89339051Y-73904207D01*
X89342517Y-73900358D01*
X89342521Y-73900354D01*
X89458724Y-73771297D01*
X89458728Y-73771292D01*
X89462196Y-73767440D01*
X89491726Y-73716292D01*
X89551621Y-73612553D01*
X89551623Y-73612548D01*
X89554215Y-73608059D01*
X89573963Y-73547280D01*
X89609484Y-73437961D01*
X89609485Y-73437956D01*
X89611086Y-73433029D01*
X89630323Y-73250000D01*
X89869679Y-73250000D01*
X89888916Y-73433029D01*
X89890517Y-73437956D01*
X89890518Y-73437961D01*
X89926039Y-73547280D01*
X89945787Y-73608059D01*
X89948379Y-73612548D01*
X89948381Y-73612553D01*
X90008276Y-73716292D01*
X90037806Y-73767440D01*
X90041274Y-73771292D01*
X90041278Y-73771297D01*
X90157481Y-73900354D01*
X90157485Y-73900358D01*
X90160951Y-73904207D01*
X90309840Y-74012381D01*
X90314572Y-74014488D01*
X90314574Y-74014489D01*
X90473227Y-74085126D01*
X90473230Y-74085127D01*
X90477967Y-74087236D01*
X90657982Y-74125500D01*
X90842020Y-74125500D01*
X91022035Y-74087236D01*
X91026772Y-74085127D01*
X91026775Y-74085126D01*
X91185428Y-74014489D01*
X91185430Y-74014488D01*
X91190162Y-74012381D01*
X91339051Y-73904207D01*
X91342517Y-73900358D01*
X91342521Y-73900354D01*
X91458724Y-73771297D01*
X91458728Y-73771292D01*
X91462196Y-73767440D01*
X91491726Y-73716292D01*
X91551621Y-73612553D01*
X91551623Y-73612548D01*
X91554215Y-73608059D01*
X91573963Y-73547280D01*
X91609484Y-73437961D01*
X91609485Y-73437956D01*
X91611086Y-73433029D01*
X91630323Y-73250000D01*
X96869679Y-73250000D01*
X96888916Y-73433029D01*
X96890517Y-73437956D01*
X96890518Y-73437961D01*
X96926039Y-73547280D01*
X96945787Y-73608059D01*
X96948379Y-73612548D01*
X96948381Y-73612553D01*
X97008276Y-73716292D01*
X97037806Y-73767440D01*
X97041274Y-73771292D01*
X97041278Y-73771297D01*
X97157481Y-73900354D01*
X97157485Y-73900358D01*
X97160951Y-73904207D01*
X97309840Y-74012381D01*
X97314572Y-74014488D01*
X97314574Y-74014489D01*
X97473227Y-74085126D01*
X97473230Y-74085127D01*
X97477967Y-74087236D01*
X97657982Y-74125500D01*
X97842020Y-74125500D01*
X98022035Y-74087236D01*
X98026772Y-74085127D01*
X98026775Y-74085126D01*
X98185428Y-74014489D01*
X98185430Y-74014488D01*
X98190162Y-74012381D01*
X98339051Y-73904207D01*
X98342517Y-73900358D01*
X98342521Y-73900354D01*
X98458724Y-73771297D01*
X98458728Y-73771292D01*
X98462196Y-73767440D01*
X98491726Y-73716292D01*
X98551621Y-73612553D01*
X98551623Y-73612548D01*
X98554215Y-73608059D01*
X98573963Y-73547280D01*
X98609484Y-73437961D01*
X98609485Y-73437956D01*
X98611086Y-73433029D01*
X98630323Y-73250000D01*
X98869679Y-73250000D01*
X98888916Y-73433029D01*
X98890517Y-73437956D01*
X98890518Y-73437961D01*
X98926039Y-73547280D01*
X98945787Y-73608059D01*
X98948379Y-73612548D01*
X98948381Y-73612553D01*
X99008276Y-73716292D01*
X99037806Y-73767440D01*
X99041274Y-73771292D01*
X99041278Y-73771297D01*
X99157481Y-73900354D01*
X99157485Y-73900358D01*
X99160951Y-73904207D01*
X99309840Y-74012381D01*
X99314572Y-74014488D01*
X99314574Y-74014489D01*
X99473227Y-74085126D01*
X99473230Y-74085127D01*
X99477967Y-74087236D01*
X99657982Y-74125500D01*
X99842020Y-74125500D01*
X100022035Y-74087236D01*
X100026772Y-74085127D01*
X100026775Y-74085126D01*
X100185428Y-74014489D01*
X100185430Y-74014488D01*
X100190162Y-74012381D01*
X100339051Y-73904207D01*
X100342517Y-73900358D01*
X100342521Y-73900354D01*
X100458724Y-73771297D01*
X100458728Y-73771292D01*
X100462196Y-73767440D01*
X100491726Y-73716292D01*
X100551621Y-73612553D01*
X100551623Y-73612548D01*
X100554215Y-73608059D01*
X100573963Y-73547280D01*
X100609484Y-73437961D01*
X100609485Y-73437956D01*
X100611086Y-73433029D01*
X100630323Y-73250000D01*
X100611086Y-73066971D01*
X100609485Y-73062044D01*
X100609484Y-73062039D01*
X100555817Y-72896872D01*
X100554215Y-72891941D01*
X100551623Y-72887452D01*
X100551621Y-72887447D01*
X100464791Y-72737055D01*
X100462196Y-72732560D01*
X100458728Y-72728708D01*
X100458724Y-72728703D01*
X100342521Y-72599646D01*
X100342517Y-72599642D01*
X100339051Y-72595793D01*
X100190162Y-72487619D01*
X100185430Y-72485512D01*
X100185428Y-72485511D01*
X100026775Y-72414874D01*
X100026772Y-72414873D01*
X100022035Y-72412764D01*
X99842020Y-72374500D01*
X99657982Y-72374500D01*
X99477967Y-72412764D01*
X99473230Y-72414873D01*
X99473227Y-72414874D01*
X99314574Y-72485511D01*
X99314572Y-72485512D01*
X99309840Y-72487619D01*
X99160951Y-72595793D01*
X99157485Y-72599642D01*
X99157481Y-72599646D01*
X99041278Y-72728703D01*
X99041274Y-72728708D01*
X99037806Y-72732560D01*
X99035211Y-72737055D01*
X98948381Y-72887447D01*
X98948379Y-72887452D01*
X98945787Y-72891941D01*
X98944185Y-72896872D01*
X98890518Y-73062039D01*
X98890517Y-73062044D01*
X98888916Y-73066971D01*
X98869679Y-73250000D01*
X98630323Y-73250000D01*
X98611086Y-73066971D01*
X98609485Y-73062044D01*
X98609484Y-73062039D01*
X98555817Y-72896872D01*
X98554215Y-72891941D01*
X98551623Y-72887452D01*
X98551621Y-72887447D01*
X98464791Y-72737055D01*
X98462196Y-72732560D01*
X98458728Y-72728708D01*
X98458724Y-72728703D01*
X98342521Y-72599646D01*
X98342517Y-72599642D01*
X98339051Y-72595793D01*
X98190162Y-72487619D01*
X98185430Y-72485512D01*
X98185428Y-72485511D01*
X98026775Y-72414874D01*
X98026772Y-72414873D01*
X98022035Y-72412764D01*
X97842020Y-72374500D01*
X97657982Y-72374500D01*
X97477967Y-72412764D01*
X97473230Y-72414873D01*
X97473227Y-72414874D01*
X97314574Y-72485511D01*
X97314572Y-72485512D01*
X97309840Y-72487619D01*
X97160951Y-72595793D01*
X97157485Y-72599642D01*
X97157481Y-72599646D01*
X97041278Y-72728703D01*
X97041274Y-72728708D01*
X97037806Y-72732560D01*
X97035211Y-72737055D01*
X96948381Y-72887447D01*
X96948379Y-72887452D01*
X96945787Y-72891941D01*
X96944185Y-72896872D01*
X96890518Y-73062039D01*
X96890517Y-73062044D01*
X96888916Y-73066971D01*
X96869679Y-73250000D01*
X91630323Y-73250000D01*
X91611086Y-73066971D01*
X91609485Y-73062044D01*
X91609484Y-73062039D01*
X91555817Y-72896872D01*
X91554215Y-72891941D01*
X91551623Y-72887452D01*
X91551621Y-72887447D01*
X91464791Y-72737055D01*
X91462196Y-72732560D01*
X91458728Y-72728708D01*
X91458724Y-72728703D01*
X91342521Y-72599646D01*
X91342517Y-72599642D01*
X91339051Y-72595793D01*
X91190162Y-72487619D01*
X91185430Y-72485512D01*
X91185428Y-72485511D01*
X91026775Y-72414874D01*
X91026772Y-72414873D01*
X91022035Y-72412764D01*
X90842020Y-72374500D01*
X90657982Y-72374500D01*
X90477967Y-72412764D01*
X90473230Y-72414873D01*
X90473227Y-72414874D01*
X90314574Y-72485511D01*
X90314572Y-72485512D01*
X90309840Y-72487619D01*
X90160951Y-72595793D01*
X90157485Y-72599642D01*
X90157481Y-72599646D01*
X90041278Y-72728703D01*
X90041274Y-72728708D01*
X90037806Y-72732560D01*
X90035211Y-72737055D01*
X89948381Y-72887447D01*
X89948379Y-72887452D01*
X89945787Y-72891941D01*
X89944185Y-72896872D01*
X89890518Y-73062039D01*
X89890517Y-73062044D01*
X89888916Y-73066971D01*
X89869679Y-73250000D01*
X89630323Y-73250000D01*
X89611086Y-73066971D01*
X89609485Y-73062044D01*
X89609484Y-73062039D01*
X89555817Y-72896872D01*
X89554215Y-72891941D01*
X89551623Y-72887452D01*
X89551621Y-72887447D01*
X89464791Y-72737055D01*
X89462196Y-72732560D01*
X89458728Y-72728708D01*
X89458724Y-72728703D01*
X89342521Y-72599646D01*
X89342517Y-72599642D01*
X89339051Y-72595793D01*
X89190162Y-72487619D01*
X89185430Y-72485512D01*
X89185428Y-72485511D01*
X89026775Y-72414874D01*
X89026772Y-72414873D01*
X89022035Y-72412764D01*
X88842020Y-72374500D01*
X88657982Y-72374500D01*
X88477967Y-72412764D01*
X88473230Y-72414873D01*
X88473227Y-72414874D01*
X88314574Y-72485511D01*
X88314572Y-72485512D01*
X88309840Y-72487619D01*
X88160951Y-72595793D01*
X88157485Y-72599642D01*
X88157481Y-72599646D01*
X88041278Y-72728703D01*
X88041274Y-72728708D01*
X88037806Y-72732560D01*
X88035211Y-72737055D01*
X87948381Y-72887447D01*
X87948379Y-72887452D01*
X87945787Y-72891941D01*
X87944185Y-72896872D01*
X87890518Y-73062039D01*
X87890517Y-73062044D01*
X87888916Y-73066971D01*
X87869679Y-73250000D01*
X62130323Y-73250000D01*
X62111086Y-73066971D01*
X62109485Y-73062044D01*
X62109484Y-73062039D01*
X62055817Y-72896872D01*
X62054215Y-72891941D01*
X62051623Y-72887452D01*
X62051621Y-72887447D01*
X61964791Y-72737055D01*
X61962196Y-72732560D01*
X61958728Y-72728708D01*
X61958724Y-72728703D01*
X61842521Y-72599646D01*
X61842517Y-72599642D01*
X61839051Y-72595793D01*
X61690162Y-72487619D01*
X61685430Y-72485512D01*
X61685428Y-72485511D01*
X61526775Y-72414874D01*
X61526772Y-72414873D01*
X61522035Y-72412764D01*
X61342020Y-72374500D01*
X61157982Y-72374500D01*
X60977967Y-72412764D01*
X60973230Y-72414873D01*
X60973227Y-72414874D01*
X60814574Y-72485511D01*
X60814572Y-72485512D01*
X60809840Y-72487619D01*
X60660951Y-72595793D01*
X60657485Y-72599642D01*
X60657481Y-72599646D01*
X60541278Y-72728703D01*
X60541274Y-72728708D01*
X60537806Y-72732560D01*
X60535211Y-72737055D01*
X60448381Y-72887447D01*
X60448379Y-72887452D01*
X60445787Y-72891941D01*
X60444185Y-72896872D01*
X60390518Y-73062039D01*
X60390517Y-73062044D01*
X60388916Y-73066971D01*
X60369679Y-73250000D01*
X60130323Y-73250000D01*
X60111086Y-73066971D01*
X60109485Y-73062044D01*
X60109484Y-73062039D01*
X60055817Y-72896872D01*
X60054215Y-72891941D01*
X60051623Y-72887452D01*
X60051621Y-72887447D01*
X59964791Y-72737055D01*
X59962196Y-72732560D01*
X59958728Y-72728708D01*
X59958724Y-72728703D01*
X59842521Y-72599646D01*
X59842517Y-72599642D01*
X59839051Y-72595793D01*
X59690162Y-72487619D01*
X59685430Y-72485512D01*
X59685428Y-72485511D01*
X59526775Y-72414874D01*
X59526772Y-72414873D01*
X59522035Y-72412764D01*
X59342020Y-72374500D01*
X59157982Y-72374500D01*
X58977967Y-72412764D01*
X58973230Y-72414873D01*
X58973227Y-72414874D01*
X58814574Y-72485511D01*
X58814572Y-72485512D01*
X58809840Y-72487619D01*
X58660951Y-72595793D01*
X58657485Y-72599642D01*
X58657481Y-72599646D01*
X58541278Y-72728703D01*
X58541274Y-72728708D01*
X58537806Y-72732560D01*
X58535211Y-72737055D01*
X58448381Y-72887447D01*
X58448379Y-72887452D01*
X58445787Y-72891941D01*
X58444185Y-72896872D01*
X58390518Y-73062039D01*
X58390517Y-73062044D01*
X58388916Y-73066971D01*
X58369679Y-73250000D01*
X55200000Y-73250000D01*
X55200000Y-71250000D01*
X58369679Y-71250000D01*
X58388916Y-71433029D01*
X58390517Y-71437956D01*
X58390518Y-71437961D01*
X58418028Y-71522627D01*
X58445787Y-71608059D01*
X58448379Y-71612548D01*
X58448381Y-71612553D01*
X58514158Y-71726480D01*
X58537806Y-71767440D01*
X58541274Y-71771292D01*
X58541278Y-71771297D01*
X58657481Y-71900354D01*
X58657485Y-71900358D01*
X58660951Y-71904207D01*
X58809840Y-72012381D01*
X58814572Y-72014488D01*
X58814574Y-72014489D01*
X58973227Y-72085126D01*
X58973230Y-72085127D01*
X58977967Y-72087236D01*
X59157982Y-72125500D01*
X59342020Y-72125500D01*
X59522035Y-72087236D01*
X59526772Y-72085127D01*
X59526775Y-72085126D01*
X59685428Y-72014489D01*
X59685430Y-72014488D01*
X59690162Y-72012381D01*
X59839051Y-71904207D01*
X59842517Y-71900358D01*
X59842521Y-71900354D01*
X59958724Y-71771297D01*
X59958728Y-71771292D01*
X59962196Y-71767440D01*
X59985844Y-71726480D01*
X60051621Y-71612553D01*
X60051623Y-71612548D01*
X60054215Y-71608059D01*
X60081974Y-71522627D01*
X60109484Y-71437961D01*
X60109485Y-71437956D01*
X60111086Y-71433029D01*
X60130323Y-71250000D01*
X60369679Y-71250000D01*
X60388916Y-71433029D01*
X60390517Y-71437956D01*
X60390518Y-71437961D01*
X60418028Y-71522627D01*
X60445787Y-71608059D01*
X60448379Y-71612548D01*
X60448381Y-71612553D01*
X60514158Y-71726480D01*
X60537806Y-71767440D01*
X60541274Y-71771292D01*
X60541278Y-71771297D01*
X60657481Y-71900354D01*
X60657485Y-71900358D01*
X60660951Y-71904207D01*
X60809840Y-72012381D01*
X60814572Y-72014488D01*
X60814574Y-72014489D01*
X60973227Y-72085126D01*
X60973230Y-72085127D01*
X60977967Y-72087236D01*
X61157982Y-72125500D01*
X61342020Y-72125500D01*
X61522035Y-72087236D01*
X61526772Y-72085127D01*
X61526775Y-72085126D01*
X61685428Y-72014489D01*
X61685430Y-72014488D01*
X61690162Y-72012381D01*
X61839051Y-71904207D01*
X61842517Y-71900358D01*
X61842521Y-71900354D01*
X61958724Y-71771297D01*
X61958728Y-71771292D01*
X61962196Y-71767440D01*
X61985844Y-71726480D01*
X62051621Y-71612553D01*
X62051623Y-71612548D01*
X62054215Y-71608059D01*
X62081974Y-71522627D01*
X62109484Y-71437961D01*
X62109485Y-71437956D01*
X62111086Y-71433029D01*
X62130323Y-71250000D01*
X87869679Y-71250000D01*
X87888916Y-71433029D01*
X87890517Y-71437956D01*
X87890518Y-71437961D01*
X87918028Y-71522627D01*
X87945787Y-71608059D01*
X87948379Y-71612548D01*
X87948381Y-71612553D01*
X88014158Y-71726480D01*
X88037806Y-71767440D01*
X88041274Y-71771292D01*
X88041278Y-71771297D01*
X88157481Y-71900354D01*
X88157485Y-71900358D01*
X88160951Y-71904207D01*
X88309840Y-72012381D01*
X88314572Y-72014488D01*
X88314574Y-72014489D01*
X88473227Y-72085126D01*
X88473230Y-72085127D01*
X88477967Y-72087236D01*
X88657982Y-72125500D01*
X88842020Y-72125500D01*
X89022035Y-72087236D01*
X89026772Y-72085127D01*
X89026775Y-72085126D01*
X89185428Y-72014489D01*
X89185430Y-72014488D01*
X89190162Y-72012381D01*
X89339051Y-71904207D01*
X89342517Y-71900358D01*
X89342521Y-71900354D01*
X89458724Y-71771297D01*
X89458728Y-71771292D01*
X89462196Y-71767440D01*
X89485844Y-71726480D01*
X89551621Y-71612553D01*
X89551623Y-71612548D01*
X89554215Y-71608059D01*
X89581974Y-71522627D01*
X89609484Y-71437961D01*
X89609485Y-71437956D01*
X89611086Y-71433029D01*
X89630323Y-71250000D01*
X89869679Y-71250000D01*
X89888916Y-71433029D01*
X89890517Y-71437956D01*
X89890518Y-71437961D01*
X89918028Y-71522627D01*
X89945787Y-71608059D01*
X89948379Y-71612548D01*
X89948381Y-71612553D01*
X90014158Y-71726480D01*
X90037806Y-71767440D01*
X90041274Y-71771292D01*
X90041278Y-71771297D01*
X90157481Y-71900354D01*
X90157485Y-71900358D01*
X90160951Y-71904207D01*
X90309840Y-72012381D01*
X90314572Y-72014488D01*
X90314574Y-72014489D01*
X90473227Y-72085126D01*
X90473230Y-72085127D01*
X90477967Y-72087236D01*
X90657982Y-72125500D01*
X90842020Y-72125500D01*
X91022035Y-72087236D01*
X91026772Y-72085127D01*
X91026775Y-72085126D01*
X91185428Y-72014489D01*
X91185430Y-72014488D01*
X91190162Y-72012381D01*
X91339051Y-71904207D01*
X91342517Y-71900358D01*
X91342521Y-71900354D01*
X91458724Y-71771297D01*
X91458728Y-71771292D01*
X91462196Y-71767440D01*
X91485844Y-71726480D01*
X91551621Y-71612553D01*
X91551623Y-71612548D01*
X91554215Y-71608059D01*
X91581974Y-71522627D01*
X91609484Y-71437961D01*
X91609485Y-71437956D01*
X91611086Y-71433029D01*
X91630323Y-71250000D01*
X96869679Y-71250000D01*
X96888916Y-71433029D01*
X96890517Y-71437956D01*
X96890518Y-71437961D01*
X96918028Y-71522627D01*
X96945787Y-71608059D01*
X96948379Y-71612548D01*
X96948381Y-71612553D01*
X97014158Y-71726480D01*
X97037806Y-71767440D01*
X97041274Y-71771292D01*
X97041278Y-71771297D01*
X97157481Y-71900354D01*
X97157485Y-71900358D01*
X97160951Y-71904207D01*
X97309840Y-72012381D01*
X97314572Y-72014488D01*
X97314574Y-72014489D01*
X97473227Y-72085126D01*
X97473230Y-72085127D01*
X97477967Y-72087236D01*
X97657982Y-72125500D01*
X97842020Y-72125500D01*
X98022035Y-72087236D01*
X98026772Y-72085127D01*
X98026775Y-72085126D01*
X98185428Y-72014489D01*
X98185430Y-72014488D01*
X98190162Y-72012381D01*
X98339051Y-71904207D01*
X98342517Y-71900358D01*
X98342521Y-71900354D01*
X98458724Y-71771297D01*
X98458728Y-71771292D01*
X98462196Y-71767440D01*
X98485844Y-71726480D01*
X98551621Y-71612553D01*
X98551623Y-71612548D01*
X98554215Y-71608059D01*
X98581974Y-71522627D01*
X98609484Y-71437961D01*
X98609485Y-71437956D01*
X98611086Y-71433029D01*
X98630323Y-71250000D01*
X98869679Y-71250000D01*
X98888916Y-71433029D01*
X98890517Y-71437956D01*
X98890518Y-71437961D01*
X98918028Y-71522627D01*
X98945787Y-71608059D01*
X98948379Y-71612548D01*
X98948381Y-71612553D01*
X99014158Y-71726480D01*
X99037806Y-71767440D01*
X99041274Y-71771292D01*
X99041278Y-71771297D01*
X99157481Y-71900354D01*
X99157485Y-71900358D01*
X99160951Y-71904207D01*
X99309840Y-72012381D01*
X99314572Y-72014488D01*
X99314574Y-72014489D01*
X99473227Y-72085126D01*
X99473230Y-72085127D01*
X99477967Y-72087236D01*
X99657982Y-72125500D01*
X99842020Y-72125500D01*
X100022035Y-72087236D01*
X100026772Y-72085127D01*
X100026775Y-72085126D01*
X100185428Y-72014489D01*
X100185430Y-72014488D01*
X100190162Y-72012381D01*
X100339051Y-71904207D01*
X100342517Y-71900358D01*
X100342521Y-71900354D01*
X100458724Y-71771297D01*
X100458728Y-71771292D01*
X100462196Y-71767440D01*
X100485844Y-71726480D01*
X100551621Y-71612553D01*
X100551623Y-71612548D01*
X100554215Y-71608059D01*
X100581974Y-71522627D01*
X100609484Y-71437961D01*
X100609485Y-71437956D01*
X100611086Y-71433029D01*
X100630323Y-71250000D01*
X100611086Y-71066971D01*
X100609485Y-71062044D01*
X100609484Y-71062039D01*
X100555817Y-70896872D01*
X100554215Y-70891941D01*
X100551623Y-70887452D01*
X100551621Y-70887447D01*
X100464791Y-70737055D01*
X100462196Y-70732560D01*
X100458728Y-70728708D01*
X100458724Y-70728703D01*
X100342521Y-70599646D01*
X100342517Y-70599642D01*
X100339051Y-70595793D01*
X100190162Y-70487619D01*
X100185430Y-70485512D01*
X100185428Y-70485511D01*
X100026775Y-70414874D01*
X100026772Y-70414873D01*
X100022035Y-70412764D01*
X99842020Y-70374500D01*
X99657982Y-70374500D01*
X99477967Y-70412764D01*
X99473230Y-70414873D01*
X99473227Y-70414874D01*
X99314574Y-70485511D01*
X99314572Y-70485512D01*
X99309840Y-70487619D01*
X99160951Y-70595793D01*
X99157485Y-70599642D01*
X99157481Y-70599646D01*
X99041278Y-70728703D01*
X99041274Y-70728708D01*
X99037806Y-70732560D01*
X99035211Y-70737055D01*
X98948381Y-70887447D01*
X98948379Y-70887452D01*
X98945787Y-70891941D01*
X98944185Y-70896872D01*
X98890518Y-71062039D01*
X98890517Y-71062044D01*
X98888916Y-71066971D01*
X98869679Y-71250000D01*
X98630323Y-71250000D01*
X98611086Y-71066971D01*
X98609485Y-71062044D01*
X98609484Y-71062039D01*
X98555817Y-70896872D01*
X98554215Y-70891941D01*
X98551623Y-70887452D01*
X98551621Y-70887447D01*
X98464791Y-70737055D01*
X98462196Y-70732560D01*
X98458728Y-70728708D01*
X98458724Y-70728703D01*
X98342521Y-70599646D01*
X98342517Y-70599642D01*
X98339051Y-70595793D01*
X98190162Y-70487619D01*
X98185430Y-70485512D01*
X98185428Y-70485511D01*
X98026775Y-70414874D01*
X98026772Y-70414873D01*
X98022035Y-70412764D01*
X97842020Y-70374500D01*
X97657982Y-70374500D01*
X97477967Y-70412764D01*
X97473230Y-70414873D01*
X97473227Y-70414874D01*
X97314574Y-70485511D01*
X97314572Y-70485512D01*
X97309840Y-70487619D01*
X97160951Y-70595793D01*
X97157485Y-70599642D01*
X97157481Y-70599646D01*
X97041278Y-70728703D01*
X97041274Y-70728708D01*
X97037806Y-70732560D01*
X97035211Y-70737055D01*
X96948381Y-70887447D01*
X96948379Y-70887452D01*
X96945787Y-70891941D01*
X96944185Y-70896872D01*
X96890518Y-71062039D01*
X96890517Y-71062044D01*
X96888916Y-71066971D01*
X96869679Y-71250000D01*
X91630323Y-71250000D01*
X91611086Y-71066971D01*
X91609485Y-71062044D01*
X91609484Y-71062039D01*
X91555817Y-70896872D01*
X91554215Y-70891941D01*
X91551623Y-70887452D01*
X91551621Y-70887447D01*
X91464791Y-70737055D01*
X91462196Y-70732560D01*
X91458728Y-70728708D01*
X91458724Y-70728703D01*
X91342521Y-70599646D01*
X91342517Y-70599642D01*
X91339051Y-70595793D01*
X91190162Y-70487619D01*
X91185430Y-70485512D01*
X91185428Y-70485511D01*
X91026775Y-70414874D01*
X91026772Y-70414873D01*
X91022035Y-70412764D01*
X90842020Y-70374500D01*
X90657982Y-70374500D01*
X90477967Y-70412764D01*
X90473230Y-70414873D01*
X90473227Y-70414874D01*
X90314574Y-70485511D01*
X90314572Y-70485512D01*
X90309840Y-70487619D01*
X90160951Y-70595793D01*
X90157485Y-70599642D01*
X90157481Y-70599646D01*
X90041278Y-70728703D01*
X90041274Y-70728708D01*
X90037806Y-70732560D01*
X90035211Y-70737055D01*
X89948381Y-70887447D01*
X89948379Y-70887452D01*
X89945787Y-70891941D01*
X89944185Y-70896872D01*
X89890518Y-71062039D01*
X89890517Y-71062044D01*
X89888916Y-71066971D01*
X89869679Y-71250000D01*
X89630323Y-71250000D01*
X89611086Y-71066971D01*
X89609485Y-71062044D01*
X89609484Y-71062039D01*
X89555817Y-70896872D01*
X89554215Y-70891941D01*
X89551623Y-70887452D01*
X89551621Y-70887447D01*
X89464791Y-70737055D01*
X89462196Y-70732560D01*
X89458728Y-70728708D01*
X89458724Y-70728703D01*
X89342521Y-70599646D01*
X89342517Y-70599642D01*
X89339051Y-70595793D01*
X89190162Y-70487619D01*
X89185430Y-70485512D01*
X89185428Y-70485511D01*
X89026775Y-70414874D01*
X89026772Y-70414873D01*
X89022035Y-70412764D01*
X88842020Y-70374500D01*
X88657982Y-70374500D01*
X88477967Y-70412764D01*
X88473230Y-70414873D01*
X88473227Y-70414874D01*
X88314574Y-70485511D01*
X88314572Y-70485512D01*
X88309840Y-70487619D01*
X88160951Y-70595793D01*
X88157485Y-70599642D01*
X88157481Y-70599646D01*
X88041278Y-70728703D01*
X88041274Y-70728708D01*
X88037806Y-70732560D01*
X88035211Y-70737055D01*
X87948381Y-70887447D01*
X87948379Y-70887452D01*
X87945787Y-70891941D01*
X87944185Y-70896872D01*
X87890518Y-71062039D01*
X87890517Y-71062044D01*
X87888916Y-71066971D01*
X87869679Y-71250000D01*
X62130323Y-71250000D01*
X62111086Y-71066971D01*
X62109485Y-71062044D01*
X62109484Y-71062039D01*
X62055817Y-70896872D01*
X62054215Y-70891941D01*
X62051623Y-70887452D01*
X62051621Y-70887447D01*
X61964791Y-70737055D01*
X61962196Y-70732560D01*
X61958728Y-70728708D01*
X61958724Y-70728703D01*
X61842521Y-70599646D01*
X61842517Y-70599642D01*
X61839051Y-70595793D01*
X61690162Y-70487619D01*
X61685430Y-70485512D01*
X61685428Y-70485511D01*
X61526775Y-70414874D01*
X61526772Y-70414873D01*
X61522035Y-70412764D01*
X61342020Y-70374500D01*
X61157982Y-70374500D01*
X60977967Y-70412764D01*
X60973230Y-70414873D01*
X60973227Y-70414874D01*
X60814574Y-70485511D01*
X60814572Y-70485512D01*
X60809840Y-70487619D01*
X60660951Y-70595793D01*
X60657485Y-70599642D01*
X60657481Y-70599646D01*
X60541278Y-70728703D01*
X60541274Y-70728708D01*
X60537806Y-70732560D01*
X60535211Y-70737055D01*
X60448381Y-70887447D01*
X60448379Y-70887452D01*
X60445787Y-70891941D01*
X60444185Y-70896872D01*
X60390518Y-71062039D01*
X60390517Y-71062044D01*
X60388916Y-71066971D01*
X60369679Y-71250000D01*
X60130323Y-71250000D01*
X60111086Y-71066971D01*
X60109485Y-71062044D01*
X60109484Y-71062039D01*
X60055817Y-70896872D01*
X60054215Y-70891941D01*
X60051623Y-70887452D01*
X60051621Y-70887447D01*
X59964791Y-70737055D01*
X59962196Y-70732560D01*
X59958728Y-70728708D01*
X59958724Y-70728703D01*
X59842521Y-70599646D01*
X59842517Y-70599642D01*
X59839051Y-70595793D01*
X59690162Y-70487619D01*
X59685430Y-70485512D01*
X59685428Y-70485511D01*
X59526775Y-70414874D01*
X59526772Y-70414873D01*
X59522035Y-70412764D01*
X59342020Y-70374500D01*
X59157982Y-70374500D01*
X58977967Y-70412764D01*
X58973230Y-70414873D01*
X58973227Y-70414874D01*
X58814574Y-70485511D01*
X58814572Y-70485512D01*
X58809840Y-70487619D01*
X58660951Y-70595793D01*
X58657485Y-70599642D01*
X58657481Y-70599646D01*
X58541278Y-70728703D01*
X58541274Y-70728708D01*
X58537806Y-70732560D01*
X58535211Y-70737055D01*
X58448381Y-70887447D01*
X58448379Y-70887452D01*
X58445787Y-70891941D01*
X58444185Y-70896872D01*
X58390518Y-71062039D01*
X58390517Y-71062044D01*
X58388916Y-71066971D01*
X58369679Y-71250000D01*
X55200000Y-71250000D01*
X55200000Y-70534222D01*
X55202557Y-70511867D01*
X55203875Y-70506181D01*
X55205142Y-70500716D01*
X55205143Y-70500000D01*
X55203902Y-70494557D01*
X55203298Y-70489160D01*
X55202390Y-70483212D01*
X55189196Y-70315568D01*
X55189195Y-70315563D01*
X55188891Y-70311698D01*
X55144797Y-70128033D01*
X55095632Y-70009336D01*
X55074005Y-69957123D01*
X55074002Y-69957118D01*
X55072515Y-69953527D01*
X55060742Y-69934314D01*
X55010920Y-69853013D01*
X54973823Y-69792476D01*
X54851153Y-69648847D01*
X54734895Y-69549554D01*
X54710484Y-69528705D01*
X54707524Y-69526177D01*
X54616044Y-69470118D01*
X54549793Y-69429519D01*
X54549788Y-69429517D01*
X54546473Y-69427485D01*
X54542882Y-69425998D01*
X54542877Y-69425995D01*
X54449938Y-69387499D01*
X54371967Y-69355203D01*
X54188302Y-69311109D01*
X54184437Y-69310805D01*
X54184432Y-69310804D01*
X54017806Y-69297690D01*
X54011751Y-69296756D01*
X54011750Y-69296766D01*
X54006182Y-69296125D01*
X54000716Y-69294858D01*
X54000000Y-69294857D01*
X53994551Y-69296100D01*
X53988321Y-69297521D01*
X53966304Y-69300000D01*
X51033960Y-69300000D01*
X51011773Y-69297482D01*
X51000358Y-69294857D01*
X50989484Y-69297318D01*
X50978335Y-69297298D01*
X50978337Y-69296284D01*
X50968476Y-69296895D01*
X50912462Y-69291378D01*
X50853630Y-69285584D01*
X50834600Y-69281798D01*
X50729773Y-69250000D01*
X58369679Y-69250000D01*
X58388916Y-69433029D01*
X58390517Y-69437956D01*
X58390518Y-69437961D01*
X58409558Y-69496559D01*
X58445787Y-69608059D01*
X58448379Y-69612548D01*
X58448381Y-69612553D01*
X58500538Y-69702890D01*
X58537806Y-69767440D01*
X58541274Y-69771292D01*
X58541278Y-69771297D01*
X58657481Y-69900354D01*
X58657485Y-69900358D01*
X58660951Y-69904207D01*
X58809840Y-70012381D01*
X58814572Y-70014488D01*
X58814574Y-70014489D01*
X58973227Y-70085126D01*
X58973230Y-70085127D01*
X58977967Y-70087236D01*
X59157982Y-70125500D01*
X59342020Y-70125500D01*
X59522035Y-70087236D01*
X59526772Y-70085127D01*
X59526775Y-70085126D01*
X59685428Y-70014489D01*
X59685430Y-70014488D01*
X59690162Y-70012381D01*
X59839051Y-69904207D01*
X59842517Y-69900358D01*
X59842521Y-69900354D01*
X59958724Y-69771297D01*
X59958728Y-69771292D01*
X59962196Y-69767440D01*
X59999464Y-69702890D01*
X60051621Y-69612553D01*
X60051623Y-69612548D01*
X60054215Y-69608059D01*
X60090444Y-69496559D01*
X60109484Y-69437961D01*
X60109485Y-69437956D01*
X60111086Y-69433029D01*
X60130323Y-69250000D01*
X60369679Y-69250000D01*
X60388916Y-69433029D01*
X60390517Y-69437956D01*
X60390518Y-69437961D01*
X60409558Y-69496559D01*
X60445787Y-69608059D01*
X60448379Y-69612548D01*
X60448381Y-69612553D01*
X60500538Y-69702890D01*
X60537806Y-69767440D01*
X60541274Y-69771292D01*
X60541278Y-69771297D01*
X60657481Y-69900354D01*
X60657485Y-69900358D01*
X60660951Y-69904207D01*
X60809840Y-70012381D01*
X60814572Y-70014488D01*
X60814574Y-70014489D01*
X60973227Y-70085126D01*
X60973230Y-70085127D01*
X60977967Y-70087236D01*
X61157982Y-70125500D01*
X61342020Y-70125500D01*
X61522035Y-70087236D01*
X61526772Y-70085127D01*
X61526775Y-70085126D01*
X61685428Y-70014489D01*
X61685430Y-70014488D01*
X61690162Y-70012381D01*
X61839051Y-69904207D01*
X61842517Y-69900358D01*
X61842521Y-69900354D01*
X61958724Y-69771297D01*
X61958728Y-69771292D01*
X61962196Y-69767440D01*
X61999464Y-69702890D01*
X62051621Y-69612553D01*
X62051623Y-69612548D01*
X62054215Y-69608059D01*
X62090444Y-69496559D01*
X62109484Y-69437961D01*
X62109485Y-69437956D01*
X62111086Y-69433029D01*
X62130323Y-69250000D01*
X87869679Y-69250000D01*
X87888916Y-69433029D01*
X87890517Y-69437956D01*
X87890518Y-69437961D01*
X87909558Y-69496559D01*
X87945787Y-69608059D01*
X87948379Y-69612548D01*
X87948381Y-69612553D01*
X88000538Y-69702890D01*
X88037806Y-69767440D01*
X88041274Y-69771292D01*
X88041278Y-69771297D01*
X88157481Y-69900354D01*
X88157485Y-69900358D01*
X88160951Y-69904207D01*
X88309840Y-70012381D01*
X88314572Y-70014488D01*
X88314574Y-70014489D01*
X88473227Y-70085126D01*
X88473230Y-70085127D01*
X88477967Y-70087236D01*
X88657982Y-70125500D01*
X88842020Y-70125500D01*
X89022035Y-70087236D01*
X89026772Y-70085127D01*
X89026775Y-70085126D01*
X89185428Y-70014489D01*
X89185430Y-70014488D01*
X89190162Y-70012381D01*
X89339051Y-69904207D01*
X89342517Y-69900358D01*
X89342521Y-69900354D01*
X89458724Y-69771297D01*
X89458728Y-69771292D01*
X89462196Y-69767440D01*
X89499464Y-69702890D01*
X89551621Y-69612553D01*
X89551623Y-69612548D01*
X89554215Y-69608059D01*
X89590444Y-69496559D01*
X89609484Y-69437961D01*
X89609485Y-69437956D01*
X89611086Y-69433029D01*
X89630323Y-69250000D01*
X89869679Y-69250000D01*
X89888916Y-69433029D01*
X89890517Y-69437956D01*
X89890518Y-69437961D01*
X89909558Y-69496559D01*
X89945787Y-69608059D01*
X89948379Y-69612548D01*
X89948381Y-69612553D01*
X90000538Y-69702890D01*
X90037806Y-69767440D01*
X90041274Y-69771292D01*
X90041278Y-69771297D01*
X90157481Y-69900354D01*
X90157485Y-69900358D01*
X90160951Y-69904207D01*
X90309840Y-70012381D01*
X90314572Y-70014488D01*
X90314574Y-70014489D01*
X90473227Y-70085126D01*
X90473230Y-70085127D01*
X90477967Y-70087236D01*
X90657982Y-70125500D01*
X90842020Y-70125500D01*
X91022035Y-70087236D01*
X91026772Y-70085127D01*
X91026775Y-70085126D01*
X91185428Y-70014489D01*
X91185430Y-70014488D01*
X91190162Y-70012381D01*
X91339051Y-69904207D01*
X91342517Y-69900358D01*
X91342521Y-69900354D01*
X91458724Y-69771297D01*
X91458728Y-69771292D01*
X91462196Y-69767440D01*
X91499464Y-69702890D01*
X91551621Y-69612553D01*
X91551623Y-69612548D01*
X91554215Y-69608059D01*
X91590444Y-69496559D01*
X91609484Y-69437961D01*
X91609485Y-69437956D01*
X91611086Y-69433029D01*
X91630323Y-69250000D01*
X96869679Y-69250000D01*
X96888916Y-69433029D01*
X96890517Y-69437956D01*
X96890518Y-69437961D01*
X96909558Y-69496559D01*
X96945787Y-69608059D01*
X96948379Y-69612548D01*
X96948381Y-69612553D01*
X97000538Y-69702890D01*
X97037806Y-69767440D01*
X97041274Y-69771292D01*
X97041278Y-69771297D01*
X97157481Y-69900354D01*
X97157485Y-69900358D01*
X97160951Y-69904207D01*
X97309840Y-70012381D01*
X97314572Y-70014488D01*
X97314574Y-70014489D01*
X97473227Y-70085126D01*
X97473230Y-70085127D01*
X97477967Y-70087236D01*
X97657982Y-70125500D01*
X97842020Y-70125500D01*
X98022035Y-70087236D01*
X98026772Y-70085127D01*
X98026775Y-70085126D01*
X98185428Y-70014489D01*
X98185430Y-70014488D01*
X98190162Y-70012381D01*
X98339051Y-69904207D01*
X98342517Y-69900358D01*
X98342521Y-69900354D01*
X98458724Y-69771297D01*
X98458728Y-69771292D01*
X98462196Y-69767440D01*
X98499464Y-69702890D01*
X98551621Y-69612553D01*
X98551623Y-69612548D01*
X98554215Y-69608059D01*
X98590444Y-69496559D01*
X98609484Y-69437961D01*
X98609485Y-69437956D01*
X98611086Y-69433029D01*
X98630323Y-69250000D01*
X98869679Y-69250000D01*
X98888916Y-69433029D01*
X98890517Y-69437956D01*
X98890518Y-69437961D01*
X98909558Y-69496559D01*
X98945787Y-69608059D01*
X98948379Y-69612548D01*
X98948381Y-69612553D01*
X99000538Y-69702890D01*
X99037806Y-69767440D01*
X99041274Y-69771292D01*
X99041278Y-69771297D01*
X99157481Y-69900354D01*
X99157485Y-69900358D01*
X99160951Y-69904207D01*
X99309840Y-70012381D01*
X99314572Y-70014488D01*
X99314574Y-70014489D01*
X99473227Y-70085126D01*
X99473230Y-70085127D01*
X99477967Y-70087236D01*
X99657982Y-70125500D01*
X99842020Y-70125500D01*
X100022035Y-70087236D01*
X100026772Y-70085127D01*
X100026775Y-70085126D01*
X100185428Y-70014489D01*
X100185430Y-70014488D01*
X100190162Y-70012381D01*
X100339051Y-69904207D01*
X100342517Y-69900358D01*
X100342521Y-69900354D01*
X100458724Y-69771297D01*
X100458728Y-69771292D01*
X100462196Y-69767440D01*
X100499464Y-69702890D01*
X100551621Y-69612553D01*
X100551623Y-69612548D01*
X100554215Y-69608059D01*
X100590444Y-69496559D01*
X100609484Y-69437961D01*
X100609485Y-69437956D01*
X100611086Y-69433029D01*
X100630323Y-69250000D01*
X100611086Y-69066971D01*
X100609485Y-69062044D01*
X100609484Y-69062039D01*
X100555817Y-68896872D01*
X100554215Y-68891941D01*
X100551623Y-68887452D01*
X100551621Y-68887447D01*
X100464791Y-68737055D01*
X100462196Y-68732560D01*
X100458728Y-68728708D01*
X100458724Y-68728703D01*
X100342521Y-68599646D01*
X100342517Y-68599642D01*
X100339051Y-68595793D01*
X100190162Y-68487619D01*
X100185430Y-68485512D01*
X100185428Y-68485511D01*
X100026775Y-68414874D01*
X100026772Y-68414873D01*
X100022035Y-68412764D01*
X99842020Y-68374500D01*
X99657982Y-68374500D01*
X99477967Y-68412764D01*
X99473230Y-68414873D01*
X99473227Y-68414874D01*
X99314574Y-68485511D01*
X99314572Y-68485512D01*
X99309840Y-68487619D01*
X99160951Y-68595793D01*
X99157485Y-68599642D01*
X99157481Y-68599646D01*
X99041278Y-68728703D01*
X99041274Y-68728708D01*
X99037806Y-68732560D01*
X99035211Y-68737055D01*
X98948381Y-68887447D01*
X98948379Y-68887452D01*
X98945787Y-68891941D01*
X98944185Y-68896872D01*
X98890518Y-69062039D01*
X98890517Y-69062044D01*
X98888916Y-69066971D01*
X98869679Y-69250000D01*
X98630323Y-69250000D01*
X98611086Y-69066971D01*
X98609485Y-69062044D01*
X98609484Y-69062039D01*
X98555817Y-68896872D01*
X98554215Y-68891941D01*
X98551623Y-68887452D01*
X98551621Y-68887447D01*
X98464791Y-68737055D01*
X98462196Y-68732560D01*
X98458728Y-68728708D01*
X98458724Y-68728703D01*
X98342521Y-68599646D01*
X98342517Y-68599642D01*
X98339051Y-68595793D01*
X98190162Y-68487619D01*
X98185430Y-68485512D01*
X98185428Y-68485511D01*
X98026775Y-68414874D01*
X98026772Y-68414873D01*
X98022035Y-68412764D01*
X97842020Y-68374500D01*
X97657982Y-68374500D01*
X97477967Y-68412764D01*
X97473230Y-68414873D01*
X97473227Y-68414874D01*
X97314574Y-68485511D01*
X97314572Y-68485512D01*
X97309840Y-68487619D01*
X97160951Y-68595793D01*
X97157485Y-68599642D01*
X97157481Y-68599646D01*
X97041278Y-68728703D01*
X97041274Y-68728708D01*
X97037806Y-68732560D01*
X97035211Y-68737055D01*
X96948381Y-68887447D01*
X96948379Y-68887452D01*
X96945787Y-68891941D01*
X96944185Y-68896872D01*
X96890518Y-69062039D01*
X96890517Y-69062044D01*
X96888916Y-69066971D01*
X96869679Y-69250000D01*
X91630323Y-69250000D01*
X91611086Y-69066971D01*
X91609485Y-69062044D01*
X91609484Y-69062039D01*
X91555817Y-68896872D01*
X91554215Y-68891941D01*
X91551623Y-68887452D01*
X91551621Y-68887447D01*
X91464791Y-68737055D01*
X91462196Y-68732560D01*
X91458728Y-68728708D01*
X91458724Y-68728703D01*
X91342521Y-68599646D01*
X91342517Y-68599642D01*
X91339051Y-68595793D01*
X91190162Y-68487619D01*
X91185430Y-68485512D01*
X91185428Y-68485511D01*
X91026775Y-68414874D01*
X91026772Y-68414873D01*
X91022035Y-68412764D01*
X90842020Y-68374500D01*
X90657982Y-68374500D01*
X90477967Y-68412764D01*
X90473230Y-68414873D01*
X90473227Y-68414874D01*
X90314574Y-68485511D01*
X90314572Y-68485512D01*
X90309840Y-68487619D01*
X90160951Y-68595793D01*
X90157485Y-68599642D01*
X90157481Y-68599646D01*
X90041278Y-68728703D01*
X90041274Y-68728708D01*
X90037806Y-68732560D01*
X90035211Y-68737055D01*
X89948381Y-68887447D01*
X89948379Y-68887452D01*
X89945787Y-68891941D01*
X89944185Y-68896872D01*
X89890518Y-69062039D01*
X89890517Y-69062044D01*
X89888916Y-69066971D01*
X89869679Y-69250000D01*
X89630323Y-69250000D01*
X89611086Y-69066971D01*
X89609485Y-69062044D01*
X89609484Y-69062039D01*
X89555817Y-68896872D01*
X89554215Y-68891941D01*
X89551623Y-68887452D01*
X89551621Y-68887447D01*
X89464791Y-68737055D01*
X89462196Y-68732560D01*
X89458728Y-68728708D01*
X89458724Y-68728703D01*
X89342521Y-68599646D01*
X89342517Y-68599642D01*
X89339051Y-68595793D01*
X89190162Y-68487619D01*
X89185430Y-68485512D01*
X89185428Y-68485511D01*
X89026775Y-68414874D01*
X89026772Y-68414873D01*
X89022035Y-68412764D01*
X88842020Y-68374500D01*
X88657982Y-68374500D01*
X88477967Y-68412764D01*
X88473230Y-68414873D01*
X88473227Y-68414874D01*
X88314574Y-68485511D01*
X88314572Y-68485512D01*
X88309840Y-68487619D01*
X88160951Y-68595793D01*
X88157485Y-68599642D01*
X88157481Y-68599646D01*
X88041278Y-68728703D01*
X88041274Y-68728708D01*
X88037806Y-68732560D01*
X88035211Y-68737055D01*
X87948381Y-68887447D01*
X87948379Y-68887452D01*
X87945787Y-68891941D01*
X87944185Y-68896872D01*
X87890518Y-69062039D01*
X87890517Y-69062044D01*
X87888916Y-69066971D01*
X87869679Y-69250000D01*
X62130323Y-69250000D01*
X62111086Y-69066971D01*
X62109485Y-69062044D01*
X62109484Y-69062039D01*
X62055817Y-68896872D01*
X62054215Y-68891941D01*
X62051623Y-68887452D01*
X62051621Y-68887447D01*
X61964791Y-68737055D01*
X61962196Y-68732560D01*
X61958728Y-68728708D01*
X61958724Y-68728703D01*
X61842521Y-68599646D01*
X61842517Y-68599642D01*
X61839051Y-68595793D01*
X61690162Y-68487619D01*
X61685430Y-68485512D01*
X61685428Y-68485511D01*
X61526775Y-68414874D01*
X61526772Y-68414873D01*
X61522035Y-68412764D01*
X61342020Y-68374500D01*
X61157982Y-68374500D01*
X60977967Y-68412764D01*
X60973230Y-68414873D01*
X60973227Y-68414874D01*
X60814574Y-68485511D01*
X60814572Y-68485512D01*
X60809840Y-68487619D01*
X60660951Y-68595793D01*
X60657485Y-68599642D01*
X60657481Y-68599646D01*
X60541278Y-68728703D01*
X60541274Y-68728708D01*
X60537806Y-68732560D01*
X60535211Y-68737055D01*
X60448381Y-68887447D01*
X60448379Y-68887452D01*
X60445787Y-68891941D01*
X60444185Y-68896872D01*
X60390518Y-69062039D01*
X60390517Y-69062044D01*
X60388916Y-69066971D01*
X60369679Y-69250000D01*
X60130323Y-69250000D01*
X60111086Y-69066971D01*
X60109485Y-69062044D01*
X60109484Y-69062039D01*
X60055817Y-68896872D01*
X60054215Y-68891941D01*
X60051623Y-68887452D01*
X60051621Y-68887447D01*
X59964791Y-68737055D01*
X59962196Y-68732560D01*
X59958728Y-68728708D01*
X59958724Y-68728703D01*
X59842521Y-68599646D01*
X59842517Y-68599642D01*
X59839051Y-68595793D01*
X59690162Y-68487619D01*
X59685430Y-68485512D01*
X59685428Y-68485511D01*
X59526775Y-68414874D01*
X59526772Y-68414873D01*
X59522035Y-68412764D01*
X59342020Y-68374500D01*
X59157982Y-68374500D01*
X58977967Y-68412764D01*
X58973230Y-68414873D01*
X58973227Y-68414874D01*
X58814574Y-68485511D01*
X58814572Y-68485512D01*
X58809840Y-68487619D01*
X58660951Y-68595793D01*
X58657485Y-68599642D01*
X58657481Y-68599646D01*
X58541278Y-68728703D01*
X58541274Y-68728708D01*
X58537806Y-68732560D01*
X58535211Y-68737055D01*
X58448381Y-68887447D01*
X58448379Y-68887452D01*
X58445787Y-68891941D01*
X58444185Y-68896872D01*
X58390518Y-69062039D01*
X58390517Y-69062044D01*
X58388916Y-69066971D01*
X58369679Y-69250000D01*
X50729773Y-69250000D01*
X50703183Y-69241934D01*
X50685255Y-69234508D01*
X50564143Y-69169772D01*
X50548009Y-69158992D01*
X50522947Y-69138425D01*
X50441848Y-69071869D01*
X50428131Y-69058152D01*
X50341008Y-68951991D01*
X50330227Y-68935856D01*
X50314051Y-68905593D01*
X50265492Y-68814745D01*
X50258066Y-68796817D01*
X50218202Y-68665402D01*
X50214416Y-68646368D01*
X50203103Y-68531507D01*
X50202626Y-68521629D01*
X50202644Y-68511225D01*
X50205143Y-68500358D01*
X50202441Y-68488417D01*
X50200000Y-68466568D01*
X50200000Y-67250000D01*
X58369679Y-67250000D01*
X58388916Y-67433029D01*
X58390517Y-67437956D01*
X58390518Y-67437961D01*
X58418028Y-67522627D01*
X58445787Y-67608059D01*
X58448379Y-67612548D01*
X58448381Y-67612553D01*
X58514158Y-67726480D01*
X58537806Y-67767440D01*
X58541274Y-67771292D01*
X58541278Y-67771297D01*
X58657481Y-67900354D01*
X58657485Y-67900358D01*
X58660951Y-67904207D01*
X58809840Y-68012381D01*
X58814572Y-68014488D01*
X58814574Y-68014489D01*
X58973227Y-68085126D01*
X58973230Y-68085127D01*
X58977967Y-68087236D01*
X59157982Y-68125500D01*
X59342020Y-68125500D01*
X59522035Y-68087236D01*
X59526772Y-68085127D01*
X59526775Y-68085126D01*
X59685428Y-68014489D01*
X59685430Y-68014488D01*
X59690162Y-68012381D01*
X59839051Y-67904207D01*
X59842517Y-67900358D01*
X59842521Y-67900354D01*
X59958724Y-67771297D01*
X59958728Y-67771292D01*
X59962196Y-67767440D01*
X59985844Y-67726480D01*
X60051621Y-67612553D01*
X60051623Y-67612548D01*
X60054215Y-67608059D01*
X60081974Y-67522627D01*
X60109484Y-67437961D01*
X60109485Y-67437956D01*
X60111086Y-67433029D01*
X60130323Y-67250000D01*
X60369679Y-67250000D01*
X60388916Y-67433029D01*
X60390517Y-67437956D01*
X60390518Y-67437961D01*
X60418028Y-67522627D01*
X60445787Y-67608059D01*
X60448379Y-67612548D01*
X60448381Y-67612553D01*
X60514158Y-67726480D01*
X60537806Y-67767440D01*
X60541274Y-67771292D01*
X60541278Y-67771297D01*
X60657481Y-67900354D01*
X60657485Y-67900358D01*
X60660951Y-67904207D01*
X60809840Y-68012381D01*
X60814572Y-68014488D01*
X60814574Y-68014489D01*
X60973227Y-68085126D01*
X60973230Y-68085127D01*
X60977967Y-68087236D01*
X61157982Y-68125500D01*
X61342020Y-68125500D01*
X61522035Y-68087236D01*
X61526772Y-68085127D01*
X61526775Y-68085126D01*
X61685428Y-68014489D01*
X61685430Y-68014488D01*
X61690162Y-68012381D01*
X61839051Y-67904207D01*
X61842517Y-67900358D01*
X61842521Y-67900354D01*
X61958724Y-67771297D01*
X61958728Y-67771292D01*
X61962196Y-67767440D01*
X61985844Y-67726480D01*
X62051621Y-67612553D01*
X62051623Y-67612548D01*
X62054215Y-67608059D01*
X62081974Y-67522627D01*
X62109484Y-67437961D01*
X62109485Y-67437956D01*
X62111086Y-67433029D01*
X62130323Y-67250000D01*
X87869679Y-67250000D01*
X87888916Y-67433029D01*
X87890517Y-67437956D01*
X87890518Y-67437961D01*
X87918028Y-67522627D01*
X87945787Y-67608059D01*
X87948379Y-67612548D01*
X87948381Y-67612553D01*
X88014158Y-67726480D01*
X88037806Y-67767440D01*
X88041274Y-67771292D01*
X88041278Y-67771297D01*
X88157481Y-67900354D01*
X88157485Y-67900358D01*
X88160951Y-67904207D01*
X88309840Y-68012381D01*
X88314572Y-68014488D01*
X88314574Y-68014489D01*
X88473227Y-68085126D01*
X88473230Y-68085127D01*
X88477967Y-68087236D01*
X88657982Y-68125500D01*
X88842020Y-68125500D01*
X89022035Y-68087236D01*
X89026772Y-68085127D01*
X89026775Y-68085126D01*
X89185428Y-68014489D01*
X89185430Y-68014488D01*
X89190162Y-68012381D01*
X89339051Y-67904207D01*
X89342517Y-67900358D01*
X89342521Y-67900354D01*
X89458724Y-67771297D01*
X89458728Y-67771292D01*
X89462196Y-67767440D01*
X89485844Y-67726480D01*
X89551621Y-67612553D01*
X89551623Y-67612548D01*
X89554215Y-67608059D01*
X89581974Y-67522627D01*
X89609484Y-67437961D01*
X89609485Y-67437956D01*
X89611086Y-67433029D01*
X89630323Y-67250000D01*
X89869679Y-67250000D01*
X89888916Y-67433029D01*
X89890517Y-67437956D01*
X89890518Y-67437961D01*
X89918028Y-67522627D01*
X89945787Y-67608059D01*
X89948379Y-67612548D01*
X89948381Y-67612553D01*
X90014158Y-67726480D01*
X90037806Y-67767440D01*
X90041274Y-67771292D01*
X90041278Y-67771297D01*
X90157481Y-67900354D01*
X90157485Y-67900358D01*
X90160951Y-67904207D01*
X90309840Y-68012381D01*
X90314572Y-68014488D01*
X90314574Y-68014489D01*
X90473227Y-68085126D01*
X90473230Y-68085127D01*
X90477967Y-68087236D01*
X90657982Y-68125500D01*
X90842020Y-68125500D01*
X91022035Y-68087236D01*
X91026772Y-68085127D01*
X91026775Y-68085126D01*
X91185428Y-68014489D01*
X91185430Y-68014488D01*
X91190162Y-68012381D01*
X91339051Y-67904207D01*
X91342517Y-67900358D01*
X91342521Y-67900354D01*
X91458724Y-67771297D01*
X91458728Y-67771292D01*
X91462196Y-67767440D01*
X91485844Y-67726480D01*
X91551621Y-67612553D01*
X91551623Y-67612548D01*
X91554215Y-67608059D01*
X91581974Y-67522627D01*
X91609484Y-67437961D01*
X91609485Y-67437956D01*
X91611086Y-67433029D01*
X91630323Y-67250000D01*
X96869679Y-67250000D01*
X96888916Y-67433029D01*
X96890517Y-67437956D01*
X96890518Y-67437961D01*
X96918028Y-67522627D01*
X96945787Y-67608059D01*
X96948379Y-67612548D01*
X96948381Y-67612553D01*
X97014158Y-67726480D01*
X97037806Y-67767440D01*
X97041274Y-67771292D01*
X97041278Y-67771297D01*
X97157481Y-67900354D01*
X97157485Y-67900358D01*
X97160951Y-67904207D01*
X97309840Y-68012381D01*
X97314572Y-68014488D01*
X97314574Y-68014489D01*
X97473227Y-68085126D01*
X97473230Y-68085127D01*
X97477967Y-68087236D01*
X97657982Y-68125500D01*
X97842020Y-68125500D01*
X98022035Y-68087236D01*
X98026772Y-68085127D01*
X98026775Y-68085126D01*
X98185428Y-68014489D01*
X98185430Y-68014488D01*
X98190162Y-68012381D01*
X98339051Y-67904207D01*
X98342517Y-67900358D01*
X98342521Y-67900354D01*
X98458724Y-67771297D01*
X98458728Y-67771292D01*
X98462196Y-67767440D01*
X98485844Y-67726480D01*
X98551621Y-67612553D01*
X98551623Y-67612548D01*
X98554215Y-67608059D01*
X98581974Y-67522627D01*
X98609484Y-67437961D01*
X98609485Y-67437956D01*
X98611086Y-67433029D01*
X98630323Y-67250000D01*
X98869679Y-67250000D01*
X98888916Y-67433029D01*
X98890517Y-67437956D01*
X98890518Y-67437961D01*
X98918028Y-67522627D01*
X98945787Y-67608059D01*
X98948379Y-67612548D01*
X98948381Y-67612553D01*
X99014158Y-67726480D01*
X99037806Y-67767440D01*
X99041274Y-67771292D01*
X99041278Y-67771297D01*
X99157481Y-67900354D01*
X99157485Y-67900358D01*
X99160951Y-67904207D01*
X99309840Y-68012381D01*
X99314572Y-68014488D01*
X99314574Y-68014489D01*
X99473227Y-68085126D01*
X99473230Y-68085127D01*
X99477967Y-68087236D01*
X99657982Y-68125500D01*
X99842020Y-68125500D01*
X100022035Y-68087236D01*
X100026772Y-68085127D01*
X100026775Y-68085126D01*
X100185428Y-68014489D01*
X100185430Y-68014488D01*
X100190162Y-68012381D01*
X100339051Y-67904207D01*
X100342517Y-67900358D01*
X100342521Y-67900354D01*
X100458724Y-67771297D01*
X100458728Y-67771292D01*
X100462196Y-67767440D01*
X100485844Y-67726480D01*
X100551621Y-67612553D01*
X100551623Y-67612548D01*
X100554215Y-67608059D01*
X100581974Y-67522627D01*
X100609484Y-67437961D01*
X100609485Y-67437956D01*
X100611086Y-67433029D01*
X100630323Y-67250000D01*
X100611086Y-67066971D01*
X100609485Y-67062044D01*
X100609484Y-67062039D01*
X100555817Y-66896872D01*
X100554215Y-66891941D01*
X100551623Y-66887452D01*
X100551621Y-66887447D01*
X100464791Y-66737055D01*
X100462196Y-66732560D01*
X100458728Y-66728708D01*
X100458724Y-66728703D01*
X100342521Y-66599646D01*
X100342517Y-66599642D01*
X100339051Y-66595793D01*
X100190162Y-66487619D01*
X100185430Y-66485512D01*
X100185428Y-66485511D01*
X100026775Y-66414874D01*
X100026772Y-66414873D01*
X100022035Y-66412764D01*
X99842020Y-66374500D01*
X99657982Y-66374500D01*
X99477967Y-66412764D01*
X99473230Y-66414873D01*
X99473227Y-66414874D01*
X99314574Y-66485511D01*
X99314572Y-66485512D01*
X99309840Y-66487619D01*
X99160951Y-66595793D01*
X99157485Y-66599642D01*
X99157481Y-66599646D01*
X99041278Y-66728703D01*
X99041274Y-66728708D01*
X99037806Y-66732560D01*
X99035211Y-66737055D01*
X98948381Y-66887447D01*
X98948379Y-66887452D01*
X98945787Y-66891941D01*
X98944185Y-66896872D01*
X98890518Y-67062039D01*
X98890517Y-67062044D01*
X98888916Y-67066971D01*
X98869679Y-67250000D01*
X98630323Y-67250000D01*
X98611086Y-67066971D01*
X98609485Y-67062044D01*
X98609484Y-67062039D01*
X98555817Y-66896872D01*
X98554215Y-66891941D01*
X98551623Y-66887452D01*
X98551621Y-66887447D01*
X98464791Y-66737055D01*
X98462196Y-66732560D01*
X98458728Y-66728708D01*
X98458724Y-66728703D01*
X98342521Y-66599646D01*
X98342517Y-66599642D01*
X98339051Y-66595793D01*
X98190162Y-66487619D01*
X98185430Y-66485512D01*
X98185428Y-66485511D01*
X98026775Y-66414874D01*
X98026772Y-66414873D01*
X98022035Y-66412764D01*
X97842020Y-66374500D01*
X97657982Y-66374500D01*
X97477967Y-66412764D01*
X97473230Y-66414873D01*
X97473227Y-66414874D01*
X97314574Y-66485511D01*
X97314572Y-66485512D01*
X97309840Y-66487619D01*
X97160951Y-66595793D01*
X97157485Y-66599642D01*
X97157481Y-66599646D01*
X97041278Y-66728703D01*
X97041274Y-66728708D01*
X97037806Y-66732560D01*
X97035211Y-66737055D01*
X96948381Y-66887447D01*
X96948379Y-66887452D01*
X96945787Y-66891941D01*
X96944185Y-66896872D01*
X96890518Y-67062039D01*
X96890517Y-67062044D01*
X96888916Y-67066971D01*
X96869679Y-67250000D01*
X91630323Y-67250000D01*
X91611086Y-67066971D01*
X91609485Y-67062044D01*
X91609484Y-67062039D01*
X91555817Y-66896872D01*
X91554215Y-66891941D01*
X91551623Y-66887452D01*
X91551621Y-66887447D01*
X91464791Y-66737055D01*
X91462196Y-66732560D01*
X91458728Y-66728708D01*
X91458724Y-66728703D01*
X91342521Y-66599646D01*
X91342517Y-66599642D01*
X91339051Y-66595793D01*
X91190162Y-66487619D01*
X91185430Y-66485512D01*
X91185428Y-66485511D01*
X91026775Y-66414874D01*
X91026772Y-66414873D01*
X91022035Y-66412764D01*
X90842020Y-66374500D01*
X90657982Y-66374500D01*
X90477967Y-66412764D01*
X90473230Y-66414873D01*
X90473227Y-66414874D01*
X90314574Y-66485511D01*
X90314572Y-66485512D01*
X90309840Y-66487619D01*
X90160951Y-66595793D01*
X90157485Y-66599642D01*
X90157481Y-66599646D01*
X90041278Y-66728703D01*
X90041274Y-66728708D01*
X90037806Y-66732560D01*
X90035211Y-66737055D01*
X89948381Y-66887447D01*
X89948379Y-66887452D01*
X89945787Y-66891941D01*
X89944185Y-66896872D01*
X89890518Y-67062039D01*
X89890517Y-67062044D01*
X89888916Y-67066971D01*
X89869679Y-67250000D01*
X89630323Y-67250000D01*
X89611086Y-67066971D01*
X89609485Y-67062044D01*
X89609484Y-67062039D01*
X89555817Y-66896872D01*
X89554215Y-66891941D01*
X89551623Y-66887452D01*
X89551621Y-66887447D01*
X89464791Y-66737055D01*
X89462196Y-66732560D01*
X89458728Y-66728708D01*
X89458724Y-66728703D01*
X89342521Y-66599646D01*
X89342517Y-66599642D01*
X89339051Y-66595793D01*
X89190162Y-66487619D01*
X89185430Y-66485512D01*
X89185428Y-66485511D01*
X89026775Y-66414874D01*
X89026772Y-66414873D01*
X89022035Y-66412764D01*
X88842020Y-66374500D01*
X88657982Y-66374500D01*
X88477967Y-66412764D01*
X88473230Y-66414873D01*
X88473227Y-66414874D01*
X88314574Y-66485511D01*
X88314572Y-66485512D01*
X88309840Y-66487619D01*
X88160951Y-66595793D01*
X88157485Y-66599642D01*
X88157481Y-66599646D01*
X88041278Y-66728703D01*
X88041274Y-66728708D01*
X88037806Y-66732560D01*
X88035211Y-66737055D01*
X87948381Y-66887447D01*
X87948379Y-66887452D01*
X87945787Y-66891941D01*
X87944185Y-66896872D01*
X87890518Y-67062039D01*
X87890517Y-67062044D01*
X87888916Y-67066971D01*
X87869679Y-67250000D01*
X62130323Y-67250000D01*
X62111086Y-67066971D01*
X62109485Y-67062044D01*
X62109484Y-67062039D01*
X62055817Y-66896872D01*
X62054215Y-66891941D01*
X62051623Y-66887452D01*
X62051621Y-66887447D01*
X61964791Y-66737055D01*
X61962196Y-66732560D01*
X61958728Y-66728708D01*
X61958724Y-66728703D01*
X61842521Y-66599646D01*
X61842517Y-66599642D01*
X61839051Y-66595793D01*
X61690162Y-66487619D01*
X61685430Y-66485512D01*
X61685428Y-66485511D01*
X61526775Y-66414874D01*
X61526772Y-66414873D01*
X61522035Y-66412764D01*
X61342020Y-66374500D01*
X61157982Y-66374500D01*
X60977967Y-66412764D01*
X60973230Y-66414873D01*
X60973227Y-66414874D01*
X60814574Y-66485511D01*
X60814572Y-66485512D01*
X60809840Y-66487619D01*
X60660951Y-66595793D01*
X60657485Y-66599642D01*
X60657481Y-66599646D01*
X60541278Y-66728703D01*
X60541274Y-66728708D01*
X60537806Y-66732560D01*
X60535211Y-66737055D01*
X60448381Y-66887447D01*
X60448379Y-66887452D01*
X60445787Y-66891941D01*
X60444185Y-66896872D01*
X60390518Y-67062039D01*
X60390517Y-67062044D01*
X60388916Y-67066971D01*
X60369679Y-67250000D01*
X60130323Y-67250000D01*
X60111086Y-67066971D01*
X60109485Y-67062044D01*
X60109484Y-67062039D01*
X60055817Y-66896872D01*
X60054215Y-66891941D01*
X60051623Y-66887452D01*
X60051621Y-66887447D01*
X59964791Y-66737055D01*
X59962196Y-66732560D01*
X59958728Y-66728708D01*
X59958724Y-66728703D01*
X59842521Y-66599646D01*
X59842517Y-66599642D01*
X59839051Y-66595793D01*
X59690162Y-66487619D01*
X59685430Y-66485512D01*
X59685428Y-66485511D01*
X59526775Y-66414874D01*
X59526772Y-66414873D01*
X59522035Y-66412764D01*
X59342020Y-66374500D01*
X59157982Y-66374500D01*
X58977967Y-66412764D01*
X58973230Y-66414873D01*
X58973227Y-66414874D01*
X58814574Y-66485511D01*
X58814572Y-66485512D01*
X58809840Y-66487619D01*
X58660951Y-66595793D01*
X58657485Y-66599642D01*
X58657481Y-66599646D01*
X58541278Y-66728703D01*
X58541274Y-66728708D01*
X58537806Y-66732560D01*
X58535211Y-66737055D01*
X58448381Y-66887447D01*
X58448379Y-66887452D01*
X58445787Y-66891941D01*
X58444185Y-66896872D01*
X58390518Y-67062039D01*
X58390517Y-67062044D01*
X58388916Y-67066971D01*
X58369679Y-67250000D01*
X50200000Y-67250000D01*
X50200000Y-63790000D01*
X51129437Y-63790000D01*
X51149651Y-64021050D01*
X51209680Y-64245079D01*
X51307699Y-64455281D01*
X51440730Y-64645269D01*
X51604731Y-64809270D01*
X51794718Y-64942301D01*
X52004921Y-65040320D01*
X52009092Y-65041438D01*
X52009093Y-65041438D01*
X52224773Y-65099230D01*
X52224776Y-65099230D01*
X52228950Y-65100349D01*
X52460000Y-65120563D01*
X52691050Y-65100349D01*
X52695224Y-65099230D01*
X52695227Y-65099230D01*
X52910907Y-65041438D01*
X52910908Y-65041438D01*
X52915079Y-65040320D01*
X53125282Y-64942301D01*
X53315269Y-64809270D01*
X53479270Y-64645269D01*
X53612301Y-64455281D01*
X53710320Y-64245079D01*
X53770349Y-64021050D01*
X53790563Y-63790000D01*
X56209437Y-63790000D01*
X56229651Y-64021050D01*
X56289680Y-64245079D01*
X56387699Y-64455281D01*
X56520730Y-64645269D01*
X56684731Y-64809270D01*
X56874718Y-64942301D01*
X57084921Y-65040320D01*
X57089092Y-65041438D01*
X57089093Y-65041438D01*
X57304773Y-65099230D01*
X57304776Y-65099230D01*
X57308950Y-65100349D01*
X57540000Y-65120563D01*
X57771050Y-65100349D01*
X57775224Y-65099230D01*
X57775227Y-65099230D01*
X57990907Y-65041438D01*
X57990908Y-65041438D01*
X57995079Y-65040320D01*
X58205282Y-64942301D01*
X58395269Y-64809270D01*
X58559270Y-64645269D01*
X58692301Y-64455281D01*
X58790320Y-64245079D01*
X58850349Y-64021050D01*
X58870563Y-63790000D01*
X58850349Y-63558950D01*
X58790320Y-63334921D01*
X58692301Y-63124719D01*
X58559270Y-62934731D01*
X58395269Y-62770730D01*
X58205282Y-62637699D01*
X57995079Y-62539680D01*
X57990907Y-62538562D01*
X57775227Y-62480770D01*
X57775224Y-62480770D01*
X57771050Y-62479651D01*
X57540000Y-62459437D01*
X57308950Y-62479651D01*
X57304776Y-62480770D01*
X57304773Y-62480770D01*
X57177502Y-62514873D01*
X57084921Y-62539680D01*
X56874719Y-62637699D01*
X56684731Y-62770730D01*
X56520730Y-62934731D01*
X56387699Y-63124719D01*
X56289680Y-63334921D01*
X56229651Y-63558950D01*
X56209437Y-63790000D01*
X53790563Y-63790000D01*
X53770349Y-63558950D01*
X53710320Y-63334921D01*
X53612301Y-63124719D01*
X53479270Y-62934731D01*
X53315269Y-62770730D01*
X53125282Y-62637699D01*
X52915079Y-62539680D01*
X52910907Y-62538562D01*
X52695227Y-62480770D01*
X52695224Y-62480770D01*
X52691050Y-62479651D01*
X52460000Y-62459437D01*
X52228950Y-62479651D01*
X52224776Y-62480770D01*
X52224773Y-62480770D01*
X52097502Y-62514873D01*
X52004921Y-62539680D01*
X51794719Y-62637699D01*
X51604731Y-62770730D01*
X51440730Y-62934731D01*
X51307699Y-63124719D01*
X51209680Y-63334921D01*
X51149651Y-63558950D01*
X51129437Y-63790000D01*
X50200000Y-63790000D01*
X50200000Y-61250000D01*
X53769819Y-61250000D01*
X53788508Y-61463619D01*
X53789627Y-61467794D01*
X53789627Y-61467796D01*
X53801887Y-61513549D01*
X53844008Y-61670747D01*
X53934632Y-61865090D01*
X54057627Y-62040745D01*
X54209255Y-62192373D01*
X54384909Y-62315368D01*
X54579253Y-62405992D01*
X54664261Y-62428770D01*
X54782204Y-62460373D01*
X54782206Y-62460373D01*
X54786381Y-62461492D01*
X55000000Y-62480181D01*
X55213619Y-62461492D01*
X55217794Y-62460373D01*
X55217796Y-62460373D01*
X55335739Y-62428770D01*
X55420747Y-62405992D01*
X55615091Y-62315368D01*
X55790745Y-62192373D01*
X55942373Y-62040745D01*
X56065368Y-61865090D01*
X56155992Y-61670747D01*
X56198113Y-61513549D01*
X56210373Y-61467796D01*
X56210373Y-61467794D01*
X56211492Y-61463619D01*
X56230181Y-61250000D01*
X56211492Y-61036381D01*
X56155992Y-60829253D01*
X56065368Y-60634910D01*
X55942373Y-60459255D01*
X55790745Y-60307627D01*
X55615091Y-60184632D01*
X55420747Y-60094008D01*
X55335739Y-60071230D01*
X55217796Y-60039627D01*
X55217794Y-60039627D01*
X55213619Y-60038508D01*
X55000000Y-60019819D01*
X54786381Y-60038508D01*
X54782206Y-60039627D01*
X54782204Y-60039627D01*
X54664261Y-60071230D01*
X54579253Y-60094008D01*
X54384910Y-60184632D01*
X54209255Y-60307627D01*
X54057627Y-60459255D01*
X53934632Y-60634910D01*
X53844008Y-60829253D01*
X53788508Y-61036381D01*
X53769819Y-61250000D01*
X50200000Y-61250000D01*
X50200000Y-58710000D01*
X51129437Y-58710000D01*
X51149651Y-58941050D01*
X51209680Y-59165079D01*
X51307699Y-59375281D01*
X51440730Y-59565269D01*
X51604731Y-59729270D01*
X51794718Y-59862301D01*
X52004921Y-59960320D01*
X52009092Y-59961438D01*
X52009093Y-59961438D01*
X52224773Y-60019230D01*
X52224776Y-60019230D01*
X52228950Y-60020349D01*
X52460000Y-60040563D01*
X52691050Y-60020349D01*
X52695224Y-60019230D01*
X52695227Y-60019230D01*
X52910907Y-59961438D01*
X52910908Y-59961438D01*
X52915079Y-59960320D01*
X53125282Y-59862301D01*
X53315269Y-59729270D01*
X53479270Y-59565269D01*
X53612301Y-59375281D01*
X53710320Y-59165079D01*
X53770349Y-58941050D01*
X53790563Y-58710000D01*
X56209437Y-58710000D01*
X56229651Y-58941050D01*
X56289680Y-59165079D01*
X56387699Y-59375281D01*
X56520730Y-59565269D01*
X56684731Y-59729270D01*
X56874718Y-59862301D01*
X57084921Y-59960320D01*
X57089092Y-59961438D01*
X57089093Y-59961438D01*
X57304773Y-60019230D01*
X57304776Y-60019230D01*
X57308950Y-60020349D01*
X57540000Y-60040563D01*
X57771050Y-60020349D01*
X57775224Y-60019230D01*
X57775227Y-60019230D01*
X57990907Y-59961438D01*
X57990908Y-59961438D01*
X57995079Y-59960320D01*
X58205282Y-59862301D01*
X58395269Y-59729270D01*
X58559270Y-59565269D01*
X58692301Y-59375281D01*
X58790320Y-59165079D01*
X58850349Y-58941050D01*
X58870563Y-58710000D01*
X58850349Y-58478950D01*
X58790320Y-58254921D01*
X58692301Y-58044719D01*
X58677023Y-58022899D01*
X58596076Y-57907296D01*
X58559270Y-57854731D01*
X58395269Y-57690730D01*
X58205282Y-57557699D01*
X57995079Y-57459680D01*
X57990907Y-57458562D01*
X57775227Y-57400770D01*
X57775224Y-57400770D01*
X57771050Y-57399651D01*
X57540000Y-57379437D01*
X57308950Y-57399651D01*
X57304776Y-57400770D01*
X57304773Y-57400770D01*
X57177502Y-57434873D01*
X57084921Y-57459680D01*
X56874719Y-57557699D01*
X56684731Y-57690730D01*
X56520730Y-57854731D01*
X56483924Y-57907296D01*
X56402978Y-58022899D01*
X56387699Y-58044719D01*
X56289680Y-58254921D01*
X56229651Y-58478950D01*
X56209437Y-58710000D01*
X53790563Y-58710000D01*
X53770349Y-58478950D01*
X53710320Y-58254921D01*
X53612301Y-58044719D01*
X53597023Y-58022899D01*
X53516076Y-57907296D01*
X53479270Y-57854731D01*
X53315269Y-57690730D01*
X53125282Y-57557699D01*
X52915079Y-57459680D01*
X52910907Y-57458562D01*
X52695227Y-57400770D01*
X52695224Y-57400770D01*
X52691050Y-57399651D01*
X52460000Y-57379437D01*
X52228950Y-57399651D01*
X52224776Y-57400770D01*
X52224773Y-57400770D01*
X52097502Y-57434873D01*
X52004921Y-57459680D01*
X51794719Y-57557699D01*
X51604731Y-57690730D01*
X51440730Y-57854731D01*
X51403924Y-57907296D01*
X51322978Y-58022899D01*
X51307699Y-58044719D01*
X51209680Y-58254921D01*
X51149651Y-58478950D01*
X51129437Y-58710000D01*
X50200000Y-58710000D01*
X50200000Y-53405592D01*
X50495898Y-53405592D01*
X50498370Y-53500000D01*
X50504667Y-53740448D01*
X50504956Y-53751501D01*
X50553712Y-54094076D01*
X50554432Y-54096819D01*
X50554433Y-54096826D01*
X50631970Y-54392380D01*
X50641519Y-54428777D01*
X50642555Y-54431433D01*
X50743752Y-54690989D01*
X50767214Y-54751167D01*
X50768546Y-54753682D01*
X50768547Y-54753685D01*
X50911599Y-55023863D01*
X50929130Y-55056974D01*
X51125122Y-55342144D01*
X51352592Y-55602898D01*
X51354702Y-55604818D01*
X51354704Y-55604820D01*
X51564428Y-55795654D01*
X51608524Y-55835778D01*
X51712120Y-55910219D01*
X51887208Y-56036033D01*
X51887212Y-56036036D01*
X51889527Y-56037699D01*
X52191876Y-56205985D01*
X52194516Y-56207079D01*
X52194517Y-56207079D01*
X52489497Y-56329263D01*
X52511563Y-56338403D01*
X52844352Y-56433201D01*
X53024190Y-56462650D01*
X53183021Y-56488660D01*
X53183024Y-56488660D01*
X53185831Y-56489120D01*
X53531474Y-56505420D01*
X53534319Y-56505226D01*
X53534323Y-56505226D01*
X53873854Y-56482079D01*
X53876700Y-56481885D01*
X54136901Y-56433660D01*
X54214123Y-56419348D01*
X54214126Y-56419347D01*
X54216933Y-56418827D01*
X54547663Y-56317081D01*
X54550266Y-56315938D01*
X54550275Y-56315935D01*
X54861902Y-56179140D01*
X54861909Y-56179137D01*
X54864507Y-56177996D01*
X54866960Y-56176563D01*
X54866969Y-56176558D01*
X55160806Y-56004853D01*
X55160807Y-56004852D01*
X55163265Y-56003416D01*
X55394838Y-55829546D01*
X55437698Y-55797366D01*
X55437699Y-55797365D01*
X55439978Y-55795654D01*
X55583193Y-55659748D01*
X57349500Y-55659748D01*
X57353687Y-55680796D01*
X57358584Y-55705415D01*
X57361133Y-55718231D01*
X57405448Y-55784552D01*
X57471769Y-55828867D01*
X57481332Y-55830769D01*
X57481334Y-55830770D01*
X57496870Y-55833860D01*
X57530252Y-55840500D01*
X59269748Y-55840500D01*
X59303130Y-55833860D01*
X59318666Y-55830770D01*
X59318668Y-55830769D01*
X59328231Y-55828867D01*
X59394552Y-55784552D01*
X59438867Y-55718231D01*
X59441417Y-55705415D01*
X59446313Y-55680796D01*
X59450500Y-55659748D01*
X59450500Y-54775262D01*
X59884520Y-54775262D01*
X59901759Y-54980553D01*
X59958544Y-55178586D01*
X60052712Y-55361818D01*
X60180677Y-55523270D01*
X60184357Y-55526402D01*
X60184359Y-55526404D01*
X60228395Y-55563881D01*
X60337564Y-55656791D01*
X60341787Y-55659151D01*
X60341791Y-55659154D01*
X60385248Y-55683441D01*
X60517398Y-55757297D01*
X60521996Y-55758791D01*
X60708724Y-55819463D01*
X60708726Y-55819464D01*
X60713329Y-55820959D01*
X60917894Y-55845351D01*
X60922716Y-55844980D01*
X60922719Y-55844980D01*
X60993259Y-55839552D01*
X61123300Y-55829546D01*
X61321725Y-55774145D01*
X61326038Y-55771966D01*
X61326044Y-55771964D01*
X61501289Y-55683441D01*
X61501291Y-55683440D01*
X61505610Y-55681258D01*
X61514260Y-55674500D01*
X61664135Y-55557406D01*
X61664139Y-55557402D01*
X61667951Y-55554424D01*
X61802564Y-55398472D01*
X61821231Y-55365613D01*
X61901934Y-55223550D01*
X61901935Y-55223547D01*
X61904323Y-55219344D01*
X61917882Y-55178586D01*
X61967824Y-55028454D01*
X61967824Y-55028452D01*
X61969351Y-55023863D01*
X61995171Y-54819474D01*
X61995583Y-54790000D01*
X61994138Y-54775262D01*
X62424520Y-54775262D01*
X62441759Y-54980553D01*
X62498544Y-55178586D01*
X62592712Y-55361818D01*
X62720677Y-55523270D01*
X62724357Y-55526402D01*
X62724359Y-55526404D01*
X62768395Y-55563881D01*
X62877564Y-55656791D01*
X62881787Y-55659151D01*
X62881791Y-55659154D01*
X62925248Y-55683441D01*
X63057398Y-55757297D01*
X63061996Y-55758791D01*
X63248724Y-55819463D01*
X63248726Y-55819464D01*
X63253329Y-55820959D01*
X63457894Y-55845351D01*
X63462716Y-55844980D01*
X63462719Y-55844980D01*
X63533259Y-55839552D01*
X63663300Y-55829546D01*
X63861725Y-55774145D01*
X63866038Y-55771966D01*
X63866044Y-55771964D01*
X64041289Y-55683441D01*
X64041291Y-55683440D01*
X64045610Y-55681258D01*
X64054260Y-55674500D01*
X64204135Y-55557406D01*
X64204139Y-55557402D01*
X64207951Y-55554424D01*
X64342564Y-55398472D01*
X64361231Y-55365613D01*
X64441934Y-55223550D01*
X64441935Y-55223547D01*
X64444323Y-55219344D01*
X64457882Y-55178586D01*
X64507824Y-55028454D01*
X64507824Y-55028452D01*
X64509351Y-55023863D01*
X64535171Y-54819474D01*
X64535583Y-54790000D01*
X64534138Y-54775262D01*
X64964520Y-54775262D01*
X64981759Y-54980553D01*
X65038544Y-55178586D01*
X65132712Y-55361818D01*
X65260677Y-55523270D01*
X65264357Y-55526402D01*
X65264359Y-55526404D01*
X65308395Y-55563881D01*
X65417564Y-55656791D01*
X65421787Y-55659151D01*
X65421791Y-55659154D01*
X65465248Y-55683441D01*
X65597398Y-55757297D01*
X65601996Y-55758791D01*
X65788724Y-55819463D01*
X65788726Y-55819464D01*
X65793329Y-55820959D01*
X65997894Y-55845351D01*
X66002716Y-55844980D01*
X66002719Y-55844980D01*
X66073259Y-55839552D01*
X66203300Y-55829546D01*
X66401725Y-55774145D01*
X66406038Y-55771966D01*
X66406044Y-55771964D01*
X66581289Y-55683441D01*
X66581291Y-55683440D01*
X66585610Y-55681258D01*
X66594260Y-55674500D01*
X66744135Y-55557406D01*
X66744139Y-55557402D01*
X66747951Y-55554424D01*
X66882564Y-55398472D01*
X66901231Y-55365613D01*
X66981934Y-55223550D01*
X66981935Y-55223547D01*
X66984323Y-55219344D01*
X66997882Y-55178586D01*
X67047824Y-55028454D01*
X67047824Y-55028452D01*
X67049351Y-55023863D01*
X67075171Y-54819474D01*
X67075583Y-54790000D01*
X67074138Y-54775262D01*
X67504520Y-54775262D01*
X67521759Y-54980553D01*
X67578544Y-55178586D01*
X67672712Y-55361818D01*
X67800677Y-55523270D01*
X67804357Y-55526402D01*
X67804359Y-55526404D01*
X67848395Y-55563881D01*
X67957564Y-55656791D01*
X67961787Y-55659151D01*
X67961791Y-55659154D01*
X68005248Y-55683441D01*
X68137398Y-55757297D01*
X68141996Y-55758791D01*
X68328724Y-55819463D01*
X68328726Y-55819464D01*
X68333329Y-55820959D01*
X68537894Y-55845351D01*
X68542716Y-55844980D01*
X68542719Y-55844980D01*
X68613259Y-55839552D01*
X68743300Y-55829546D01*
X68941725Y-55774145D01*
X68946038Y-55771966D01*
X68946044Y-55771964D01*
X69121289Y-55683441D01*
X69121291Y-55683440D01*
X69125610Y-55681258D01*
X69134260Y-55674500D01*
X69284135Y-55557406D01*
X69284139Y-55557402D01*
X69287951Y-55554424D01*
X69422564Y-55398472D01*
X69441231Y-55365613D01*
X69521934Y-55223550D01*
X69521935Y-55223547D01*
X69524323Y-55219344D01*
X69537882Y-55178586D01*
X69587824Y-55028454D01*
X69587824Y-55028452D01*
X69589351Y-55023863D01*
X69615171Y-54819474D01*
X69615583Y-54790000D01*
X69612421Y-54757750D01*
X69595952Y-54589780D01*
X69595951Y-54589776D01*
X69595480Y-54584970D01*
X69535935Y-54387749D01*
X69439218Y-54205849D01*
X69309011Y-54046200D01*
X69292790Y-54032781D01*
X69154002Y-53917965D01*
X69154000Y-53917964D01*
X69150275Y-53914882D01*
X69013468Y-53840911D01*
X68973309Y-53819197D01*
X68973308Y-53819197D01*
X68969055Y-53816897D01*
X68899764Y-53795448D01*
X68776875Y-53757407D01*
X68776871Y-53757406D01*
X68772254Y-53755977D01*
X68767446Y-53755472D01*
X68767443Y-53755471D01*
X68572185Y-53734949D01*
X68572183Y-53734949D01*
X68567369Y-53734443D01*
X68511800Y-53739500D01*
X68367022Y-53752675D01*
X68367017Y-53752676D01*
X68362203Y-53753114D01*
X68164572Y-53811280D01*
X68160288Y-53813519D01*
X68160287Y-53813520D01*
X68101206Y-53844407D01*
X67982002Y-53906726D01*
X67978231Y-53909758D01*
X67825220Y-54032781D01*
X67825217Y-54032783D01*
X67821447Y-54035815D01*
X67818333Y-54039526D01*
X67818332Y-54039527D01*
X67770253Y-54096826D01*
X67689024Y-54193630D01*
X67686689Y-54197878D01*
X67686688Y-54197879D01*
X67679955Y-54210126D01*
X67589776Y-54374162D01*
X67588313Y-54378775D01*
X67588311Y-54378779D01*
X67534413Y-54548689D01*
X67527484Y-54570532D01*
X67526944Y-54575344D01*
X67526944Y-54575345D01*
X67507223Y-54751167D01*
X67504520Y-54775262D01*
X67074138Y-54775262D01*
X67072421Y-54757750D01*
X67055952Y-54589780D01*
X67055951Y-54589776D01*
X67055480Y-54584970D01*
X66995935Y-54387749D01*
X66899218Y-54205849D01*
X66769011Y-54046200D01*
X66752790Y-54032781D01*
X66614002Y-53917965D01*
X66614000Y-53917964D01*
X66610275Y-53914882D01*
X66473468Y-53840911D01*
X66433309Y-53819197D01*
X66433308Y-53819197D01*
X66429055Y-53816897D01*
X66359764Y-53795448D01*
X66236875Y-53757407D01*
X66236871Y-53757406D01*
X66232254Y-53755977D01*
X66227446Y-53755472D01*
X66227443Y-53755471D01*
X66032185Y-53734949D01*
X66032183Y-53734949D01*
X66027369Y-53734443D01*
X65971800Y-53739500D01*
X65827022Y-53752675D01*
X65827017Y-53752676D01*
X65822203Y-53753114D01*
X65624572Y-53811280D01*
X65620288Y-53813519D01*
X65620287Y-53813520D01*
X65561206Y-53844407D01*
X65442002Y-53906726D01*
X65438231Y-53909758D01*
X65285220Y-54032781D01*
X65285217Y-54032783D01*
X65281447Y-54035815D01*
X65278333Y-54039526D01*
X65278332Y-54039527D01*
X65230253Y-54096826D01*
X65149024Y-54193630D01*
X65146689Y-54197878D01*
X65146688Y-54197879D01*
X65139955Y-54210126D01*
X65049776Y-54374162D01*
X65048313Y-54378775D01*
X65048311Y-54378779D01*
X64994413Y-54548689D01*
X64987484Y-54570532D01*
X64986944Y-54575344D01*
X64986944Y-54575345D01*
X64967223Y-54751167D01*
X64964520Y-54775262D01*
X64534138Y-54775262D01*
X64532421Y-54757750D01*
X64515952Y-54589780D01*
X64515951Y-54589776D01*
X64515480Y-54584970D01*
X64455935Y-54387749D01*
X64359218Y-54205849D01*
X64229011Y-54046200D01*
X64212790Y-54032781D01*
X64074002Y-53917965D01*
X64074000Y-53917964D01*
X64070275Y-53914882D01*
X63933468Y-53840911D01*
X63893309Y-53819197D01*
X63893308Y-53819197D01*
X63889055Y-53816897D01*
X63819764Y-53795448D01*
X63696875Y-53757407D01*
X63696871Y-53757406D01*
X63692254Y-53755977D01*
X63687446Y-53755472D01*
X63687443Y-53755471D01*
X63492185Y-53734949D01*
X63492183Y-53734949D01*
X63487369Y-53734443D01*
X63431800Y-53739500D01*
X63287022Y-53752675D01*
X63287017Y-53752676D01*
X63282203Y-53753114D01*
X63084572Y-53811280D01*
X63080288Y-53813519D01*
X63080287Y-53813520D01*
X63021206Y-53844407D01*
X62902002Y-53906726D01*
X62898231Y-53909758D01*
X62745220Y-54032781D01*
X62745217Y-54032783D01*
X62741447Y-54035815D01*
X62738333Y-54039526D01*
X62738332Y-54039527D01*
X62690253Y-54096826D01*
X62609024Y-54193630D01*
X62606689Y-54197878D01*
X62606688Y-54197879D01*
X62599955Y-54210126D01*
X62509776Y-54374162D01*
X62508313Y-54378775D01*
X62508311Y-54378779D01*
X62454413Y-54548689D01*
X62447484Y-54570532D01*
X62446944Y-54575344D01*
X62446944Y-54575345D01*
X62427223Y-54751167D01*
X62424520Y-54775262D01*
X61994138Y-54775262D01*
X61992421Y-54757750D01*
X61975952Y-54589780D01*
X61975951Y-54589776D01*
X61975480Y-54584970D01*
X61915935Y-54387749D01*
X61819218Y-54205849D01*
X61689011Y-54046200D01*
X61672790Y-54032781D01*
X61534002Y-53917965D01*
X61534000Y-53917964D01*
X61530275Y-53914882D01*
X61393468Y-53840911D01*
X61353309Y-53819197D01*
X61353308Y-53819197D01*
X61349055Y-53816897D01*
X61279764Y-53795448D01*
X61156875Y-53757407D01*
X61156871Y-53757406D01*
X61152254Y-53755977D01*
X61147446Y-53755472D01*
X61147443Y-53755471D01*
X60952185Y-53734949D01*
X60952183Y-53734949D01*
X60947369Y-53734443D01*
X60891800Y-53739500D01*
X60747022Y-53752675D01*
X60747017Y-53752676D01*
X60742203Y-53753114D01*
X60544572Y-53811280D01*
X60540288Y-53813519D01*
X60540287Y-53813520D01*
X60481206Y-53844407D01*
X60362002Y-53906726D01*
X60358231Y-53909758D01*
X60205220Y-54032781D01*
X60205217Y-54032783D01*
X60201447Y-54035815D01*
X60198333Y-54039526D01*
X60198332Y-54039527D01*
X60150253Y-54096826D01*
X60069024Y-54193630D01*
X60066689Y-54197878D01*
X60066688Y-54197879D01*
X60059955Y-54210126D01*
X59969776Y-54374162D01*
X59968313Y-54378775D01*
X59968311Y-54378779D01*
X59914413Y-54548689D01*
X59907484Y-54570532D01*
X59906944Y-54575344D01*
X59906944Y-54575345D01*
X59887223Y-54751167D01*
X59884520Y-54775262D01*
X59450500Y-54775262D01*
X59450500Y-53920252D01*
X59438867Y-53861769D01*
X59394552Y-53795448D01*
X59328231Y-53751133D01*
X59318668Y-53749231D01*
X59318666Y-53749230D01*
X59295995Y-53744721D01*
X59269748Y-53739500D01*
X57530252Y-53739500D01*
X57504005Y-53744721D01*
X57481334Y-53749230D01*
X57481332Y-53749231D01*
X57471769Y-53751133D01*
X57405448Y-53795448D01*
X57361133Y-53861769D01*
X57349500Y-53920252D01*
X57349500Y-55659748D01*
X55583193Y-55659748D01*
X55639734Y-55606093D01*
X55688909Y-55559428D01*
X55688914Y-55559423D01*
X55690977Y-55557465D01*
X55716948Y-55526404D01*
X55911108Y-55294192D01*
X55911113Y-55294185D01*
X55912936Y-55292005D01*
X56102913Y-55002792D01*
X56258390Y-54693662D01*
X56355324Y-54428777D01*
X56376323Y-54371394D01*
X56376324Y-54371391D01*
X56377305Y-54368710D01*
X56458084Y-54032243D01*
X56461892Y-54000781D01*
X56499389Y-53690913D01*
X56499389Y-53690910D01*
X56499654Y-53688722D01*
X56505585Y-53500000D01*
X56500142Y-53405592D01*
X56488271Y-53199725D01*
X56485666Y-53154547D01*
X56478454Y-53113225D01*
X56426663Y-52816471D01*
X56426661Y-52816463D01*
X56426174Y-52813672D01*
X56327897Y-52481894D01*
X56275839Y-52359846D01*
X57355483Y-52359846D01*
X57361847Y-52435644D01*
X57363585Y-52445111D01*
X57417674Y-52633743D01*
X57421225Y-52642711D01*
X57510919Y-52817236D01*
X57516142Y-52825341D01*
X57638037Y-52979134D01*
X57644720Y-52986055D01*
X57794164Y-53113241D01*
X57802078Y-53118742D01*
X57973373Y-53214475D01*
X57982201Y-53218332D01*
X58168838Y-53278974D01*
X58178238Y-53281041D01*
X58284432Y-53293704D01*
X58297514Y-53291113D01*
X58298955Y-53289557D01*
X58300000Y-53284803D01*
X58300000Y-53279775D01*
X58500000Y-53279775D01*
X58504122Y-53292460D01*
X58506735Y-53294359D01*
X58509679Y-53294710D01*
X58578385Y-53289424D01*
X58587876Y-53287750D01*
X58776882Y-53234978D01*
X58785862Y-53231496D01*
X58961020Y-53143017D01*
X58969155Y-53137854D01*
X59123787Y-53017042D01*
X59130771Y-53010391D01*
X59258990Y-52861848D01*
X59264546Y-52853973D01*
X59361471Y-52683353D01*
X59365392Y-52674546D01*
X59427334Y-52488346D01*
X59429469Y-52478944D01*
X59443794Y-52365556D01*
X59442704Y-52359846D01*
X59895483Y-52359846D01*
X59901847Y-52435644D01*
X59903585Y-52445111D01*
X59957674Y-52633743D01*
X59961225Y-52642711D01*
X60050919Y-52817236D01*
X60056142Y-52825341D01*
X60178037Y-52979134D01*
X60184720Y-52986055D01*
X60334164Y-53113241D01*
X60342078Y-53118742D01*
X60513373Y-53214475D01*
X60522201Y-53218332D01*
X60708838Y-53278974D01*
X60718238Y-53281041D01*
X60824432Y-53293704D01*
X60837514Y-53291113D01*
X60838955Y-53289557D01*
X60840000Y-53284803D01*
X60840000Y-53279775D01*
X61040000Y-53279775D01*
X61044122Y-53292460D01*
X61046735Y-53294359D01*
X61049679Y-53294710D01*
X61118385Y-53289424D01*
X61127876Y-53287750D01*
X61316882Y-53234978D01*
X61325862Y-53231496D01*
X61501020Y-53143017D01*
X61509155Y-53137854D01*
X61663787Y-53017042D01*
X61670771Y-53010391D01*
X61798990Y-52861848D01*
X61804546Y-52853973D01*
X61901471Y-52683353D01*
X61905392Y-52674546D01*
X61967334Y-52488346D01*
X61969469Y-52478944D01*
X61983794Y-52365556D01*
X61981294Y-52352455D01*
X61979884Y-52351130D01*
X61974829Y-52350000D01*
X61055680Y-52350000D01*
X61042995Y-52354122D01*
X61040000Y-52358243D01*
X61040000Y-53279775D01*
X60840000Y-53279775D01*
X60840000Y-52365680D01*
X60835878Y-52352995D01*
X60831757Y-52350000D01*
X59910336Y-52350000D01*
X59897651Y-52354122D01*
X59895860Y-52356586D01*
X59895483Y-52359846D01*
X59442704Y-52359846D01*
X59441294Y-52352455D01*
X59439884Y-52351130D01*
X59434829Y-52350000D01*
X58515680Y-52350000D01*
X58502995Y-52354122D01*
X58500000Y-52358243D01*
X58500000Y-53279775D01*
X58300000Y-53279775D01*
X58300000Y-52365680D01*
X58295878Y-52352995D01*
X58291757Y-52350000D01*
X57370336Y-52350000D01*
X57357651Y-52354122D01*
X57355860Y-52356586D01*
X57355483Y-52359846D01*
X56275839Y-52359846D01*
X56222700Y-52235262D01*
X62424520Y-52235262D01*
X62424925Y-52240082D01*
X62441347Y-52435644D01*
X62441759Y-52440553D01*
X62443092Y-52445201D01*
X62443092Y-52445202D01*
X62454400Y-52484636D01*
X62498544Y-52638586D01*
X62592712Y-52821818D01*
X62720677Y-52983270D01*
X62724357Y-52986402D01*
X62724359Y-52986404D01*
X62790251Y-53042482D01*
X62877564Y-53116791D01*
X62881787Y-53119151D01*
X62881791Y-53119154D01*
X62954555Y-53159820D01*
X63057398Y-53217297D01*
X63061996Y-53218791D01*
X63248724Y-53279463D01*
X63248726Y-53279464D01*
X63253329Y-53280959D01*
X63457894Y-53305351D01*
X63462716Y-53304980D01*
X63462719Y-53304980D01*
X63530541Y-53299761D01*
X63663300Y-53289546D01*
X63861725Y-53234145D01*
X63866038Y-53231966D01*
X63866044Y-53231964D01*
X64041289Y-53143441D01*
X64041291Y-53143440D01*
X64045610Y-53141258D01*
X64073902Y-53119154D01*
X64204135Y-53017406D01*
X64204139Y-53017402D01*
X64207951Y-53014424D01*
X64211325Y-53010516D01*
X64267313Y-52945651D01*
X64342564Y-52858472D01*
X64361385Y-52825341D01*
X64441934Y-52683550D01*
X64441935Y-52683547D01*
X64444323Y-52679344D01*
X64445920Y-52674546D01*
X64507824Y-52488454D01*
X64507824Y-52488452D01*
X64509351Y-52483863D01*
X64509973Y-52478944D01*
X64534823Y-52282228D01*
X64535171Y-52279474D01*
X64535583Y-52250000D01*
X64534138Y-52235262D01*
X64964520Y-52235262D01*
X64964925Y-52240082D01*
X64981347Y-52435644D01*
X64981759Y-52440553D01*
X64983092Y-52445201D01*
X64983092Y-52445202D01*
X64994400Y-52484636D01*
X65038544Y-52638586D01*
X65132712Y-52821818D01*
X65260677Y-52983270D01*
X65264357Y-52986402D01*
X65264359Y-52986404D01*
X65330251Y-53042482D01*
X65417564Y-53116791D01*
X65421787Y-53119151D01*
X65421791Y-53119154D01*
X65494555Y-53159820D01*
X65597398Y-53217297D01*
X65601996Y-53218791D01*
X65788724Y-53279463D01*
X65788726Y-53279464D01*
X65793329Y-53280959D01*
X65997894Y-53305351D01*
X66002716Y-53304980D01*
X66002719Y-53304980D01*
X66070541Y-53299761D01*
X66203300Y-53289546D01*
X66401725Y-53234145D01*
X66406038Y-53231966D01*
X66406044Y-53231964D01*
X66581289Y-53143441D01*
X66581291Y-53143440D01*
X66585610Y-53141258D01*
X66613902Y-53119154D01*
X66744135Y-53017406D01*
X66744139Y-53017402D01*
X66747951Y-53014424D01*
X66751325Y-53010516D01*
X66807313Y-52945651D01*
X66882564Y-52858472D01*
X66901385Y-52825341D01*
X66981934Y-52683550D01*
X66981935Y-52683547D01*
X66984323Y-52679344D01*
X66985920Y-52674546D01*
X67047824Y-52488454D01*
X67047824Y-52488452D01*
X67049351Y-52483863D01*
X67049973Y-52478944D01*
X67074823Y-52282228D01*
X67075171Y-52279474D01*
X67075583Y-52250000D01*
X67073071Y-52224382D01*
X67055952Y-52049780D01*
X67055951Y-52049776D01*
X67055480Y-52044970D01*
X67049759Y-52026019D01*
X66997333Y-51852380D01*
X66995935Y-51847749D01*
X66990977Y-51838423D01*
X66980351Y-51778170D01*
X67008384Y-51721942D01*
X67375830Y-51354496D01*
X67430347Y-51326719D01*
X67445834Y-51325500D01*
X67753450Y-51325500D01*
X67811641Y-51344407D01*
X67847605Y-51393907D01*
X67847605Y-51455093D01*
X67823260Y-51494357D01*
X67821447Y-51495815D01*
X67818339Y-51499520D01*
X67818336Y-51499522D01*
X67702766Y-51637253D01*
X67689024Y-51653630D01*
X67686689Y-51657878D01*
X67686688Y-51657879D01*
X67679955Y-51670126D01*
X67589776Y-51834162D01*
X67588313Y-51838775D01*
X67588311Y-51838779D01*
X67585466Y-51847749D01*
X67527484Y-52030532D01*
X67526944Y-52035344D01*
X67526944Y-52035345D01*
X67509200Y-52193543D01*
X67504520Y-52235262D01*
X67504925Y-52240082D01*
X67521347Y-52435644D01*
X67521759Y-52440553D01*
X67523092Y-52445201D01*
X67523092Y-52445202D01*
X67534400Y-52484636D01*
X67578544Y-52638586D01*
X67672712Y-52821818D01*
X67800677Y-52983270D01*
X67804357Y-52986402D01*
X67804359Y-52986404D01*
X67870251Y-53042482D01*
X67957564Y-53116791D01*
X67961787Y-53119151D01*
X67961791Y-53119154D01*
X68034555Y-53159820D01*
X68137398Y-53217297D01*
X68141996Y-53218791D01*
X68328724Y-53279463D01*
X68328726Y-53279464D01*
X68333329Y-53280959D01*
X68537894Y-53305351D01*
X68542716Y-53304980D01*
X68542719Y-53304980D01*
X68610541Y-53299761D01*
X68743300Y-53289546D01*
X68941725Y-53234145D01*
X68972164Y-53218769D01*
X69032629Y-53209408D01*
X69086805Y-53237131D01*
X69566731Y-53717057D01*
X69572565Y-53723424D01*
X69597545Y-53753194D01*
X69631205Y-53772627D01*
X69638489Y-53777268D01*
X69670316Y-53799554D01*
X69678684Y-53801796D01*
X69683971Y-53804262D01*
X69689456Y-53806258D01*
X69696955Y-53810588D01*
X69705481Y-53812091D01*
X69705483Y-53812092D01*
X69735216Y-53817334D01*
X69743650Y-53819204D01*
X69781193Y-53829264D01*
X69789822Y-53828509D01*
X69819905Y-53825877D01*
X69828534Y-53825500D01*
X70341900Y-53825500D01*
X70400091Y-53844407D01*
X70436055Y-53893907D01*
X70436055Y-53955093D01*
X70403933Y-54001655D01*
X70365225Y-54032777D01*
X70365223Y-54032779D01*
X70361447Y-54035815D01*
X70358333Y-54039526D01*
X70358332Y-54039527D01*
X70310253Y-54096826D01*
X70229024Y-54193630D01*
X70226689Y-54197878D01*
X70226688Y-54197879D01*
X70219955Y-54210126D01*
X70129776Y-54374162D01*
X70128313Y-54378775D01*
X70128311Y-54378779D01*
X70074413Y-54548689D01*
X70067484Y-54570532D01*
X70066944Y-54575344D01*
X70066944Y-54575345D01*
X70047223Y-54751167D01*
X70044520Y-54775262D01*
X70061759Y-54980553D01*
X70118544Y-55178586D01*
X70212712Y-55361818D01*
X70340677Y-55523270D01*
X70344357Y-55526402D01*
X70344359Y-55526404D01*
X70388395Y-55563881D01*
X70497564Y-55656791D01*
X70501787Y-55659151D01*
X70501791Y-55659154D01*
X70545248Y-55683441D01*
X70677398Y-55757297D01*
X70681996Y-55758791D01*
X70868724Y-55819463D01*
X70868726Y-55819464D01*
X70873329Y-55820959D01*
X71077894Y-55845351D01*
X71082716Y-55844980D01*
X71082719Y-55844980D01*
X71153259Y-55839552D01*
X71283300Y-55829546D01*
X71481725Y-55774145D01*
X71486038Y-55771966D01*
X71486044Y-55771964D01*
X71661289Y-55683441D01*
X71661291Y-55683440D01*
X71665610Y-55681258D01*
X71674260Y-55674500D01*
X71824135Y-55557406D01*
X71824139Y-55557402D01*
X71827951Y-55554424D01*
X71962564Y-55398472D01*
X71981231Y-55365613D01*
X72061934Y-55223550D01*
X72061935Y-55223547D01*
X72064323Y-55219344D01*
X72077882Y-55178586D01*
X72127824Y-55028454D01*
X72127824Y-55028452D01*
X72129351Y-55023863D01*
X72155171Y-54819474D01*
X72155583Y-54790000D01*
X72152421Y-54757750D01*
X72135952Y-54589780D01*
X72135951Y-54589776D01*
X72135480Y-54584970D01*
X72075935Y-54387749D01*
X71979218Y-54205849D01*
X71849011Y-54046200D01*
X71832786Y-54032777D01*
X71794109Y-54000781D01*
X71761324Y-53949120D01*
X71765166Y-53888056D01*
X71804167Y-53840911D01*
X71857214Y-53825500D01*
X72881900Y-53825500D01*
X72940091Y-53844407D01*
X72976055Y-53893907D01*
X72976055Y-53955093D01*
X72943933Y-54001655D01*
X72905225Y-54032777D01*
X72905223Y-54032779D01*
X72901447Y-54035815D01*
X72898333Y-54039526D01*
X72898332Y-54039527D01*
X72850253Y-54096826D01*
X72769024Y-54193630D01*
X72766689Y-54197878D01*
X72766688Y-54197879D01*
X72759955Y-54210126D01*
X72669776Y-54374162D01*
X72668313Y-54378775D01*
X72668311Y-54378779D01*
X72614413Y-54548689D01*
X72607484Y-54570532D01*
X72606944Y-54575344D01*
X72606944Y-54575345D01*
X72587223Y-54751167D01*
X72584520Y-54775262D01*
X72601759Y-54980553D01*
X72658544Y-55178586D01*
X72752712Y-55361818D01*
X72880677Y-55523270D01*
X72884357Y-55526402D01*
X72884359Y-55526404D01*
X72928395Y-55563881D01*
X73037564Y-55656791D01*
X73041787Y-55659151D01*
X73041791Y-55659154D01*
X73085248Y-55683441D01*
X73217398Y-55757297D01*
X73221996Y-55758791D01*
X73408724Y-55819463D01*
X73408726Y-55819464D01*
X73413329Y-55820959D01*
X73617894Y-55845351D01*
X73622716Y-55844980D01*
X73622719Y-55844980D01*
X73693259Y-55839552D01*
X73823300Y-55829546D01*
X74021725Y-55774145D01*
X74026038Y-55771966D01*
X74026044Y-55771964D01*
X74201289Y-55683441D01*
X74201291Y-55683440D01*
X74205610Y-55681258D01*
X74214260Y-55674500D01*
X74364135Y-55557406D01*
X74364139Y-55557402D01*
X74367951Y-55554424D01*
X74502564Y-55398472D01*
X74521231Y-55365613D01*
X74601934Y-55223550D01*
X74601935Y-55223547D01*
X74604323Y-55219344D01*
X74617882Y-55178586D01*
X74667824Y-55028454D01*
X74667824Y-55028452D01*
X74669351Y-55023863D01*
X74695171Y-54819474D01*
X74695583Y-54790000D01*
X74692421Y-54757750D01*
X74675952Y-54589780D01*
X74675951Y-54589776D01*
X74675480Y-54584970D01*
X74615935Y-54387749D01*
X74519218Y-54205849D01*
X74389011Y-54046200D01*
X74372786Y-54032777D01*
X74334109Y-54000781D01*
X74301324Y-53949120D01*
X74305166Y-53888056D01*
X74344167Y-53840911D01*
X74397214Y-53825500D01*
X75421900Y-53825500D01*
X75480091Y-53844407D01*
X75516055Y-53893907D01*
X75516055Y-53955093D01*
X75483933Y-54001655D01*
X75445225Y-54032777D01*
X75445223Y-54032779D01*
X75441447Y-54035815D01*
X75438333Y-54039526D01*
X75438332Y-54039527D01*
X75390253Y-54096826D01*
X75309024Y-54193630D01*
X75306689Y-54197878D01*
X75306688Y-54197879D01*
X75299955Y-54210126D01*
X75209776Y-54374162D01*
X75208313Y-54378775D01*
X75208311Y-54378779D01*
X75154413Y-54548689D01*
X75147484Y-54570532D01*
X75146944Y-54575344D01*
X75146944Y-54575345D01*
X75127223Y-54751167D01*
X75124520Y-54775262D01*
X75141759Y-54980553D01*
X75198544Y-55178586D01*
X75292712Y-55361818D01*
X75420677Y-55523270D01*
X75424357Y-55526402D01*
X75424359Y-55526404D01*
X75468395Y-55563881D01*
X75577564Y-55656791D01*
X75581787Y-55659151D01*
X75581791Y-55659154D01*
X75625248Y-55683441D01*
X75757398Y-55757297D01*
X75761996Y-55758791D01*
X75948724Y-55819463D01*
X75948726Y-55819464D01*
X75953329Y-55820959D01*
X76157894Y-55845351D01*
X76162716Y-55844980D01*
X76162719Y-55844980D01*
X76233259Y-55839552D01*
X76363300Y-55829546D01*
X76561725Y-55774145D01*
X76566038Y-55771966D01*
X76566044Y-55771964D01*
X76741289Y-55683441D01*
X76741291Y-55683440D01*
X76745610Y-55681258D01*
X76754260Y-55674500D01*
X76904135Y-55557406D01*
X76904139Y-55557402D01*
X76907951Y-55554424D01*
X77042564Y-55398472D01*
X77061231Y-55365613D01*
X77141934Y-55223550D01*
X77141935Y-55223547D01*
X77144323Y-55219344D01*
X77157882Y-55178586D01*
X77207824Y-55028454D01*
X77207824Y-55028452D01*
X77209351Y-55023863D01*
X77235171Y-54819474D01*
X77235583Y-54790000D01*
X77232421Y-54757750D01*
X77215952Y-54589780D01*
X77215951Y-54589776D01*
X77215480Y-54584970D01*
X77155935Y-54387749D01*
X77059218Y-54205849D01*
X76929011Y-54046200D01*
X76912786Y-54032777D01*
X76874109Y-54000781D01*
X76841324Y-53949120D01*
X76845166Y-53888056D01*
X76884167Y-53840911D01*
X76937214Y-53825500D01*
X77961900Y-53825500D01*
X78020091Y-53844407D01*
X78056055Y-53893907D01*
X78056055Y-53955093D01*
X78023933Y-54001655D01*
X77985225Y-54032777D01*
X77985223Y-54032779D01*
X77981447Y-54035815D01*
X77978333Y-54039526D01*
X77978332Y-54039527D01*
X77930253Y-54096826D01*
X77849024Y-54193630D01*
X77846689Y-54197878D01*
X77846688Y-54197879D01*
X77839955Y-54210126D01*
X77749776Y-54374162D01*
X77748313Y-54378775D01*
X77748311Y-54378779D01*
X77694413Y-54548689D01*
X77687484Y-54570532D01*
X77686944Y-54575344D01*
X77686944Y-54575345D01*
X77667223Y-54751167D01*
X77664520Y-54775262D01*
X77681759Y-54980553D01*
X77738544Y-55178586D01*
X77832712Y-55361818D01*
X77960677Y-55523270D01*
X77964357Y-55526402D01*
X77964359Y-55526404D01*
X78008395Y-55563881D01*
X78117564Y-55656791D01*
X78121787Y-55659151D01*
X78121791Y-55659154D01*
X78165248Y-55683441D01*
X78297398Y-55757297D01*
X78301996Y-55758791D01*
X78488724Y-55819463D01*
X78488726Y-55819464D01*
X78493329Y-55820959D01*
X78697894Y-55845351D01*
X78702716Y-55844980D01*
X78702719Y-55844980D01*
X78773259Y-55839552D01*
X78903300Y-55829546D01*
X79101725Y-55774145D01*
X79132164Y-55758769D01*
X79192629Y-55749408D01*
X79246805Y-55777132D01*
X79686742Y-56217070D01*
X79692565Y-56223424D01*
X79717545Y-56253194D01*
X79725042Y-56257523D01*
X79725044Y-56257524D01*
X79751206Y-56272628D01*
X79758484Y-56277264D01*
X79790316Y-56299553D01*
X79798682Y-56301795D01*
X79803973Y-56304262D01*
X79809450Y-56306255D01*
X79816955Y-56310588D01*
X79846038Y-56315716D01*
X79855231Y-56317337D01*
X79863657Y-56319205D01*
X79901193Y-56329263D01*
X79939896Y-56325877D01*
X79948525Y-56325500D01*
X105324166Y-56325500D01*
X105382357Y-56344407D01*
X105394170Y-56354496D01*
X107030495Y-57990821D01*
X107058272Y-58045338D01*
X107059491Y-58060825D01*
X107059491Y-69616457D01*
X107059114Y-69625086D01*
X107055727Y-69663798D01*
X107057969Y-69672165D01*
X107065787Y-69701340D01*
X107067657Y-69709774D01*
X107074403Y-69748036D01*
X107078733Y-69755535D01*
X107080729Y-69761020D01*
X107083195Y-69766307D01*
X107085437Y-69774675D01*
X107106004Y-69804047D01*
X107107723Y-69806502D01*
X107112362Y-69813783D01*
X107131797Y-69847446D01*
X107161562Y-69872422D01*
X107167930Y-69878256D01*
X108756731Y-71467057D01*
X108762565Y-71473424D01*
X108787545Y-71503194D01*
X108821205Y-71522627D01*
X108828489Y-71527268D01*
X108860316Y-71549554D01*
X108868684Y-71551796D01*
X108873971Y-71554262D01*
X108879456Y-71556258D01*
X108886955Y-71560588D01*
X108895481Y-71562091D01*
X108895483Y-71562092D01*
X108925216Y-71567334D01*
X108933650Y-71569204D01*
X108971193Y-71579264D01*
X109009908Y-71575877D01*
X109018537Y-71575500D01*
X110619831Y-71575500D01*
X110678022Y-71594407D01*
X110705567Y-71625000D01*
X110787805Y-71767440D01*
X110791273Y-71771292D01*
X110791277Y-71771297D01*
X110907480Y-71900354D01*
X110907484Y-71900358D01*
X110910950Y-71904207D01*
X111059839Y-72012381D01*
X111064571Y-72014488D01*
X111064573Y-72014489D01*
X111223226Y-72085126D01*
X111223229Y-72085127D01*
X111227966Y-72087236D01*
X111407981Y-72125500D01*
X111592019Y-72125500D01*
X111772034Y-72087236D01*
X111776771Y-72085127D01*
X111776774Y-72085126D01*
X111935427Y-72014489D01*
X111935429Y-72014488D01*
X111940161Y-72012381D01*
X112089050Y-71904207D01*
X112092516Y-71900358D01*
X112092520Y-71900354D01*
X112208723Y-71771297D01*
X112208727Y-71771292D01*
X112212195Y-71767440D01*
X112235843Y-71726480D01*
X112301620Y-71612553D01*
X112301622Y-71612548D01*
X112304214Y-71608059D01*
X112331973Y-71522627D01*
X112359483Y-71437961D01*
X112359484Y-71437956D01*
X112361085Y-71433029D01*
X112380322Y-71250000D01*
X112361085Y-71066971D01*
X112359484Y-71062044D01*
X112359483Y-71062039D01*
X112305816Y-70896872D01*
X112304214Y-70891941D01*
X112301622Y-70887452D01*
X112301620Y-70887447D01*
X112214790Y-70737055D01*
X112212195Y-70732560D01*
X112208727Y-70728708D01*
X112208723Y-70728703D01*
X112092520Y-70599646D01*
X112092516Y-70599642D01*
X112089050Y-70595793D01*
X111940161Y-70487619D01*
X111935429Y-70485512D01*
X111935427Y-70485511D01*
X111776774Y-70414874D01*
X111776771Y-70414873D01*
X111772034Y-70412764D01*
X111592019Y-70374500D01*
X111407981Y-70374500D01*
X111227966Y-70412764D01*
X111223229Y-70414873D01*
X111223226Y-70414874D01*
X111064573Y-70485511D01*
X111064571Y-70485512D01*
X111059839Y-70487619D01*
X110910950Y-70595793D01*
X110907484Y-70599642D01*
X110907480Y-70599646D01*
X110791277Y-70728703D01*
X110791273Y-70728708D01*
X110787805Y-70732560D01*
X110785210Y-70737055D01*
X110705567Y-70875000D01*
X110660098Y-70915941D01*
X110619831Y-70924500D01*
X109175834Y-70924500D01*
X109117643Y-70905593D01*
X109105830Y-70895504D01*
X107739487Y-69529161D01*
X107711710Y-69474644D01*
X107710491Y-69459157D01*
X107710491Y-68659825D01*
X107729398Y-68601634D01*
X107778898Y-68565670D01*
X107840084Y-68565670D01*
X107879495Y-68589821D01*
X108336146Y-69046473D01*
X108756742Y-69467069D01*
X108762565Y-69473424D01*
X108787545Y-69503194D01*
X108821219Y-69522636D01*
X108828475Y-69527259D01*
X108860316Y-69549554D01*
X108868678Y-69551795D01*
X108873960Y-69554258D01*
X108879454Y-69556257D01*
X108886955Y-69560588D01*
X108925228Y-69567337D01*
X108933656Y-69569206D01*
X108962827Y-69577022D01*
X108962830Y-69577022D01*
X108971193Y-69579263D01*
X109009896Y-69575877D01*
X109018525Y-69575500D01*
X110619831Y-69575500D01*
X110678022Y-69594407D01*
X110705567Y-69625000D01*
X110787805Y-69767440D01*
X110791273Y-69771292D01*
X110791277Y-69771297D01*
X110907480Y-69900354D01*
X110907484Y-69900358D01*
X110910950Y-69904207D01*
X111059839Y-70012381D01*
X111064571Y-70014488D01*
X111064573Y-70014489D01*
X111223226Y-70085126D01*
X111223229Y-70085127D01*
X111227966Y-70087236D01*
X111407981Y-70125500D01*
X111592019Y-70125500D01*
X111772034Y-70087236D01*
X111776771Y-70085127D01*
X111776774Y-70085126D01*
X111935427Y-70014489D01*
X111935429Y-70014488D01*
X111940161Y-70012381D01*
X112089050Y-69904207D01*
X112092516Y-69900358D01*
X112092520Y-69900354D01*
X112208723Y-69771297D01*
X112208727Y-69771292D01*
X112212195Y-69767440D01*
X112249463Y-69702890D01*
X112301620Y-69612553D01*
X112301622Y-69612548D01*
X112304214Y-69608059D01*
X112340443Y-69496559D01*
X112359483Y-69437961D01*
X112359484Y-69437956D01*
X112361085Y-69433029D01*
X112380322Y-69250000D01*
X112361085Y-69066971D01*
X112359484Y-69062044D01*
X112359483Y-69062039D01*
X112305816Y-68896872D01*
X112304214Y-68891941D01*
X112301622Y-68887452D01*
X112301620Y-68887447D01*
X112214790Y-68737055D01*
X112212195Y-68732560D01*
X112208727Y-68728708D01*
X112208723Y-68728703D01*
X112092520Y-68599646D01*
X112092516Y-68599642D01*
X112089050Y-68595793D01*
X111940161Y-68487619D01*
X111935429Y-68485512D01*
X111935427Y-68485511D01*
X111776774Y-68414874D01*
X111776771Y-68414873D01*
X111772034Y-68412764D01*
X111592019Y-68374500D01*
X111407981Y-68374500D01*
X111227966Y-68412764D01*
X111223229Y-68414873D01*
X111223226Y-68414874D01*
X111064573Y-68485511D01*
X111064571Y-68485512D01*
X111059839Y-68487619D01*
X110910950Y-68595793D01*
X110907484Y-68599642D01*
X110907480Y-68599646D01*
X110791277Y-68728703D01*
X110791273Y-68728708D01*
X110787805Y-68732560D01*
X110740354Y-68814748D01*
X110705567Y-68875000D01*
X110660098Y-68915941D01*
X110619831Y-68924500D01*
X109175835Y-68924500D01*
X109117644Y-68905593D01*
X109105831Y-68895504D01*
X108189007Y-67978681D01*
X108161230Y-67924164D01*
X108160011Y-67908677D01*
X108160011Y-67109345D01*
X108178918Y-67051154D01*
X108228418Y-67015190D01*
X108289604Y-67015190D01*
X108329015Y-67039341D01*
X108756731Y-67467057D01*
X108762565Y-67473424D01*
X108787545Y-67503194D01*
X108821205Y-67522627D01*
X108828489Y-67527268D01*
X108860316Y-67549554D01*
X108868684Y-67551796D01*
X108873971Y-67554262D01*
X108879456Y-67556258D01*
X108886955Y-67560588D01*
X108895481Y-67562091D01*
X108895483Y-67562092D01*
X108925216Y-67567334D01*
X108933650Y-67569204D01*
X108971193Y-67579264D01*
X108979822Y-67578509D01*
X109009905Y-67575877D01*
X109018534Y-67575500D01*
X110619831Y-67575500D01*
X110678022Y-67594407D01*
X110705567Y-67625000D01*
X110787805Y-67767440D01*
X110791273Y-67771292D01*
X110791277Y-67771297D01*
X110907480Y-67900354D01*
X110907484Y-67900358D01*
X110910950Y-67904207D01*
X111059839Y-68012381D01*
X111064571Y-68014488D01*
X111064573Y-68014489D01*
X111223226Y-68085126D01*
X111223229Y-68085127D01*
X111227966Y-68087236D01*
X111407981Y-68125500D01*
X111592019Y-68125500D01*
X111772034Y-68087236D01*
X111776771Y-68085127D01*
X111776774Y-68085126D01*
X111935427Y-68014489D01*
X111935429Y-68014488D01*
X111940161Y-68012381D01*
X112089050Y-67904207D01*
X112092516Y-67900358D01*
X112092520Y-67900354D01*
X112208723Y-67771297D01*
X112208727Y-67771292D01*
X112212195Y-67767440D01*
X112235843Y-67726480D01*
X112301620Y-67612553D01*
X112301622Y-67612548D01*
X112304214Y-67608059D01*
X112331973Y-67522627D01*
X112359483Y-67437961D01*
X112359484Y-67437956D01*
X112361085Y-67433029D01*
X112380322Y-67250000D01*
X112361085Y-67066971D01*
X112359484Y-67062044D01*
X112359483Y-67062039D01*
X112305816Y-66896872D01*
X112304214Y-66891941D01*
X112301622Y-66887452D01*
X112301620Y-66887447D01*
X112214790Y-66737055D01*
X112212195Y-66732560D01*
X112208727Y-66728708D01*
X112208723Y-66728703D01*
X112092520Y-66599646D01*
X112092516Y-66599642D01*
X112089050Y-66595793D01*
X111940161Y-66487619D01*
X111935429Y-66485512D01*
X111935427Y-66485511D01*
X111776774Y-66414874D01*
X111776771Y-66414873D01*
X111772034Y-66412764D01*
X111592019Y-66374500D01*
X111407981Y-66374500D01*
X111227966Y-66412764D01*
X111223229Y-66414873D01*
X111223226Y-66414874D01*
X111064573Y-66485511D01*
X111064571Y-66485512D01*
X111059839Y-66487619D01*
X110910950Y-66595793D01*
X110907484Y-66599642D01*
X110907480Y-66599646D01*
X110791277Y-66728703D01*
X110791273Y-66728708D01*
X110787805Y-66732560D01*
X110785210Y-66737055D01*
X110705567Y-66875000D01*
X110660098Y-66915941D01*
X110619831Y-66924500D01*
X109175834Y-66924500D01*
X109117643Y-66905593D01*
X109105830Y-66895504D01*
X108638527Y-66428201D01*
X108610750Y-66373684D01*
X108609531Y-66358197D01*
X108609531Y-65944748D01*
X110624500Y-65944748D01*
X110636133Y-66003231D01*
X110680448Y-66069552D01*
X110746769Y-66113867D01*
X110756332Y-66115769D01*
X110756334Y-66115770D01*
X110779005Y-66120279D01*
X110805252Y-66125500D01*
X112194748Y-66125500D01*
X112220995Y-66120279D01*
X112243666Y-66115770D01*
X112243668Y-66115769D01*
X112253231Y-66113867D01*
X112319552Y-66069552D01*
X112363867Y-66003231D01*
X112375500Y-65944748D01*
X112375500Y-64555252D01*
X112363867Y-64496769D01*
X112319552Y-64430448D01*
X112253231Y-64386133D01*
X112243668Y-64384231D01*
X112243666Y-64384230D01*
X112220995Y-64379721D01*
X112194748Y-64374500D01*
X110805252Y-64374500D01*
X110779005Y-64379721D01*
X110756334Y-64384230D01*
X110756332Y-64384231D01*
X110746769Y-64386133D01*
X110680448Y-64430448D01*
X110636133Y-64496769D01*
X110624500Y-64555252D01*
X110624500Y-65944748D01*
X108609531Y-65944748D01*
X108609531Y-58000000D01*
X109044857Y-58000000D01*
X109046100Y-58005449D01*
X109047521Y-58011679D01*
X109050000Y-58033696D01*
X109050001Y-61465779D01*
X109047444Y-61488131D01*
X109044859Y-61499285D01*
X109044858Y-61500001D01*
X109046102Y-61505455D01*
X109046102Y-61505456D01*
X109046559Y-61507460D01*
X109048560Y-61519765D01*
X109060130Y-61637224D01*
X109100157Y-61769174D01*
X109165157Y-61890780D01*
X109252632Y-61997368D01*
X109359220Y-62084843D01*
X109480826Y-62149843D01*
X109485480Y-62151255D01*
X109485483Y-62151256D01*
X109608118Y-62188457D01*
X109612776Y-62189870D01*
X109729198Y-62201338D01*
X109741841Y-62203416D01*
X109749283Y-62205141D01*
X109749999Y-62205142D01*
X109761677Y-62202478D01*
X109783695Y-62199999D01*
X113215779Y-62199999D01*
X113238131Y-62202556D01*
X113249285Y-62205141D01*
X113250001Y-62205142D01*
X113255455Y-62203898D01*
X113255456Y-62203898D01*
X113257460Y-62203441D01*
X113269765Y-62201440D01*
X113345540Y-62193976D01*
X113387224Y-62189870D01*
X113391882Y-62188457D01*
X113514517Y-62151256D01*
X113514520Y-62151255D01*
X113519174Y-62149843D01*
X113640780Y-62084843D01*
X113747368Y-61997368D01*
X113834843Y-61890780D01*
X113899843Y-61769174D01*
X113939870Y-61637224D01*
X113951338Y-61520802D01*
X113953417Y-61508155D01*
X113953875Y-61506178D01*
X113955141Y-61500717D01*
X113955142Y-61500001D01*
X113952478Y-61488322D01*
X113949999Y-61466305D01*
X113949999Y-58034221D01*
X113952556Y-58011866D01*
X113952600Y-58011679D01*
X113955141Y-58000715D01*
X113955142Y-57999999D01*
X113953898Y-57994544D01*
X113953441Y-57992540D01*
X113951440Y-57980235D01*
X113940347Y-57867620D01*
X113939870Y-57862776D01*
X113907873Y-57757296D01*
X113901256Y-57735483D01*
X113901255Y-57735480D01*
X113899843Y-57730826D01*
X113834843Y-57609220D01*
X113794594Y-57560176D01*
X113750457Y-57506396D01*
X113747368Y-57502632D01*
X113644535Y-57418239D01*
X113640780Y-57415157D01*
X113636485Y-57412861D01*
X113523466Y-57352451D01*
X113523465Y-57352451D01*
X113519174Y-57350157D01*
X113514520Y-57348745D01*
X113514517Y-57348744D01*
X113391882Y-57311543D01*
X113387224Y-57310130D01*
X113270802Y-57298662D01*
X113258159Y-57296584D01*
X113250717Y-57294859D01*
X113250001Y-57294858D01*
X113244549Y-57296102D01*
X113244546Y-57296102D01*
X113238324Y-57297521D01*
X113216306Y-57300001D01*
X111513476Y-57300001D01*
X109784222Y-57300000D01*
X109761870Y-57297443D01*
X109750716Y-57294858D01*
X109750000Y-57294857D01*
X109744546Y-57296101D01*
X109744545Y-57296101D01*
X109742541Y-57296558D01*
X109730236Y-57298559D01*
X109617618Y-57309652D01*
X109617617Y-57309652D01*
X109612776Y-57310129D01*
X109480825Y-57350155D01*
X109476534Y-57352449D01*
X109476533Y-57352449D01*
X109447686Y-57367868D01*
X109359219Y-57415155D01*
X109252631Y-57502631D01*
X109165155Y-57609219D01*
X109162861Y-57613511D01*
X109108783Y-57714684D01*
X109100155Y-57730825D01*
X109060129Y-57862776D01*
X109059652Y-57867620D01*
X109059652Y-57867621D01*
X109048662Y-57979195D01*
X109046583Y-57991842D01*
X109044858Y-57999284D01*
X109044857Y-58000000D01*
X108609531Y-58000000D01*
X108609531Y-54851905D01*
X108628438Y-54793714D01*
X108677938Y-54757750D01*
X108739124Y-54757750D01*
X108788624Y-54793714D01*
X108796024Y-54805580D01*
X108909056Y-55019060D01*
X108929130Y-55056974D01*
X109125122Y-55342144D01*
X109352592Y-55602898D01*
X109354702Y-55604818D01*
X109354704Y-55604820D01*
X109564428Y-55795654D01*
X109608524Y-55835778D01*
X109712120Y-55910219D01*
X109887208Y-56036033D01*
X109887212Y-56036036D01*
X109889527Y-56037699D01*
X110191876Y-56205985D01*
X110194516Y-56207079D01*
X110194517Y-56207079D01*
X110489497Y-56329263D01*
X110511563Y-56338403D01*
X110844352Y-56433201D01*
X111024190Y-56462650D01*
X111183021Y-56488660D01*
X111183024Y-56488660D01*
X111185831Y-56489120D01*
X111531474Y-56505420D01*
X111534319Y-56505226D01*
X111534323Y-56505226D01*
X111873854Y-56482079D01*
X111876700Y-56481885D01*
X112136901Y-56433660D01*
X112214123Y-56419348D01*
X112214126Y-56419347D01*
X112216933Y-56418827D01*
X112547663Y-56317081D01*
X112550266Y-56315938D01*
X112550275Y-56315935D01*
X112861902Y-56179140D01*
X112861909Y-56179137D01*
X112864507Y-56177996D01*
X112866960Y-56176563D01*
X112866969Y-56176558D01*
X113160806Y-56004853D01*
X113160807Y-56004852D01*
X113163265Y-56003416D01*
X113394838Y-55829546D01*
X113437698Y-55797366D01*
X113437699Y-55797365D01*
X113439978Y-55795654D01*
X113639734Y-55606093D01*
X113688909Y-55559428D01*
X113688914Y-55559423D01*
X113690977Y-55557465D01*
X113716948Y-55526404D01*
X113911108Y-55294192D01*
X113911113Y-55294185D01*
X113912936Y-55292005D01*
X114102913Y-55002792D01*
X114258390Y-54693662D01*
X114355324Y-54428777D01*
X114376323Y-54371394D01*
X114376324Y-54371391D01*
X114377305Y-54368710D01*
X114458084Y-54032243D01*
X114461892Y-54000781D01*
X114499389Y-53690913D01*
X114499389Y-53690910D01*
X114499654Y-53688722D01*
X114505585Y-53500000D01*
X114500142Y-53405592D01*
X114488271Y-53199725D01*
X114485666Y-53154547D01*
X114478454Y-53113225D01*
X114426663Y-52816471D01*
X114426661Y-52816463D01*
X114426174Y-52813672D01*
X114327897Y-52481894D01*
X114192138Y-52163611D01*
X114185436Y-52151860D01*
X114022106Y-51865513D01*
X114020696Y-51863041D01*
X113815843Y-51584168D01*
X113813912Y-51582090D01*
X113813907Y-51582084D01*
X113624227Y-51377965D01*
X113580295Y-51330688D01*
X113578131Y-51328840D01*
X113578126Y-51328835D01*
X113448237Y-51217900D01*
X113317174Y-51105962D01*
X113029967Y-50912967D01*
X112722482Y-50754261D01*
X112719810Y-50753251D01*
X112719807Y-50753250D01*
X112580064Y-50700446D01*
X112398793Y-50631950D01*
X112396028Y-50631255D01*
X112396020Y-50631253D01*
X112171944Y-50574969D01*
X112063190Y-50547652D01*
X111862043Y-50521171D01*
X111722952Y-50502859D01*
X111722947Y-50502859D01*
X111720124Y-50502487D01*
X111717278Y-50502442D01*
X111717274Y-50502442D01*
X111534159Y-50499565D01*
X111374139Y-50497051D01*
X111371294Y-50497335D01*
X111032657Y-50531136D01*
X111032655Y-50531136D01*
X111029823Y-50531419D01*
X111027049Y-50532024D01*
X111027048Y-50532024D01*
X110955372Y-50547652D01*
X110691739Y-50605133D01*
X110364367Y-50717217D01*
X110052048Y-50866186D01*
X110049635Y-50867700D01*
X110049629Y-50867703D01*
X109974933Y-50914560D01*
X109758921Y-51050064D01*
X109756698Y-51051845D01*
X109560421Y-51209093D01*
X109488871Y-51266415D01*
X109245477Y-51512371D01*
X109193173Y-51579077D01*
X109033721Y-51782433D01*
X109033716Y-51782440D01*
X109031966Y-51784672D01*
X108851168Y-52079709D01*
X108817677Y-52151860D01*
X108798328Y-52193543D01*
X108756678Y-52238363D01*
X108696637Y-52250143D01*
X108641140Y-52224382D01*
X108611383Y-52170920D01*
X108609531Y-52151860D01*
X108609531Y-51802557D01*
X108609908Y-51793929D01*
X108611104Y-51780258D01*
X108613294Y-51755224D01*
X108611053Y-51746861D01*
X108611053Y-51746858D01*
X108603237Y-51717687D01*
X108601368Y-51709259D01*
X108596123Y-51679516D01*
X108594619Y-51670986D01*
X108590288Y-51663485D01*
X108588289Y-51657991D01*
X108585826Y-51652709D01*
X108583585Y-51644347D01*
X108561290Y-51612506D01*
X108556667Y-51605250D01*
X108537225Y-51571576D01*
X108507466Y-51546605D01*
X108501098Y-51540771D01*
X107743269Y-50782943D01*
X107737434Y-50776575D01*
X107718022Y-50753441D01*
X107712455Y-50746806D01*
X107678792Y-50727371D01*
X107671511Y-50722732D01*
X107669056Y-50721013D01*
X107639684Y-50700446D01*
X107631316Y-50698204D01*
X107626029Y-50695738D01*
X107620544Y-50693742D01*
X107613045Y-50689412D01*
X107604519Y-50687909D01*
X107604517Y-50687908D01*
X107574784Y-50682666D01*
X107566349Y-50680796D01*
X107537174Y-50672978D01*
X107528807Y-50670736D01*
X107520178Y-50671491D01*
X107490095Y-50674123D01*
X107481466Y-50674500D01*
X67288534Y-50674500D01*
X67279905Y-50674123D01*
X67249822Y-50671491D01*
X67241193Y-50670736D01*
X67232826Y-50672978D01*
X67203651Y-50680796D01*
X67195216Y-50682666D01*
X67165483Y-50687908D01*
X67165481Y-50687909D01*
X67156955Y-50689412D01*
X67149456Y-50693742D01*
X67143971Y-50695738D01*
X67138684Y-50698204D01*
X67130316Y-50700446D01*
X67100944Y-50721013D01*
X67098489Y-50722732D01*
X67091208Y-50727371D01*
X67057545Y-50746806D01*
X67032569Y-50776571D01*
X67026735Y-50782939D01*
X66548556Y-51261118D01*
X66494039Y-51288895D01*
X66438480Y-51279404D01*
X66437777Y-51281076D01*
X66433315Y-51279200D01*
X66429055Y-51276897D01*
X66418146Y-51273520D01*
X66236875Y-51217407D01*
X66236871Y-51217406D01*
X66232254Y-51215977D01*
X66227446Y-51215472D01*
X66227443Y-51215471D01*
X66032185Y-51194949D01*
X66032183Y-51194949D01*
X66027369Y-51194443D01*
X65967354Y-51199905D01*
X65827022Y-51212675D01*
X65827017Y-51212676D01*
X65822203Y-51213114D01*
X65624572Y-51271280D01*
X65620288Y-51273519D01*
X65620287Y-51273520D01*
X65605834Y-51281076D01*
X65442002Y-51366726D01*
X65438231Y-51369758D01*
X65285220Y-51492781D01*
X65285217Y-51492783D01*
X65281447Y-51495815D01*
X65278333Y-51499526D01*
X65278332Y-51499527D01*
X65183529Y-51612509D01*
X65149024Y-51653630D01*
X65146689Y-51657878D01*
X65146688Y-51657879D01*
X65139955Y-51670126D01*
X65049776Y-51834162D01*
X65048313Y-51838775D01*
X65048311Y-51838779D01*
X65045466Y-51847749D01*
X64987484Y-52030532D01*
X64986944Y-52035344D01*
X64986944Y-52035345D01*
X64969200Y-52193543D01*
X64964520Y-52235262D01*
X64534138Y-52235262D01*
X64533071Y-52224382D01*
X64515952Y-52049780D01*
X64515951Y-52049776D01*
X64515480Y-52044970D01*
X64509759Y-52026019D01*
X64457333Y-51852380D01*
X64455935Y-51847749D01*
X64359218Y-51665849D01*
X64229011Y-51506200D01*
X64212790Y-51492781D01*
X64074002Y-51377965D01*
X64074000Y-51377964D01*
X64070275Y-51374882D01*
X63889055Y-51276897D01*
X63825855Y-51257333D01*
X63696875Y-51217407D01*
X63696871Y-51217406D01*
X63692254Y-51215977D01*
X63687446Y-51215472D01*
X63687443Y-51215471D01*
X63492185Y-51194949D01*
X63492183Y-51194949D01*
X63487369Y-51194443D01*
X63427354Y-51199905D01*
X63287022Y-51212675D01*
X63287017Y-51212676D01*
X63282203Y-51213114D01*
X63084572Y-51271280D01*
X63080288Y-51273519D01*
X63080287Y-51273520D01*
X63065834Y-51281076D01*
X62902002Y-51366726D01*
X62898231Y-51369758D01*
X62745220Y-51492781D01*
X62745217Y-51492783D01*
X62741447Y-51495815D01*
X62738333Y-51499526D01*
X62738332Y-51499527D01*
X62643529Y-51612509D01*
X62609024Y-51653630D01*
X62606689Y-51657878D01*
X62606688Y-51657879D01*
X62599955Y-51670126D01*
X62509776Y-51834162D01*
X62508313Y-51838775D01*
X62508311Y-51838779D01*
X62505466Y-51847749D01*
X62447484Y-52030532D01*
X62446944Y-52035344D01*
X62446944Y-52035345D01*
X62429200Y-52193543D01*
X62424520Y-52235262D01*
X56222700Y-52235262D01*
X56192138Y-52163611D01*
X56185436Y-52151860D01*
X56175487Y-52134417D01*
X57356334Y-52134417D01*
X57359016Y-52147484D01*
X57360719Y-52149039D01*
X57365165Y-52150000D01*
X58284320Y-52150000D01*
X58297005Y-52145878D01*
X58300000Y-52141757D01*
X58300000Y-52134320D01*
X58500000Y-52134320D01*
X58504122Y-52147005D01*
X58508243Y-52150000D01*
X59429596Y-52150000D01*
X59442281Y-52145878D01*
X59443854Y-52143713D01*
X59444278Y-52139818D01*
X59443748Y-52134417D01*
X59896334Y-52134417D01*
X59899016Y-52147484D01*
X59900719Y-52149039D01*
X59905165Y-52150000D01*
X60824320Y-52150000D01*
X60837005Y-52145878D01*
X60840000Y-52141757D01*
X60840000Y-52134320D01*
X61040000Y-52134320D01*
X61044122Y-52147005D01*
X61048243Y-52150000D01*
X61969596Y-52150000D01*
X61982281Y-52145878D01*
X61983854Y-52143713D01*
X61984278Y-52139818D01*
X61975459Y-52049885D01*
X61973589Y-52040437D01*
X61916869Y-51852572D01*
X61913199Y-51843668D01*
X61821072Y-51670401D01*
X61815740Y-51662376D01*
X61691716Y-51510307D01*
X61684922Y-51503466D01*
X61533721Y-51378381D01*
X61525738Y-51372997D01*
X61353114Y-51279660D01*
X61344243Y-51275931D01*
X61156775Y-51217900D01*
X61147341Y-51215963D01*
X61055594Y-51206320D01*
X61042548Y-51209093D01*
X61040881Y-51210945D01*
X61040000Y-51215088D01*
X61040000Y-52134320D01*
X60840000Y-52134320D01*
X60840000Y-51220396D01*
X60835878Y-51207711D01*
X60833563Y-51206028D01*
X60829987Y-51205627D01*
X60747117Y-51213168D01*
X60737654Y-51214974D01*
X60549407Y-51270378D01*
X60540466Y-51273991D01*
X60366573Y-51364899D01*
X60358497Y-51370184D01*
X60205571Y-51493140D01*
X60198687Y-51499881D01*
X60072551Y-51650205D01*
X60067104Y-51658159D01*
X59972573Y-51830111D01*
X59968773Y-51838976D01*
X59909440Y-52026019D01*
X59907435Y-52035450D01*
X59896334Y-52134417D01*
X59443748Y-52134417D01*
X59435459Y-52049885D01*
X59433589Y-52040437D01*
X59376869Y-51852572D01*
X59373199Y-51843668D01*
X59281072Y-51670401D01*
X59275740Y-51662376D01*
X59151716Y-51510307D01*
X59144922Y-51503466D01*
X58993721Y-51378381D01*
X58985738Y-51372997D01*
X58813114Y-51279660D01*
X58804243Y-51275931D01*
X58616775Y-51217900D01*
X58607341Y-51215963D01*
X58515594Y-51206320D01*
X58502548Y-51209093D01*
X58500881Y-51210945D01*
X58500000Y-51215088D01*
X58500000Y-52134320D01*
X58300000Y-52134320D01*
X58300000Y-51220396D01*
X58295878Y-51207711D01*
X58293563Y-51206028D01*
X58289987Y-51205627D01*
X58207117Y-51213168D01*
X58197654Y-51214974D01*
X58009407Y-51270378D01*
X58000466Y-51273991D01*
X57826573Y-51364899D01*
X57818497Y-51370184D01*
X57665571Y-51493140D01*
X57658687Y-51499881D01*
X57532551Y-51650205D01*
X57527104Y-51658159D01*
X57432573Y-51830111D01*
X57428773Y-51838976D01*
X57369440Y-52026019D01*
X57367435Y-52035450D01*
X57356334Y-52134417D01*
X56175487Y-52134417D01*
X56022106Y-51865513D01*
X56020696Y-51863041D01*
X55815843Y-51584168D01*
X55813912Y-51582090D01*
X55813907Y-51582084D01*
X55624227Y-51377965D01*
X55580295Y-51330688D01*
X55578131Y-51328840D01*
X55578126Y-51328835D01*
X55448237Y-51217900D01*
X55317174Y-51105962D01*
X55029967Y-50912967D01*
X54722482Y-50754261D01*
X54719810Y-50753251D01*
X54719807Y-50753250D01*
X54580064Y-50700446D01*
X54398793Y-50631950D01*
X54396028Y-50631255D01*
X54396020Y-50631253D01*
X54171944Y-50574969D01*
X54063190Y-50547652D01*
X53862043Y-50521171D01*
X53722952Y-50502859D01*
X53722947Y-50502859D01*
X53720124Y-50502487D01*
X53717278Y-50502442D01*
X53717274Y-50502442D01*
X53534159Y-50499565D01*
X53374139Y-50497051D01*
X53371294Y-50497335D01*
X53032657Y-50531136D01*
X53032655Y-50531136D01*
X53029823Y-50531419D01*
X53027049Y-50532024D01*
X53027048Y-50532024D01*
X52955372Y-50547652D01*
X52691739Y-50605133D01*
X52364367Y-50717217D01*
X52052048Y-50866186D01*
X52049635Y-50867700D01*
X52049629Y-50867703D01*
X51974933Y-50914560D01*
X51758921Y-51050064D01*
X51756698Y-51051845D01*
X51560421Y-51209093D01*
X51488871Y-51266415D01*
X51245477Y-51512371D01*
X51193173Y-51579077D01*
X51033721Y-51782433D01*
X51033716Y-51782440D01*
X51031966Y-51784672D01*
X50851168Y-52079709D01*
X50705478Y-52393570D01*
X50596828Y-52722097D01*
X50526658Y-53060935D01*
X50526405Y-53063773D01*
X50526404Y-53063778D01*
X50505884Y-53293704D01*
X50495898Y-53405592D01*
X50200000Y-53405592D01*
X50200000Y-53033960D01*
X50202518Y-53011773D01*
X50202645Y-53011222D01*
X50202645Y-53011221D01*
X50205143Y-53000358D01*
X50202683Y-52989485D01*
X50202701Y-52979203D01*
X50201785Y-52968216D01*
X50207743Y-52862138D01*
X50217295Y-52692046D01*
X50218537Y-52681019D01*
X50219162Y-52677344D01*
X50269270Y-52382428D01*
X50271740Y-52371604D01*
X50311019Y-52235262D01*
X50355590Y-52080555D01*
X50359255Y-52070082D01*
X50475160Y-51790261D01*
X50479977Y-51780258D01*
X50512208Y-51721942D01*
X50626482Y-51515179D01*
X50632388Y-51505779D01*
X50715919Y-51388053D01*
X50807656Y-51258761D01*
X50814576Y-51250084D01*
X50847615Y-51213114D01*
X50991733Y-51051845D01*
X51016396Y-51024247D01*
X51024247Y-51016396D01*
X51250084Y-50814576D01*
X51258764Y-50807654D01*
X51335440Y-50753250D01*
X51505779Y-50632388D01*
X51515179Y-50626482D01*
X51656551Y-50548348D01*
X51780264Y-50479974D01*
X51790261Y-50475160D01*
X52070082Y-50359255D01*
X52080555Y-50355590D01*
X52272062Y-50300417D01*
X52371604Y-50271740D01*
X52382428Y-50269270D01*
X52470605Y-50254288D01*
X52681024Y-50218536D01*
X52692046Y-50217295D01*
X52967703Y-50201814D01*
X52977630Y-50202659D01*
X52977630Y-50202625D01*
X52988777Y-50202645D01*
X52999642Y-50205143D01*
X53010514Y-50202683D01*
X53010516Y-50202683D01*
X53011583Y-50202441D01*
X53033432Y-50200000D01*
X111966040Y-50200000D01*
X111988227Y-50202518D01*
G37*
%TD.AperFunction*%
%TD*%
M02*
